<svg xmlns="http://www.w3.org/2000/svg" xmlns:xlink="http://www.w3.org/1999/xlink" width="500" zoomAndPan="magnify" viewBox="0 0 375 374.999991" height="500" preserveAspectRatio="xMidYMid meet" version="1.0"><defs><clipPath id="65882b82e4"><path d="M 143.160156 146.664062 L 231.53125 146.664062 L 231.53125 228.335938 L 143.160156 228.335938 Z M 143.160156 146.664062 " clip-rule="nonzero"/></clipPath><clipPath id="002bfcc5a1"><path d="M 150.960938 146.664062 L 223.761719 146.664062 C 225.832031 146.664062 227.8125 147.488281 229.277344 148.949219 C 230.742188 150.414062 231.5625 152.394531 231.5625 154.464844 L 231.5625 220.535156 C 231.5625 222.605469 230.742188 224.589844 229.277344 226.050781 C 227.8125 227.515625 225.832031 228.335938 223.761719 228.335938 L 150.960938 228.335938 C 148.890625 228.335938 146.910156 227.515625 145.445312 226.050781 C 143.984375 224.589844 143.160156 222.605469 143.160156 220.535156 L 143.160156 154.464844 C 143.160156 152.394531 143.984375 150.414062 145.445312 148.949219 C 146.910156 147.488281 148.890625 146.664062 150.960938 146.664062 Z M 150.960938 146.664062 " clip-rule="nonzero"/></clipPath><clipPath id="f8acf0f937"><path d="M 150.960938 146.664062 L 223.761719 146.664062 C 225.832031 146.664062 227.8125 147.488281 229.277344 148.949219 C 230.742188 150.414062 231.5625 152.394531 231.5625 154.464844 L 231.5625 220.535156 C 231.5625 222.605469 230.742188 224.589844 229.277344 226.050781 C 227.8125 227.515625 225.832031 228.335938 223.761719 228.335938 L 150.960938 228.335938 C 148.890625 228.335938 146.910156 227.515625 145.445312 226.050781 C 143.984375 224.589844 143.160156 222.605469 143.160156 220.535156 L 143.160156 154.464844 C 143.160156 152.394531 143.984375 150.414062 145.445312 148.949219 C 146.910156 147.488281 148.890625 146.664062 150.960938 146.664062 Z M 150.960938 146.664062 " clip-rule="nonzero"/></clipPath><linearGradient x1="0.00331832" gradientTransform="matrix(0.319028, 0, 0, 0.319028, 143.160874, 146.665466)" y1="128" x2="276.999174" gradientUnits="userSpaceOnUse" y2="128" id="09b11c908e"><stop stop-opacity="1" stop-color="rgb(53.729248%, 85.099792%, 34.118652%)" offset="0"/><stop stop-opacity="1" stop-color="rgb(53.915405%, 85.099792%, 34.118652%)" offset="0.015625"/><stop stop-opacity="1" stop-color="rgb(54.121399%, 85.099792%, 34.118652%)" offset="0.0234375"/><stop stop-opacity="1" stop-color="rgb(54.324341%, 85.099792%, 34.118652%)" offset="0.03125"/><stop stop-opacity="1" stop-color="rgb(54.701233%, 85.099792%, 34.310913%)" offset="0.046875"/><stop stop-opacity="1" stop-color="rgb(55.084229%, 85.099792%, 34.506226%)" offset="0.0625"/><stop stop-opacity="1" stop-color="rgb(55.290222%, 85.293579%, 34.509277%)" offset="0.0703125"/><stop stop-opacity="1" stop-color="rgb(55.496216%, 85.488892%, 34.509277%)" offset="0.078125"/><stop stop-opacity="1" stop-color="rgb(55.877686%, 85.488892%, 34.509277%)" offset="0.09375"/><stop stop-opacity="1" stop-color="rgb(56.072998%, 85.488892%, 34.509277%)" offset="0.101562"/><stop stop-opacity="1" stop-color="rgb(56.274414%, 85.488892%, 34.518433%)" offset="0.109375"/><stop stop-opacity="1" stop-color="rgb(56.663513%, 85.488892%, 34.713745%)" offset="0.125"/><stop stop-opacity="1" stop-color="rgb(57.044983%, 85.488892%, 34.899902%)" offset="0.140625"/><stop stop-opacity="1" stop-color="rgb(57.339478%, 85.488892%, 34.899902%)" offset="0.148437"/><stop stop-opacity="1" stop-color="rgb(57.548523%, 85.488892%, 34.899902%)" offset="0.15625"/><stop stop-opacity="1" stop-color="rgb(57.841492%, 85.681152%, 34.899902%)" offset="0.171875"/><stop stop-opacity="1" stop-color="rgb(58.218384%, 85.876465%, 35.081482%)" offset="0.1875"/><stop stop-opacity="1" stop-color="rgb(58.424377%, 85.879517%, 35.276794%)" offset="0.195312"/><stop stop-opacity="1" stop-color="rgb(58.631897%, 85.879517%, 35.289001%)" offset="0.203125"/><stop stop-opacity="1" stop-color="rgb(59.013367%, 85.879517%, 35.289001%)" offset="0.21875"/><stop stop-opacity="1" stop-color="rgb(59.213257%, 85.879517%, 35.289001%)" offset="0.226563"/><stop stop-opacity="1" stop-color="rgb(59.414673%, 85.879517%, 35.289001%)" offset="0.234375"/><stop stop-opacity="1" stop-color="rgb(59.609985%, 85.879517%, 35.289001%)" offset="0.25"/><stop stop-opacity="1" stop-color="rgb(59.799194%, 85.879517%, 35.484314%)" offset="0.257812"/><stop stop-opacity="1" stop-color="rgb(60.180664%, 85.879517%, 35.684204%)" offset="0.265625"/><stop stop-opacity="1" stop-color="rgb(60.391235%, 85.879517%, 35.688782%)" offset="0.273438"/><stop stop-opacity="1" stop-color="rgb(60.594177%, 85.88562%, 35.688782%)" offset="0.28125"/><stop stop-opacity="1" stop-color="rgb(60.780334%, 86.079407%, 35.688782%)" offset="0.289062"/><stop stop-opacity="1" stop-color="rgb(60.977173%, 86.268616%, 35.688782%)" offset="0.296875"/><stop stop-opacity="1" stop-color="rgb(61.358643%, 86.268616%, 35.688782%)" offset="0.3125"/><stop stop-opacity="1" stop-color="rgb(61.564636%, 86.268616%, 35.696411%)" offset="0.320312"/><stop stop-opacity="1" stop-color="rgb(61.772156%, 86.268616%, 35.891724%)" offset="0.328125"/><stop stop-opacity="1" stop-color="rgb(61.959839%, 86.268616%, 36.079407%)" offset="0.34375"/><stop stop-opacity="1" stop-color="rgb(62.142944%, 86.268616%, 36.079407%)" offset="0.351562"/><stop stop-opacity="1" stop-color="rgb(62.538147%, 86.268616%, 36.079407%)" offset="0.355469"/><stop stop-opacity="1" stop-color="rgb(62.748718%, 86.268616%, 36.079407%)" offset="0.359375"/><stop stop-opacity="1" stop-color="rgb(62.944031%, 86.268616%, 36.079407%)" offset="0.375"/><stop stop-opacity="1" stop-color="rgb(63.3255%, 86.268616%, 36.079407%)" offset="0.390625"/><stop stop-opacity="1" stop-color="rgb(63.531494%, 86.468506%, 36.273193%)" offset="0.394531"/><stop stop-opacity="1" stop-color="rgb(63.551331%, 86.669922%, 36.468506%)" offset="0.398438"/><stop stop-opacity="1" stop-color="rgb(63.734436%, 86.669922%, 36.468506%)" offset="0.40625"/><stop stop-opacity="1" stop-color="rgb(64.11438%, 86.669922%, 36.468506%)" offset="0.4375"/><stop stop-opacity="1" stop-color="rgb(64.517212%, 86.669922%, 36.468506%)" offset="0.441406"/><stop stop-opacity="1" stop-color="rgb(64.724731%, 86.669922%, 36.468506%)" offset="0.445313"/><stop stop-opacity="1" stop-color="rgb(64.910889%, 86.669922%, 36.468506%)" offset="0.453125"/><stop stop-opacity="1" stop-color="rgb(65.287781%, 86.669922%, 36.657715%)" offset="0.46875"/><stop stop-opacity="1" stop-color="rgb(65.483093%, 86.669922%, 36.853027%)" offset="0.476562"/><stop stop-opacity="1" stop-color="rgb(65.684509%, 86.669922%, 36.859131%)" offset="0.484375"/><stop stop-opacity="1" stop-color="rgb(66.073608%, 86.669922%, 36.859131%)" offset="0.5"/><stop stop-opacity="1" stop-color="rgb(66.459656%, 86.863708%, 36.859131%)" offset="0.515625"/><stop stop-opacity="1" stop-color="rgb(66.665649%, 87.059021%, 36.859131%)" offset="0.53125"/><stop stop-opacity="1" stop-color="rgb(66.871643%, 87.059021%, 36.860657%)" offset="0.539062"/><stop stop-opacity="1" stop-color="rgb(67.253113%, 87.059021%, 37.052917%)" offset="0.546875"/><stop stop-opacity="1" stop-color="rgb(67.628479%, 87.059021%, 37.246704%)" offset="0.5625"/><stop stop-opacity="1" stop-color="rgb(67.834473%, 87.059021%, 37.249756%)" offset="0.570312"/><stop stop-opacity="1" stop-color="rgb(68.04657%, 87.059021%, 37.249756%)" offset="0.578125"/><stop stop-opacity="1" stop-color="rgb(68.42804%, 87.059021%, 37.249756%)" offset="0.59375"/><stop stop-opacity="1" stop-color="rgb(68.623352%, 87.059021%, 37.249756%)" offset="0.601563"/><stop stop-opacity="1" stop-color="rgb(68.823242%, 87.063599%, 37.254333%)" offset="0.609375"/><stop stop-opacity="1" stop-color="rgb(69.018555%, 87.258911%, 37.454224%)" offset="0.625"/><stop stop-opacity="1" stop-color="rgb(69.20929%, 87.449646%, 37.649536%)" offset="0.632813"/><stop stop-opacity="1" stop-color="rgb(69.590759%, 87.449646%, 37.649536%)" offset="0.640625"/><stop stop-opacity="1" stop-color="rgb(69.801331%, 87.449646%, 37.649536%)" offset="0.648438"/><stop stop-opacity="1" stop-color="rgb(70.010376%, 87.449646%, 37.649536%)" offset="0.65625"/><stop stop-opacity="1" stop-color="rgb(70.39032%, 87.449646%, 37.649536%)" offset="0.671875"/><stop stop-opacity="1" stop-color="rgb(70.768738%, 87.449646%, 37.831116%)" offset="0.6875"/><stop stop-opacity="1" stop-color="rgb(70.974731%, 87.449646%, 38.026428%)" offset="0.695312"/><stop stop-opacity="1" stop-color="rgb(71.182251%, 87.449646%, 38.038635%)" offset="0.703125"/><stop stop-opacity="1" stop-color="rgb(71.369934%, 87.449646%, 38.038635%)" offset="0.71875"/><stop stop-opacity="1" stop-color="rgb(71.55304%, 87.632751%, 38.038635%)" offset="0.726562"/><stop stop-opacity="1" stop-color="rgb(71.948242%, 87.828064%, 38.038635%)" offset="0.730469"/><stop stop-opacity="1" stop-color="rgb(72.158813%, 87.838745%, 38.038635%)" offset="0.734375"/><stop stop-opacity="1" stop-color="rgb(72.354126%, 87.838745%, 38.038635%)" offset="0.75"/><stop stop-opacity="1" stop-color="rgb(72.73407%, 87.838745%, 38.233948%)" offset="0.765625"/><stop stop-opacity="1" stop-color="rgb(72.940063%, 87.838745%, 38.42926%)" offset="0.773438"/><stop stop-opacity="1" stop-color="rgb(73.144531%, 87.838745%, 38.42926%)" offset="0.78125"/><stop stop-opacity="1" stop-color="rgb(73.330688%, 87.838745%, 38.42926%)" offset="0.789062"/><stop stop-opacity="1" stop-color="rgb(73.527527%, 87.838745%, 38.42926%)" offset="0.796875"/><stop stop-opacity="1" stop-color="rgb(73.725891%, 87.838745%, 38.42926%)" offset="0.8125"/><stop stop-opacity="1" stop-color="rgb(73.931885%, 87.838745%, 38.43689%)" offset="0.816406"/><stop stop-opacity="1" stop-color="rgb(74.134827%, 87.838745%, 38.444519%)" offset="0.820312"/><stop stop-opacity="1" stop-color="rgb(74.320984%, 87.838745%, 38.632202%)" offset="0.828125"/><stop stop-opacity="1" stop-color="rgb(74.697876%, 88.032532%, 38.819885%)" offset="0.84375"/><stop stop-opacity="1" stop-color="rgb(74.893188%, 88.232422%, 38.819885%)" offset="0.851562"/><stop stop-opacity="1" stop-color="rgb(75.094604%, 88.238525%, 38.819885%)" offset="0.859375"/><stop stop-opacity="1" stop-color="rgb(75.294495%, 88.238525%, 38.819885%)" offset="0.867187"/><stop stop-opacity="1" stop-color="rgb(75.494385%, 88.238525%, 38.819885%)" offset="0.875"/><stop stop-opacity="1" stop-color="rgb(75.874329%, 88.238525%, 38.819885%)" offset="0.890625"/><stop stop-opacity="1" stop-color="rgb(76.069641%, 88.238525%, 38.917542%)" offset="0.898437"/><stop stop-opacity="1" stop-color="rgb(76.0849%, 88.238525%, 39.117432%)" offset="0.90625"/><stop stop-opacity="1" stop-color="rgb(76.281738%, 88.238525%, 39.219666%)" offset="0.914062"/><stop stop-opacity="1" stop-color="rgb(76.661682%, 88.238525%, 39.219666%)" offset="0.921875"/><stop stop-opacity="1" stop-color="rgb(77.038574%, 88.238525%, 39.219666%)" offset="0.9375"/><stop stop-opacity="1" stop-color="rgb(77.244568%, 88.246155%, 39.219666%)" offset="0.945313"/><stop stop-opacity="1" stop-color="rgb(77.456665%, 88.441467%, 39.219666%)" offset="0.953125"/><stop stop-opacity="1" stop-color="rgb(77.838135%, 88.62915%, 39.407349%)" offset="0.96875"/><stop stop-opacity="1" stop-color="rgb(78.033447%, 88.62915%, 39.602661%)" offset="0.976562"/><stop stop-opacity="1" stop-color="rgb(78.233337%, 88.62915%, 39.608765%)" offset="0.984375"/><stop stop-opacity="1" stop-color="rgb(78.42865%, 88.62915%, 39.608765%)" offset="1"/></linearGradient><clipPath id="fe8f0c929a"><path d="M 162.660156 159.019531 L 209.460938 159.019531 L 209.460938 193.335938 L 162.660156 193.335938 Z M 162.660156 159.019531 " clip-rule="nonzero"/></clipPath><clipPath id="72f14d619b"><path d="M 159.816406 166.1875 L 206.613281 152.523438 L 215.03125 181.347656 L 168.234375 195.011719 Z M 159.816406 166.1875 " clip-rule="nonzero"/></clipPath><clipPath id="7866826dba"><path d="M 159.816406 166.1875 L 206.613281 152.523438 L 215.03125 181.347656 L 168.234375 195.011719 Z M 159.816406 166.1875 " clip-rule="nonzero"/></clipPath><clipPath id="c7ace7a752"><path d="M 159.816406 166.1875 L 206.613281 152.523438 L 215.03125 181.347656 L 168.234375 195.011719 Z M 159.816406 166.1875 " clip-rule="nonzero"/></clipPath><clipPath id="cb15a976f1"><path d="M 173.0625 168.378906 L 204.261719 168.378906 L 204.261719 185 L 173.0625 185 Z M 173.0625 168.378906 " clip-rule="nonzero"/></clipPath><clipPath id="dd572a9934"><path d="M 159.816406 166.1875 L 206.613281 152.523438 L 215.03125 181.347656 L 168.234375 195.011719 Z M 159.816406 166.1875 " clip-rule="nonzero"/></clipPath><clipPath id="054721897a"><path d="M 159.816406 166.1875 L 206.613281 152.523438 L 215.03125 181.347656 L 168.234375 195.011719 Z M 159.816406 166.1875 " clip-rule="nonzero"/></clipPath><clipPath id="9b131395de"><path d="M 159.816406 166.1875 L 206.613281 152.523438 L 215.03125 181.347656 L 168.234375 195.011719 Z M 159.816406 166.1875 " clip-rule="nonzero"/></clipPath></defs><g clip-path="url(#65882b82e4)"><g clip-path="url(#002bfcc5a1)"><g clip-path="url(#f8acf0f937)"><path fill="url(#09b11c908e)" d="M 143.160156 146.664062 L 143.160156 228.335938 L 231.53125 228.335938 L 231.53125 146.664062 Z M 143.160156 146.664062 " fill-rule="nonzero"/></g></g></g><g clip-path="url(#fe8f0c929a)"><g clip-path="url(#72f14d619b)"><g clip-path="url(#7866826dba)"><g clip-path="url(#c7ace7a752)"><path fill="#000000" d="M 196.222656 160.109375 L 183.675781 159.269531 L 183.53125 159.257812 L 183.414062 159.347656 L 173.292969 166.808594 L 162.933594 174.441406 L 165.628906 174.625 L 168.738281 174.832031 C 168.46875 176.171875 168.542969 178.527344 170.429688 182.148438 C 169.914062 182.554688 169.664062 183.242188 169.859375 183.910156 C 170 184.386719 170.335938 184.75 170.753906 184.941406 C 171.621094 189.195312 168.96875 190.597656 168.066406 190.945312 C 167.785156 191.054688 167.578125 191.324219 167.589844 191.625 C 167.644531 192.914062 171.277344 193.171875 173.402344 193.210938 C 174.335938 193.230469 175.15625 192.558594 175.304688 191.636719 C 175.894531 188.035156 173.972656 185.320312 172.9375 184.15625 C 173.109375 183.800781 173.15625 183.386719 173.039062 182.980469 C 172.832031 182.28125 172.199219 181.820312 171.507812 181.796875 C 170.871094 180.328125 169.621094 177.023438 170.207031 174.929688 L 175.773438 175.304688 L 178.148438 175.460938 L 188.320312 176.144531 L 188.464844 176.15625 L 188.582031 176.066406 L 196.789062 170.019531 L 198.707031 168.605469 L 206.890625 162.574219 L 209.0625 160.972656 Z M 196.222656 160.109375 " fill-opacity="1" fill-rule="nonzero"/></g></g></g></g><g clip-path="url(#cb15a976f1)"><g clip-path="url(#dd572a9934)"><g clip-path="url(#054721897a)"><g clip-path="url(#9b131395de)"><path fill="#000000" d="M 199.226562 170.390625 L 189.105469 177.851562 L 188.988281 177.9375 L 188.839844 177.929688 L 176.292969 177.085938 L 173.335938 176.890625 L 175.613281 184.695312 C 176.820312 183.855469 178.179688 183.199219 179.660156 182.765625 C 183.59375 181.617188 187.640625 182.277344 190.953125 184.269531 C 192.671875 180.808594 195.726562 178.074219 199.660156 176.925781 C 201.183594 176.480469 202.71875 176.308594 204.226562 176.375 L 201.933594 168.519531 L 201.65625 168.597656 Z M 199.226562 170.390625 " fill-opacity="1" fill-rule="nonzero"/></g></g></g></g><path fill="#000000" d="M 177.59375 207.667969 L 175.96875 207.667969 L 177.457031 198.308594 L 180.691406 198.308594 C 181.164062 198.308594 181.578125 198.375 181.941406 198.511719 C 182.304688 198.644531 182.601562 198.839844 182.828125 199.085938 C 183.058594 199.332031 183.21875 199.628906 183.308594 199.980469 C 183.398438 200.328125 183.414062 200.71875 183.347656 201.152344 C 183.207031 202.039062 182.820312 202.734375 182.1875 203.238281 C 181.550781 203.738281 180.75 203.984375 179.78125 203.984375 L 178.179688 203.984375 Z M 180 202.613281 C 180.457031 202.613281 180.832031 202.480469 181.136719 202.214844 C 181.445312 201.949219 181.636719 201.59375 181.707031 201.152344 C 181.777344 200.710938 181.699219 200.359375 181.480469 200.09375 C 181.257812 199.824219 180.921875 199.6875 180.472656 199.6875 L 178.871094 199.6875 L 178.40625 202.613281 Z M 180 202.613281 " fill-opacity="1" fill-rule="nonzero"/><path fill="#000000" d="M 183.761719 207.667969 L 185.265625 198.175781 L 186.882812 198.175781 L 186.5 200.515625 C 186.453125 200.789062 186.402344 201.058594 186.335938 201.320312 C 186.296875 201.46875 186.257812 201.613281 186.214844 201.75 L 186.34375 201.75 C 186.492188 201.320312 186.746094 200.984375 187.117188 200.746094 C 187.484375 200.507812 187.929688 200.386719 188.449219 200.386719 C 188.792969 200.386719 189.101562 200.449219 189.375 200.574219 C 189.644531 200.699219 189.863281 200.878906 190.035156 201.117188 C 190.199219 201.351562 190.316406 201.628906 190.382812 201.945312 C 190.449219 202.269531 190.449219 202.621094 190.390625 203.011719 L 189.652344 207.667969 L 188.027344 207.667969 L 188.726562 203.183594 C 188.792969 202.738281 188.734375 202.398438 188.539062 202.15625 C 188.347656 201.914062 188.050781 201.792969 187.644531 201.792969 C 187.226562 201.792969 186.882812 201.921875 186.605469 202.175781 C 186.328125 202.429688 186.152344 202.78125 186.085938 203.222656 L 186.078125 203.222656 L 185.371094 207.667969 Z M 183.761719 207.667969 " fill-opacity="1" fill-rule="nonzero"/><path fill="#000000" d="M 194.6875 206.171875 C 195.148438 206.171875 195.539062 206.039062 195.859375 205.765625 C 196.183594 205.488281 196.378906 205.132812 196.441406 204.691406 L 196.996094 201.273438 C 197.0625 200.828125 196.976562 200.472656 196.742188 200.207031 C 196.511719 199.9375 196.160156 199.800781 195.695312 199.800781 L 194.429688 199.800781 L 193.429688 206.171875 Z M 191.566406 207.667969 L 193.054688 198.308594 L 195.941406 198.308594 C 196.40625 198.308594 196.820312 198.378906 197.183594 198.519531 C 197.550781 198.652344 197.851562 198.851562 198.085938 199.109375 C 198.316406 199.371094 198.480469 199.6875 198.570312 200.054688 C 198.664062 200.417969 198.671875 200.824219 198.605469 201.273438 L 198.066406 204.691406 C 198.003906 205.144531 197.863281 205.550781 197.652344 205.910156 C 197.445312 206.273438 197.183594 206.585938 196.859375 206.847656 C 196.535156 207.105469 196.175781 207.308594 195.769531 207.457031 C 195.363281 207.597656 194.917969 207.667969 194.445312 207.667969 Z M 191.566406 207.667969 " fill-opacity="1" fill-rule="nonzero"/><path fill="#000000" d="M 163.492188 219.042969 C 163.949219 219.042969 164.339844 218.90625 164.660156 218.636719 C 164.984375 218.359375 165.179688 218 165.246094 217.5625 L 165.796875 214.140625 C 165.863281 213.699219 165.777344 213.34375 165.546875 213.078125 C 165.3125 212.808594 164.964844 212.671875 164.5 212.671875 L 163.230469 212.671875 L 162.230469 219.042969 Z M 160.371094 220.535156 L 161.859375 211.175781 L 164.742188 211.175781 C 165.207031 211.175781 165.621094 211.246094 165.984375 211.386719 C 166.351562 211.523438 166.652344 211.722656 166.886719 211.980469 C 167.117188 212.242188 167.28125 212.554688 167.375 212.921875 C 167.464844 213.289062 167.476562 213.695312 167.40625 214.140625 L 166.871094 217.5625 C 166.804688 218.015625 166.667969 218.421875 166.457031 218.78125 C 166.25 219.144531 165.984375 219.457031 165.660156 219.714844 C 165.339844 219.976562 164.976562 220.179688 164.570312 220.324219 C 164.164062 220.46875 163.722656 220.535156 163.246094 220.535156 Z M 160.371094 220.535156 " fill-opacity="1" fill-rule="nonzero"/><path fill="#000000" d="M 168.445312 220.535156 L 169.574219 213.386719 L 171.09375 213.386719 L 170.898438 214.621094 L 171.019531 214.621094 C 171.175781 214.1875 171.445312 213.855469 171.824219 213.613281 C 172.203125 213.375 172.667969 213.257812 173.214844 213.257812 C 173.980469 213.257812 174.535156 213.5 174.890625 213.980469 C 175.246094 214.464844 175.359375 215.117188 175.230469 215.945312 L 175.15625 216.492188 L 173.46875 216.492188 L 173.515625 216.09375 C 173.589844 215.632812 173.527344 215.273438 173.320312 215.011719 C 173.113281 214.75 172.789062 214.621094 172.34375 214.621094 C 171.925781 214.621094 171.574219 214.753906 171.289062 215.019531 C 171.007812 215.285156 170.832031 215.644531 170.761719 216.09375 L 170.054688 220.535156 Z M 168.445312 220.535156 " fill-opacity="1" fill-rule="nonzero"/><path fill="#000000" d="M 177.851562 217.832031 C 177.789062 218.265625 177.871094 218.609375 178.097656 218.863281 C 178.324219 219.113281 178.664062 219.238281 179.121094 219.238281 C 179.574219 219.238281 179.953125 219.113281 180.257812 218.871094 C 180.5625 218.625 180.746094 218.277344 180.820312 217.832031 L 181.09375 216.074219 C 181.164062 215.644531 181.082031 215.300781 180.851562 215.050781 C 180.625 214.796875 180.285156 214.671875 179.835938 214.671875 C 179.378906 214.671875 179 214.796875 178.699219 215.050781 C 178.394531 215.300781 178.210938 215.644531 178.144531 216.074219 Z M 176.527344 216.074219 C 176.667969 215.203125 177.050781 214.515625 177.675781 214.011719 C 178.296875 213.507812 179.09375 213.257812 180.0625 213.257812 C 180.535156 213.257812 180.945312 213.324219 181.296875 213.460938 C 181.65625 213.597656 181.949219 213.789062 182.183594 214.035156 C 182.414062 214.28125 182.578125 214.578125 182.671875 214.921875 C 182.761719 215.269531 182.773438 215.652344 182.703125 216.074219 L 182.4375 217.832031 C 182.285156 218.714844 181.894531 219.40625 181.273438 219.910156 C 180.648438 220.414062 179.855469 220.667969 178.886719 220.667969 C 178.414062 220.667969 178 220.597656 177.640625 220.464844 C 177.285156 220.328125 176.992188 220.136719 176.765625 219.894531 C 176.535156 219.648438 176.375 219.347656 176.285156 219 C 176.199219 218.648438 176.183594 218.257812 176.246094 217.832031 Z M 176.527344 216.074219 " fill-opacity="1" fill-rule="nonzero"/><path fill="#000000" d="M 183.457031 222.683594 L 184.929688 213.386719 L 186.464844 213.386719 L 186.269531 214.621094 L 186.398438 214.621094 C 186.546875 214.1875 186.800781 213.855469 187.171875 213.613281 C 187.539062 213.375 187.984375 213.257812 188.503906 213.257812 C 188.878906 213.257812 189.203125 213.324219 189.480469 213.460938 C 189.753906 213.597656 189.984375 213.785156 190.160156 214.027344 C 190.339844 214.269531 190.457031 214.5625 190.519531 214.90625 C 190.578125 215.253906 190.570312 215.636719 190.503906 216.050781 L 190.234375 217.832031 C 190.164062 218.257812 190.042969 218.648438 189.867188 218.992188 C 189.695312 219.339844 189.480469 219.640625 189.21875 219.886719 C 188.964844 220.128906 188.675781 220.324219 188.359375 220.464844 C 188.035156 220.597656 187.695312 220.667969 187.332031 220.667969 C 186.832031 220.667969 186.429688 220.542969 186.132812 220.300781 C 185.832031 220.054688 185.671875 219.714844 185.652344 219.285156 L 185.539062 219.285156 C 185.539062 219.3125 185.53125 219.371094 185.523438 219.457031 C 185.515625 219.539062 185.503906 219.640625 185.488281 219.757812 C 185.476562 219.871094 185.464844 220 185.449219 220.136719 C 185.433594 220.273438 185.414062 220.40625 185.390625 220.535156 L 185.058594 222.683594 Z M 185.816406 217.960938 C 185.777344 218.351562 185.859375 218.664062 186.066406 218.902344 C 186.277344 219.136719 186.589844 219.253906 187.007812 219.253906 C 187.441406 219.253906 187.800781 219.121094 188.089844 218.863281 C 188.382812 218.601562 188.5625 218.246094 188.632812 217.789062 L 188.902344 216.09375 C 188.972656 215.648438 188.902344 215.300781 188.691406 215.042969 C 188.480469 214.789062 188.15625 214.664062 187.722656 214.664062 C 187.296875 214.664062 186.9375 214.792969 186.644531 215.050781 C 186.355469 215.3125 186.175781 215.660156 186.105469 216.09375 L 186.097656 216.09375 Z M 185.816406 217.960938 " fill-opacity="1" fill-rule="nonzero"/><path fill="#000000" d="M 193.449219 217.832031 C 193.386719 218.265625 193.46875 218.609375 193.695312 218.863281 C 193.921875 219.113281 194.261719 219.238281 194.71875 219.238281 C 195.171875 219.238281 195.550781 219.113281 195.855469 218.871094 C 196.160156 218.625 196.34375 218.277344 196.417969 217.832031 L 196.691406 216.074219 C 196.761719 215.644531 196.679688 215.300781 196.449219 215.050781 C 196.222656 214.796875 195.882812 214.671875 195.433594 214.671875 C 194.976562 214.671875 194.597656 214.796875 194.296875 215.050781 C 193.992188 215.300781 193.808594 215.644531 193.742188 216.074219 Z M 192.125 216.074219 C 192.265625 215.203125 192.648438 214.515625 193.273438 214.011719 C 193.894531 213.507812 194.691406 213.257812 195.660156 213.257812 C 196.132812 213.257812 196.542969 213.324219 196.894531 213.460938 C 197.253906 213.597656 197.546875 213.789062 197.78125 214.035156 C 198.011719 214.28125 198.175781 214.578125 198.269531 214.921875 C 198.359375 215.269531 198.371094 215.652344 198.300781 216.074219 L 198.035156 217.832031 C 197.882812 218.714844 197.492188 219.40625 196.871094 219.910156 C 196.246094 220.414062 195.453125 220.667969 194.484375 220.667969 C 194.011719 220.667969 193.597656 220.597656 193.238281 220.464844 C 192.882812 220.328125 192.589844 220.136719 192.363281 219.894531 C 192.132812 219.648438 191.972656 219.347656 191.882812 219 C 191.796875 218.648438 191.78125 218.257812 191.84375 217.832031 Z M 192.125 216.074219 " fill-opacity="1" fill-rule="nonzero"/><path fill="#000000" d="M 199.820312 217.855469 L 200.527344 213.386719 L 202.152344 213.386719 L 201.4375 217.855469 C 201.289062 218.789062 201.644531 219.253906 202.5 219.253906 C 203.367188 219.253906 203.875 218.789062 204.019531 217.855469 L 204.734375 213.386719 L 206.351562 213.386719 L 205.636719 217.855469 C 205.496094 218.75 205.136719 219.445312 204.554688 219.933594 C 203.976562 220.421875 203.21875 220.667969 202.28125 220.667969 C 201.371094 220.667969 200.699219 220.417969 200.265625 219.917969 C 199.832031 219.421875 199.683594 218.734375 199.820312 217.855469 Z M 199.820312 217.855469 " fill-opacity="1" fill-rule="nonzero"/><path fill="#000000" d="M 207.933594 213.386719 L 209.894531 213.386719 L 210.25 211.175781 L 211.875 211.175781 L 211.519531 213.386719 L 214.238281 213.386719 L 214.003906 214.855469 L 211.289062 214.855469 L 210.738281 218.328125 C 210.695312 218.554688 210.730469 218.738281 210.851562 218.871094 C 210.96875 219 211.148438 219.066406 211.386719 219.066406 L 213.207031 219.066406 L 212.980469 220.535156 L 211.039062 220.535156 C 210.339844 220.535156 209.816406 220.339844 209.472656 219.945312 C 209.125 219.542969 209.003906 219.003906 209.113281 218.328125 L 209.664062 214.855469 L 207.699219 214.855469 Z M 207.933594 213.386719 " fill-opacity="1" fill-rule="nonzero"/></svg>