<svg xmlns="http://www.w3.org/2000/svg" xmlns:xlink="http://www.w3.org/1999/xlink" width="500" zoomAndPan="magnify" viewBox="0 0 375 374.999991" height="500" preserveAspectRatio="xMidYMid meet" version="1.0"><defs><clipPath id="45b2b11527"><path d="M 102.5 109.246094 L 273 109.246094 L 273 266.304688 L 102.5 266.304688 Z M 102.5 109.246094 " clip-rule="nonzero"/></clipPath><clipPath id="0b9a19ea01"><path d="M 113.75 109.246094 L 261.25 109.246094 C 264.234375 109.246094 267.097656 110.429688 269.207031 112.539062 C 271.316406 114.648438 272.5 117.511719 272.5 120.496094 L 272.5 255.054688 C 272.5 258.039062 271.316406 260.902344 269.207031 263.011719 C 267.097656 265.121094 264.234375 266.304688 261.25 266.304688 L 113.75 266.304688 C 107.535156 266.304688 102.5 261.269531 102.5 255.054688 L 102.5 120.496094 C 102.5 114.28125 107.535156 109.246094 113.75 109.246094 Z M 113.75 109.246094 " clip-rule="nonzero"/></clipPath><clipPath id="c41537c54c"><path d="M 0.5 0.246094 L 170.640625 0.246094 L 170.640625 157.304688 L 0.5 157.304688 Z M 0.5 0.246094 " clip-rule="nonzero"/></clipPath><clipPath id="1e47923106"><path d="M 11.75 0.246094 L 159.25 0.246094 C 162.234375 0.246094 165.097656 1.429688 167.207031 3.539062 C 169.316406 5.648438 170.5 8.511719 170.5 11.496094 L 170.5 146.054688 C 170.5 149.039062 169.316406 151.902344 167.207031 154.011719 C 165.097656 156.121094 162.234375 157.304688 159.25 157.304688 L 11.75 157.304688 C 5.535156 157.304688 0.5 152.269531 0.5 146.054688 L 0.5 11.496094 C 0.5 5.28125 5.535156 0.246094 11.75 0.246094 Z M 11.75 0.246094 " clip-rule="nonzero"/></clipPath><clipPath id="9f3b655036"><rect x="0" width="171" y="0" height="158"/></clipPath><clipPath id="825e022ee0"><path d="M 107 140 L 259 140 L 259 252 L 107 252 Z M 107 140 " clip-rule="nonzero"/></clipPath><clipPath id="2233e80e13"><path d="M 97.539062 162.878906 L 250.164062 118.308594 L 277.703125 212.621094 L 125.078125 257.191406 Z M 97.539062 162.878906 " clip-rule="nonzero"/></clipPath><clipPath id="1dbee40e93"><path d="M 97.539062 162.878906 L 250.164062 118.308594 L 277.703125 212.621094 L 125.078125 257.191406 Z M 97.539062 162.878906 " clip-rule="nonzero"/></clipPath><clipPath id="e10109ad47"><path d="M 97.539062 162.878906 L 250.164062 118.308594 L 277.703125 212.621094 L 125.078125 257.191406 Z M 97.539062 162.878906 " clip-rule="nonzero"/></clipPath><clipPath id="e6cc791b21"><path d="M 141 170 L 243 170 L 243 224 L 141 224 Z M 141 170 " clip-rule="nonzero"/></clipPath><clipPath id="44df02290b"><path d="M 97.539062 162.878906 L 250.164062 118.308594 L 277.703125 212.621094 L 125.078125 257.191406 Z M 97.539062 162.878906 " clip-rule="nonzero"/></clipPath><clipPath id="4b0d4f674f"><path d="M 97.539062 162.878906 L 250.164062 118.308594 L 277.703125 212.621094 L 125.078125 257.191406 Z M 97.539062 162.878906 " clip-rule="nonzero"/></clipPath><clipPath id="ca400940ed"><path d="M 97.539062 162.878906 L 250.164062 118.308594 L 277.703125 212.621094 L 125.078125 257.191406 Z M 97.539062 162.878906 " clip-rule="nonzero"/></clipPath></defs><g clip-path="url(#45b2b11527)"><g clip-path="url(#0b9a19ea01)"><g transform="matrix(1, 0, 0, 1, 102, 109)"><g clip-path="url(#9f3b655036)"><g clip-path="url(#c41537c54c)"><g clip-path="url(#1e47923106)"><path fill="#c1ff72" d="M 0.5 0.246094 L 170.441406 0.246094 L 170.441406 157.304688 L 0.5 157.304688 Z M 0.5 0.246094 " fill-opacity="1" fill-rule="nonzero"/></g></g></g></g></g></g><g clip-path="url(#825e022ee0)"><g clip-path="url(#2233e80e13)"><g clip-path="url(#1dbee40e93)"><g clip-path="url(#e10109ad47)"><path fill="#000000" d="M 216.296875 143.105469 L 175.359375 140.320312 L 174.882812 140.289062 L 174.496094 140.574219 L 141.492188 164.949219 L 107.71875 189.898438 L 116.511719 190.496094 L 126.660156 191.1875 C 125.785156 195.570312 126.03125 203.273438 132.199219 215.125 C 130.511719 216.445312 129.707031 218.699219 130.339844 220.878906 C 130.796875 222.4375 131.894531 223.625 133.261719 224.257812 C 136.09375 238.179688 127.449219 242.753906 124.515625 243.886719 C 123.589844 244.242188 122.921875 245.121094 122.964844 246.109375 C 123.140625 250.328125 134.992188 251.179688 141.917969 251.316406 C 144.980469 251.375 147.648438 249.1875 148.136719 246.167969 C 150.046875 234.390625 143.761719 225.503906 140.386719 221.691406 C 140.941406 220.535156 141.09375 219.179688 140.707031 217.851562 C 140.039062 215.558594 137.976562 214.054688 135.710938 213.976562 C 133.632812 209.164062 129.546875 198.355469 131.445312 191.511719 L 149.609375 192.746094 L 157.359375 193.273438 L 190.546875 195.53125 L 191.023438 195.566406 L 191.410156 195.28125 L 218.164062 175.519531 L 224.414062 170.902344 L 251.097656 151.195312 L 258.1875 145.960938 Z M 216.296875 143.105469 " fill-opacity="1" fill-rule="nonzero"/></g></g></g></g><g clip-path="url(#e6cc791b21)"><g clip-path="url(#44df02290b)"><g clip-path="url(#4b0d4f674f)"><g clip-path="url(#ca400940ed)"><path fill="#000000" d="M 226.117188 176.738281 L 193.113281 201.117188 L 192.726562 201.402344 L 192.25 201.371094 L 151.3125 198.582031 L 141.65625 197.925781 L 149.113281 223.460938 C 153.054688 220.722656 157.484375 218.574219 162.320312 217.160156 C 175.144531 213.414062 188.34375 215.589844 199.160156 222.113281 C 204.765625 210.792969 214.71875 201.859375 227.546875 198.113281 C 232.511719 196.664062 237.53125 196.101562 242.449219 196.332031 L 234.9375 170.621094 L 234.046875 170.882812 Z M 226.117188 176.738281 " fill-opacity="1" fill-rule="nonzero"/></g></g></g></g></svg>