<svg xmlns="http://www.w3.org/2000/svg" xmlns:xlink="http://www.w3.org/1999/xlink" width="500" zoomAndPan="magnify" viewBox="0 0 375 374.999991" height="500" preserveAspectRatio="xMidYMid meet" version="1.0"><defs><g/><clipPath id="1446706500"><path d="M 102.5 109.246094 L 273 109.246094 L 273 266.304688 L 102.5 266.304688 Z M 102.5 109.246094 " clip-rule="nonzero"/></clipPath><clipPath id="8e81c53ba6"><path d="M 117.5 109.246094 L 257.5 109.246094 C 261.480469 109.246094 265.292969 110.824219 268.109375 113.640625 C 270.921875 116.453125 272.5 120.265625 272.5 124.246094 L 272.5 251.304688 C 272.5 255.285156 270.921875 259.097656 268.109375 261.910156 C 265.292969 264.726562 261.480469 266.304688 257.5 266.304688 L 117.5 266.304688 C 113.519531 266.304688 109.707031 264.726562 106.890625 261.910156 C 104.078125 259.097656 102.5 255.285156 102.5 251.304688 L 102.5 124.246094 C 102.5 120.265625 104.078125 116.453125 106.890625 113.640625 C 109.707031 110.824219 113.519531 109.246094 117.5 109.246094 Z M 117.5 109.246094 " clip-rule="nonzero"/></clipPath><clipPath id="aa1121930b"><path d="M 0.5 0.246094 L 170.441406 0.246094 L 170.441406 157.304688 L 0.5 157.304688 Z M 0.5 0.246094 " clip-rule="nonzero"/></clipPath><clipPath id="2cce9bd16a"><path d="M 15.5 0.246094 L 155.5 0.246094 C 159.480469 0.246094 163.292969 1.824219 166.109375 4.640625 C 168.921875 7.453125 170.5 11.265625 170.5 15.246094 L 170.5 142.304688 C 170.5 146.285156 168.921875 150.097656 166.109375 152.910156 C 163.292969 155.726562 159.480469 157.304688 155.5 157.304688 L 15.5 157.304688 C 11.519531 157.304688 7.707031 155.726562 4.890625 152.910156 C 2.078125 150.097656 0.5 146.285156 0.5 142.304688 L 0.5 15.246094 C 0.5 11.265625 2.078125 7.453125 4.890625 4.640625 C 7.707031 1.824219 11.519531 0.246094 15.5 0.246094 Z M 15.5 0.246094 " clip-rule="nonzero"/></clipPath><linearGradient x1="0.00113419" gradientTransform="matrix(0.613516, 0, 0, 0.613516, 0.497979, 0.245359)" y1="128" x2="277.001139" gradientUnits="userSpaceOnUse" y2="128" id="ce3e82b957"><stop stop-opacity="1" stop-color="rgb(53.729248%, 85.099792%, 34.118652%)" offset="0"/><stop stop-opacity="1" stop-color="rgb(53.826904%, 85.113525%, 34.140015%)" offset="0.0078125"/><stop stop-opacity="1" stop-color="rgb(54.022217%, 85.140991%, 34.182739%)" offset="0.015625"/><stop stop-opacity="1" stop-color="rgb(54.219055%, 85.168457%, 34.22699%)" offset="0.0234375"/><stop stop-opacity="1" stop-color="rgb(54.414368%, 85.195923%, 34.269714%)" offset="0.03125"/><stop stop-opacity="1" stop-color="rgb(54.611206%, 85.223389%, 34.312439%)" offset="0.0390625"/><stop stop-opacity="1" stop-color="rgb(54.806519%, 85.250854%, 34.355164%)" offset="0.046875"/><stop stop-opacity="1" stop-color="rgb(55.101013%, 85.292053%, 34.41925%)" offset="0.0625"/><stop stop-opacity="1" stop-color="rgb(55.393982%, 85.333252%, 34.483337%)" offset="0.0703125"/><stop stop-opacity="1" stop-color="rgb(55.59082%, 85.360718%, 34.526062%)" offset="0.078125"/><stop stop-opacity="1" stop-color="rgb(55.786133%, 85.388184%, 34.568787%)" offset="0.0859375"/><stop stop-opacity="1" stop-color="rgb(55.982971%, 85.415649%, 34.611511%)" offset="0.09375"/><stop stop-opacity="1" stop-color="rgb(56.178284%, 85.443115%, 34.655762%)" offset="0.101562"/><stop stop-opacity="1" stop-color="rgb(56.373596%, 85.472107%, 34.698486%)" offset="0.109375"/><stop stop-opacity="1" stop-color="rgb(56.570435%, 85.499573%, 34.741211%)" offset="0.117188"/><stop stop-opacity="1" stop-color="rgb(56.765747%, 85.527039%, 34.783936%)" offset="0.125"/><stop stop-opacity="1" stop-color="rgb(56.962585%, 85.554504%, 34.82666%)" offset="0.132812"/><stop stop-opacity="1" stop-color="rgb(57.157898%, 85.58197%, 34.869385%)" offset="0.140625"/><stop stop-opacity="1" stop-color="rgb(57.452393%, 85.623169%, 34.933472%)" offset="0.15625"/><stop stop-opacity="1" stop-color="rgb(57.745361%, 85.664368%, 34.997559%)" offset="0.164062"/><stop stop-opacity="1" stop-color="rgb(57.9422%, 85.691833%, 35.040283%)" offset="0.171875"/><stop stop-opacity="1" stop-color="rgb(58.137512%, 85.719299%, 35.084534%)" offset="0.179688"/><stop stop-opacity="1" stop-color="rgb(58.334351%, 85.746765%, 35.127258%)" offset="0.1875"/><stop stop-opacity="1" stop-color="rgb(58.529663%, 85.774231%, 35.169983%)" offset="0.195312"/><stop stop-opacity="1" stop-color="rgb(58.724976%, 85.801697%, 35.212708%)" offset="0.203125"/><stop stop-opacity="1" stop-color="rgb(58.921814%, 85.829163%, 35.255432%)" offset="0.210938"/><stop stop-opacity="1" stop-color="rgb(59.117126%, 85.856628%, 35.298157%)" offset="0.21875"/><stop stop-opacity="1" stop-color="rgb(59.313965%, 85.88562%, 35.340881%)" offset="0.226562"/><stop stop-opacity="1" stop-color="rgb(59.509277%, 85.913086%, 35.383606%)" offset="0.234375"/><stop stop-opacity="1" stop-color="rgb(59.803772%, 85.954285%, 35.447693%)" offset="0.25"/><stop stop-opacity="1" stop-color="rgb(60.096741%, 85.995483%, 35.513306%)" offset="0.257812"/><stop stop-opacity="1" stop-color="rgb(60.293579%, 86.022949%, 35.55603%)" offset="0.265625"/><stop stop-opacity="1" stop-color="rgb(60.488892%, 86.050415%, 35.598755%)" offset="0.273438"/><stop stop-opacity="1" stop-color="rgb(60.68573%, 86.077881%, 35.641479%)" offset="0.28125"/><stop stop-opacity="1" stop-color="rgb(60.881042%, 86.105347%, 35.684204%)" offset="0.289062"/><stop stop-opacity="1" stop-color="rgb(61.076355%, 86.132812%, 35.726929%)" offset="0.296875"/><stop stop-opacity="1" stop-color="rgb(61.273193%, 86.160278%, 35.769653%)" offset="0.304688"/><stop stop-opacity="1" stop-color="rgb(61.468506%, 86.187744%, 35.812378%)" offset="0.3125"/><stop stop-opacity="1" stop-color="rgb(61.665344%, 86.21521%, 35.855103%)" offset="0.320312"/><stop stop-opacity="1" stop-color="rgb(61.860657%, 86.242676%, 35.897827%)" offset="0.328125"/><stop stop-opacity="1" stop-color="rgb(62.155151%, 86.283875%, 35.96344%)" offset="0.34375"/><stop stop-opacity="1" stop-color="rgb(62.44812%, 86.326599%, 36.027527%)" offset="0.351562"/><stop stop-opacity="1" stop-color="rgb(62.644958%, 86.354065%, 36.070251%)" offset="0.359375"/><stop stop-opacity="1" stop-color="rgb(62.840271%, 86.381531%, 36.112976%)" offset="0.367188"/><stop stop-opacity="1" stop-color="rgb(63.037109%, 86.408997%, 36.155701%)" offset="0.375"/><stop stop-opacity="1" stop-color="rgb(63.232422%, 86.436462%, 36.198425%)" offset="0.382812"/><stop stop-opacity="1" stop-color="rgb(63.427734%, 86.463928%, 36.24115%)" offset="0.390625"/><stop stop-opacity="1" stop-color="rgb(63.624573%, 86.491394%, 36.283875%)" offset="0.398438"/><stop stop-opacity="1" stop-color="rgb(63.819885%, 86.51886%, 36.326599%)" offset="0.40625"/><stop stop-opacity="1" stop-color="rgb(64.016724%, 86.546326%, 36.37085%)" offset="0.414062"/><stop stop-opacity="1" stop-color="rgb(64.212036%, 86.573792%, 36.413574%)" offset="0.421875"/><stop stop-opacity="1" stop-color="rgb(64.506531%, 86.61499%, 36.477661%)" offset="0.4375"/><stop stop-opacity="1" stop-color="rgb(64.7995%, 86.656189%, 36.541748%)" offset="0.445312"/><stop stop-opacity="1" stop-color="rgb(64.996338%, 86.683655%, 36.584473%)" offset="0.453125"/><stop stop-opacity="1" stop-color="rgb(65.19165%, 86.712646%, 36.627197%)" offset="0.460938"/><stop stop-opacity="1" stop-color="rgb(65.388489%, 86.740112%, 36.669922%)" offset="0.46875"/><stop stop-opacity="1" stop-color="rgb(65.583801%, 86.767578%, 36.712646%)" offset="0.476562"/><stop stop-opacity="1" stop-color="rgb(65.779114%, 86.795044%, 36.755371%)" offset="0.484375"/><stop stop-opacity="1" stop-color="rgb(65.975952%, 86.82251%, 36.799622%)" offset="0.492187"/><stop stop-opacity="1" stop-color="rgb(66.171265%, 86.849976%, 36.842346%)" offset="0.5"/><stop stop-opacity="1" stop-color="rgb(66.368103%, 86.877441%, 36.885071%)" offset="0.507812"/><stop stop-opacity="1" stop-color="rgb(66.563416%, 86.904907%, 36.927795%)" offset="0.515625"/><stop stop-opacity="1" stop-color="rgb(66.85791%, 86.946106%, 36.991882%)" offset="0.53125"/><stop stop-opacity="1" stop-color="rgb(67.150879%, 86.987305%, 37.055969%)" offset="0.539062"/><stop stop-opacity="1" stop-color="rgb(67.347717%, 87.014771%, 37.098694%)" offset="0.546875"/><stop stop-opacity="1" stop-color="rgb(67.54303%, 87.042236%, 37.141418%)" offset="0.554688"/><stop stop-opacity="1" stop-color="rgb(67.739868%, 87.069702%, 37.184143%)" offset="0.5625"/><stop stop-opacity="1" stop-color="rgb(67.935181%, 87.097168%, 37.228394%)" offset="0.570312"/><stop stop-opacity="1" stop-color="rgb(68.130493%, 87.12616%, 37.271118%)" offset="0.578125"/><stop stop-opacity="1" stop-color="rgb(68.327332%, 87.153625%, 37.313843%)" offset="0.585938"/><stop stop-opacity="1" stop-color="rgb(68.522644%, 87.181091%, 37.356567%)" offset="0.59375"/><stop stop-opacity="1" stop-color="rgb(68.719482%, 87.208557%, 37.399292%)" offset="0.601562"/><stop stop-opacity="1" stop-color="rgb(68.914795%, 87.236023%, 37.442017%)" offset="0.609375"/><stop stop-opacity="1" stop-color="rgb(69.20929%, 87.277222%, 37.506104%)" offset="0.625"/><stop stop-opacity="1" stop-color="rgb(69.502258%, 87.31842%, 37.57019%)" offset="0.632812"/><stop stop-opacity="1" stop-color="rgb(69.699097%, 87.345886%, 37.612915%)" offset="0.640625"/><stop stop-opacity="1" stop-color="rgb(69.894409%, 87.373352%, 37.657166%)" offset="0.648438"/><stop stop-opacity="1" stop-color="rgb(70.091248%, 87.400818%, 37.69989%)" offset="0.65625"/><stop stop-opacity="1" stop-color="rgb(70.28656%, 87.428284%, 37.742615%)" offset="0.664062"/><stop stop-opacity="1" stop-color="rgb(70.481873%, 87.45575%, 37.785339%)" offset="0.671875"/><stop stop-opacity="1" stop-color="rgb(70.678711%, 87.483215%, 37.828064%)" offset="0.679688"/><stop stop-opacity="1" stop-color="rgb(70.874023%, 87.512207%, 37.870789%)" offset="0.6875"/><stop stop-opacity="1" stop-color="rgb(71.070862%, 87.539673%, 37.913513%)" offset="0.695312"/><stop stop-opacity="1" stop-color="rgb(71.266174%, 87.567139%, 37.956238%)" offset="0.703125"/><stop stop-opacity="1" stop-color="rgb(71.560669%, 87.608337%, 38.020325%)" offset="0.71875"/><stop stop-opacity="1" stop-color="rgb(71.853638%, 87.649536%, 38.085938%)" offset="0.726562"/><stop stop-opacity="1" stop-color="rgb(72.050476%, 87.677002%, 38.128662%)" offset="0.734375"/><stop stop-opacity="1" stop-color="rgb(72.245789%, 87.704468%, 38.171387%)" offset="0.742188"/><stop stop-opacity="1" stop-color="rgb(72.442627%, 87.731934%, 38.214111%)" offset="0.75"/><stop stop-opacity="1" stop-color="rgb(72.637939%, 87.759399%, 38.256836%)" offset="0.757812"/><stop stop-opacity="1" stop-color="rgb(72.833252%, 87.786865%, 38.299561%)" offset="0.765625"/><stop stop-opacity="1" stop-color="rgb(73.03009%, 87.814331%, 38.342285%)" offset="0.773438"/><stop stop-opacity="1" stop-color="rgb(73.225403%, 87.841797%, 38.38501%)" offset="0.78125"/><stop stop-opacity="1" stop-color="rgb(73.422241%, 87.869263%, 38.427734%)" offset="0.789062"/><stop stop-opacity="1" stop-color="rgb(73.617554%, 87.896729%, 38.470459%)" offset="0.796875"/><stop stop-opacity="1" stop-color="rgb(73.912048%, 87.939453%, 38.536072%)" offset="0.8125"/><stop stop-opacity="1" stop-color="rgb(74.205017%, 87.980652%, 38.600159%)" offset="0.820312"/><stop stop-opacity="1" stop-color="rgb(74.401855%, 88.008118%, 38.642883%)" offset="0.828125"/><stop stop-opacity="1" stop-color="rgb(74.597168%, 88.035583%, 38.685608%)" offset="0.835938"/><stop stop-opacity="1" stop-color="rgb(74.794006%, 88.063049%, 38.728333%)" offset="0.84375"/><stop stop-opacity="1" stop-color="rgb(74.989319%, 88.090515%, 38.771057%)" offset="0.851562"/><stop stop-opacity="1" stop-color="rgb(75.184631%, 88.117981%, 38.813782%)" offset="0.859375"/><stop stop-opacity="1" stop-color="rgb(75.38147%, 88.145447%, 38.856506%)" offset="0.867188"/><stop stop-opacity="1" stop-color="rgb(75.576782%, 88.172913%, 38.899231%)" offset="0.875"/><stop stop-opacity="1" stop-color="rgb(75.773621%, 88.200378%, 38.941956%)" offset="0.882812"/><stop stop-opacity="1" stop-color="rgb(75.968933%, 88.227844%, 38.986206%)" offset="0.890625"/><stop stop-opacity="1" stop-color="rgb(76.263428%, 88.269043%, 39.050293%)" offset="0.90625"/><stop stop-opacity="1" stop-color="rgb(76.556396%, 88.310242%, 39.11438%)" offset="0.914062"/><stop stop-opacity="1" stop-color="rgb(76.753235%, 88.339233%, 39.157104%)" offset="0.921875"/><stop stop-opacity="1" stop-color="rgb(76.948547%, 88.366699%, 39.199829%)" offset="0.929688"/><stop stop-opacity="1" stop-color="rgb(77.145386%, 88.394165%, 39.242554%)" offset="0.9375"/><stop stop-opacity="1" stop-color="rgb(77.340698%, 88.421631%, 39.285278%)" offset="0.945312"/><stop stop-opacity="1" stop-color="rgb(77.536011%, 88.449097%, 39.328003%)" offset="0.953125"/><stop stop-opacity="1" stop-color="rgb(77.732849%, 88.476562%, 39.370728%)" offset="0.960938"/><stop stop-opacity="1" stop-color="rgb(77.928162%, 88.504028%, 39.414978%)" offset="0.96875"/><stop stop-opacity="1" stop-color="rgb(78.125%, 88.531494%, 39.457703%)" offset="0.976562"/><stop stop-opacity="1" stop-color="rgb(78.320312%, 88.55896%, 39.500427%)" offset="0.984375"/><stop stop-opacity="1" stop-color="rgb(78.614807%, 88.600159%, 39.564514%)" offset="1"/></linearGradient><clipPath id="64bfd33f33"><rect x="0" width="171" y="0" height="158"/></clipPath><clipPath id="5cc2a4bac8"><path d="M 140 133 L 230 133 L 230 199 L 140 199 Z M 140 133 " clip-rule="nonzero"/></clipPath><clipPath id="5891ac66f2"><path d="M 134.53125 146.785156 L 224.523438 120.507812 L 240.710938 175.941406 L 150.71875 202.21875 Z M 134.53125 146.785156 " clip-rule="nonzero"/></clipPath><clipPath id="2287dde14a"><path d="M 134.53125 146.785156 L 224.523438 120.507812 L 240.710938 175.941406 L 150.71875 202.21875 Z M 134.53125 146.785156 " clip-rule="nonzero"/></clipPath><clipPath id="fcb64ee413"><path d="M 134.53125 146.785156 L 224.523438 120.507812 L 240.710938 175.941406 L 150.71875 202.21875 Z M 134.53125 146.785156 " clip-rule="nonzero"/></clipPath><clipPath id="72ebbaf28c"><path d="M 160 151 L 220 151 L 220 183 L 160 183 Z M 160 151 " clip-rule="nonzero"/></clipPath><clipPath id="ee5201b7c6"><path d="M 134.53125 146.785156 L 224.523438 120.507812 L 240.710938 175.941406 L 150.71875 202.21875 Z M 134.53125 146.785156 " clip-rule="nonzero"/></clipPath><clipPath id="2fd5dfab28"><path d="M 134.53125 146.785156 L 224.523438 120.507812 L 240.710938 175.941406 L 150.71875 202.21875 Z M 134.53125 146.785156 " clip-rule="nonzero"/></clipPath><clipPath id="ed46cc0213"><path d="M 134.53125 146.785156 L 224.523438 120.507812 L 240.710938 175.941406 L 150.71875 202.21875 Z M 134.53125 146.785156 " clip-rule="nonzero"/></clipPath></defs><g clip-path="url(#1446706500)"><g clip-path="url(#8e81c53ba6)"><g transform="matrix(1, 0, 0, 1, 102, 109)"><g clip-path="url(#64bfd33f33)"><g clip-path="url(#aa1121930b)"><g clip-path="url(#2cce9bd16a)"><path fill="url(#ce3e82b957)" d="M 0.5 0.246094 L 0.5 157.304688 L 170.441406 157.304688 L 170.441406 0.246094 Z M 0.5 0.246094 " fill-rule="nonzero"/></g></g></g></g></g></g><g clip-path="url(#5cc2a4bac8)"><g clip-path="url(#5891ac66f2)"><g clip-path="url(#2287dde14a)"><g clip-path="url(#fcb64ee413)"><path fill="#000000" d="M 204.542969 135.101562 L 180.414062 133.484375 L 180.132812 133.464844 L 179.90625 133.632812 L 160.441406 147.980469 L 140.523438 162.664062 L 145.703125 163.011719 L 151.6875 163.414062 C 151.167969 165.992188 151.308594 170.519531 154.9375 177.484375 C 153.945312 178.261719 153.46875 179.585938 153.839844 180.867188 C 154.109375 181.785156 154.757812 182.484375 155.5625 182.855469 C 157.226562 191.035156 152.125 193.730469 150.394531 194.398438 C 149.851562 194.609375 149.457031 195.125 149.480469 195.707031 C 149.582031 198.1875 156.570312 198.679688 160.652344 198.757812 C 162.453125 198.792969 164.027344 197.503906 164.316406 195.726562 C 165.449219 188.804688 161.75 183.582031 159.761719 181.34375 C 160.089844 180.660156 160.179688 179.863281 159.953125 179.082031 C 159.558594 177.738281 158.34375 176.851562 157.007812 176.808594 C 155.785156 173.980469 153.382812 167.628906 154.507812 163.601562 L 165.210938 164.320312 L 169.78125 164.625 L 189.339844 165.9375 L 189.621094 165.957031 L 189.847656 165.789062 L 205.628906 154.160156 L 209.316406 151.441406 L 225.054688 139.839844 L 229.234375 136.761719 Z M 204.542969 135.101562 " fill-opacity="1" fill-rule="nonzero"/></g></g></g></g><g clip-path="url(#72ebbaf28c)"><g clip-path="url(#ee5201b7c6)"><g clip-path="url(#2fd5dfab28)"><g clip-path="url(#ed46cc0213)"><path fill="#000000" d="M 210.316406 154.871094 L 190.851562 169.21875 L 190.625 169.386719 L 190.339844 169.367188 L 166.214844 167.75 L 160.523438 167.371094 L 164.90625 182.378906 C 167.230469 180.765625 169.839844 179.5 172.691406 178.667969 C 180.253906 176.460938 188.035156 177.730469 194.40625 181.558594 C 197.714844 174.902344 203.585938 169.644531 211.148438 167.4375 C 214.078125 166.582031 217.035156 166.25 219.933594 166.382812 L 215.519531 151.269531 L 214.992188 151.425781 Z M 210.316406 154.871094 " fill-opacity="1" fill-rule="nonzero"/></g></g></g></g><g fill="#000000" fill-opacity="1"><g transform="translate(164.999994, 226.555356)"><g><path d="M 3.71875 0 L 0.59375 0 L 3.453125 -18 L 9.671875 -18 C 10.578125 -18 11.378906 -17.867188 12.078125 -17.609375 C 12.773438 -17.347656 13.34375 -16.976562 13.78125 -16.5 C 14.226562 -16.03125 14.535156 -15.457031 14.703125 -14.78125 C 14.878906 -14.113281 14.90625 -13.363281 14.78125 -12.53125 C 14.507812 -10.820312 13.765625 -9.484375 12.546875 -8.515625 C 11.328125 -7.554688 9.785156 -7.078125 7.921875 -7.078125 L 4.84375 -7.078125 Z M 8.34375 -9.71875 C 9.21875 -9.71875 9.945312 -9.972656 10.53125 -10.484375 C 11.125 -10.992188 11.488281 -11.675781 11.625 -12.53125 C 11.757812 -13.375 11.613281 -14.050781 11.1875 -14.5625 C 10.757812 -15.082031 10.113281 -15.34375 9.25 -15.34375 L 6.171875 -15.34375 L 5.28125 -9.71875 Z M 8.34375 -9.71875 "/></g></g></g><g fill="#000000" fill-opacity="1"><g transform="translate(179.997623, 226.555356)"><g><path d="M 0.578125 0 L 3.46875 -18.25 L 6.578125 -18.25 L 5.84375 -13.75 C 5.757812 -13.226562 5.65625 -12.710938 5.53125 -12.203125 C 5.457031 -11.921875 5.378906 -11.644531 5.296875 -11.375 L 5.546875 -11.375 C 5.828125 -12.207031 6.320312 -12.851562 7.03125 -13.3125 C 7.738281 -13.769531 8.59375 -14 9.59375 -14 C 10.257812 -14 10.851562 -13.878906 11.375 -13.640625 C 11.894531 -13.398438 12.316406 -13.050781 12.640625 -12.59375 C 12.960938 -12.144531 13.1875 -11.613281 13.3125 -11 C 13.4375 -10.382812 13.441406 -9.703125 13.328125 -8.953125 L 11.90625 0 L 8.78125 0 L 10.125 -8.625 C 10.257812 -9.476562 10.140625 -10.132812 9.765625 -10.59375 C 9.398438 -11.0625 8.828125 -11.296875 8.046875 -11.296875 C 7.242188 -11.296875 6.578125 -11.050781 6.046875 -10.5625 C 5.515625 -10.070312 5.179688 -9.398438 5.046875 -8.546875 L 5.03125 -8.546875 L 3.671875 0 Z M 0.578125 0 "/></g></g></g><g fill="#000000" fill-opacity="1"><g transform="translate(194.995253, 226.555356)"><g><path d="M 6.59375 -2.875 C 7.476562 -2.875 8.226562 -3.132812 8.84375 -3.65625 C 9.46875 -4.1875 9.84375 -4.875 9.96875 -5.71875 L 11.03125 -12.296875 C 11.15625 -13.148438 10.992188 -13.832031 10.546875 -14.34375 C 10.097656 -14.863281 9.425781 -15.125 8.53125 -15.125 L 6.09375 -15.125 L 4.171875 -2.875 Z M 0.59375 0 L 3.453125 -18 L 9 -18 C 9.894531 -18 10.691406 -17.863281 11.390625 -17.59375 C 12.097656 -17.332031 12.675781 -16.953125 13.125 -16.453125 C 13.570312 -15.953125 13.882812 -15.347656 14.0625 -14.640625 C 14.238281 -13.941406 14.257812 -13.160156 14.125 -12.296875 L 13.09375 -5.71875 C 12.96875 -4.851562 12.703125 -4.070312 12.296875 -3.375 C 11.898438 -2.675781 11.390625 -2.078125 10.765625 -1.578125 C 10.148438 -1.078125 9.453125 -0.6875 8.671875 -0.40625 C 7.890625 -0.132812 7.039062 0 6.125 0 Z M 0.59375 0 "/></g></g></g><g fill="#000000" fill-opacity="1"><g transform="translate(134.999996, 251.305354)"><g><path d="M 6.59375 -2.875 C 7.476562 -2.875 8.226562 -3.132812 8.84375 -3.65625 C 9.46875 -4.1875 9.84375 -4.875 9.96875 -5.71875 L 11.03125 -12.296875 C 11.15625 -13.148438 10.992188 -13.832031 10.546875 -14.34375 C 10.097656 -14.863281 9.425781 -15.125 8.53125 -15.125 L 6.09375 -15.125 L 4.171875 -2.875 Z M 0.59375 0 L 3.453125 -18 L 9 -18 C 9.894531 -18 10.691406 -17.863281 11.390625 -17.59375 C 12.097656 -17.332031 12.675781 -16.953125 13.125 -16.453125 C 13.570312 -15.953125 13.882812 -15.347656 14.0625 -14.640625 C 14.238281 -13.941406 14.257812 -13.160156 14.125 -12.296875 L 13.09375 -5.71875 C 12.96875 -4.851562 12.703125 -4.070312 12.296875 -3.375 C 11.898438 -2.675781 11.390625 -2.078125 10.765625 -1.578125 C 10.148438 -1.078125 9.453125 -0.6875 8.671875 -0.40625 C 7.890625 -0.132812 7.039062 0 6.125 0 Z M 0.59375 0 "/></g></g></g><g fill="#000000" fill-opacity="1"><g transform="translate(149.997625, 251.305354)"><g><path d="M 1.125 0 L 3.296875 -13.75 L 6.21875 -13.75 L 5.84375 -11.375 L 6.078125 -11.375 C 6.378906 -12.207031 6.894531 -12.851562 7.625 -13.3125 C 8.351562 -13.769531 9.242188 -14 10.296875 -14 C 11.765625 -14 12.835938 -13.535156 13.515625 -12.609375 C 14.203125 -11.679688 14.421875 -10.421875 14.171875 -8.828125 L 14.03125 -7.78125 L 10.78125 -7.78125 L 10.875 -8.546875 C 11.019531 -9.429688 10.894531 -10.125 10.5 -10.625 C 10.101562 -11.125 9.476562 -11.375 8.625 -11.375 C 7.820312 -11.375 7.144531 -11.117188 6.59375 -10.609375 C 6.050781 -10.097656 5.710938 -9.410156 5.578125 -8.546875 L 4.21875 0 Z M 1.125 0 "/></g></g></g><g fill="#000000" fill-opacity="1"><g transform="translate(164.995255, 251.305354)"><g><path d="M 4.21875 -5.203125 C 4.09375 -4.367188 4.25 -3.707031 4.6875 -3.21875 C 5.125 -2.738281 5.78125 -2.5 6.65625 -2.5 C 7.53125 -2.5 8.257812 -2.734375 8.84375 -3.203125 C 9.425781 -3.679688 9.785156 -4.347656 9.921875 -5.203125 L 10.453125 -8.578125 C 10.585938 -9.410156 10.429688 -10.066406 9.984375 -10.546875 C 9.546875 -11.035156 8.894531 -11.28125 8.03125 -11.28125 C 7.15625 -11.28125 6.425781 -11.035156 5.84375 -10.546875 C 5.257812 -10.066406 4.90625 -9.410156 4.78125 -8.578125 Z M 1.671875 -8.578125 C 1.941406 -10.253906 2.675781 -11.578125 3.875 -12.546875 C 5.070312 -13.515625 6.601562 -14 8.46875 -14 C 9.375 -14 10.164062 -13.867188 10.84375 -13.609375 C 11.53125 -13.347656 12.097656 -12.976562 12.546875 -12.5 C 12.992188 -12.03125 13.304688 -11.460938 13.484375 -10.796875 C 13.660156 -10.128906 13.679688 -9.390625 13.546875 -8.578125 L 13.03125 -5.203125 C 12.738281 -3.503906 11.992188 -2.171875 10.796875 -1.203125 C 9.597656 -0.234375 8.066406 0.25 6.203125 0.25 C 5.296875 0.25 4.5 0.117188 3.8125 -0.140625 C 3.125 -0.398438 2.5625 -0.765625 2.125 -1.234375 C 1.6875 -1.710938 1.378906 -2.285156 1.203125 -2.953125 C 1.035156 -3.628906 1.007812 -4.378906 1.125 -5.203125 Z M 1.671875 -8.578125 "/></g></g></g><g fill="#000000" fill-opacity="1"><g transform="translate(179.992885, 251.305354)"><g><path d="M 0 4.125 L 2.828125 -13.75 L 5.78125 -13.75 L 5.40625 -11.375 L 5.65625 -11.375 C 5.9375 -12.207031 6.429688 -12.851562 7.140625 -13.3125 C 7.847656 -13.769531 8.703125 -14 9.703125 -14 C 10.421875 -14 11.046875 -13.867188 11.578125 -13.609375 C 12.109375 -13.347656 12.546875 -12.984375 12.890625 -12.515625 C 13.234375 -12.054688 13.460938 -11.492188 13.578125 -10.828125 C 13.691406 -10.160156 13.679688 -9.425781 13.546875 -8.625 L 13.03125 -5.203125 C 12.894531 -4.378906 12.660156 -3.632812 12.328125 -2.96875 C 11.992188 -2.300781 11.578125 -1.726562 11.078125 -1.25 C 10.585938 -0.78125 10.035156 -0.410156 9.421875 -0.140625 C 8.804688 0.117188 8.148438 0.25 7.453125 0.25 C 6.484375 0.25 5.710938 0.015625 5.140625 -0.453125 C 4.566406 -0.929688 4.257812 -1.582031 4.21875 -2.40625 L 4 -2.40625 C 4 -2.351562 3.988281 -2.242188 3.96875 -2.078125 C 3.957031 -1.921875 3.9375 -1.726562 3.90625 -1.5 C 3.882812 -1.28125 3.859375 -1.035156 3.828125 -0.765625 C 3.796875 -0.503906 3.757812 -0.25 3.71875 0 L 3.078125 4.125 Z M 4.53125 -4.953125 C 4.457031 -4.203125 4.617188 -3.597656 5.015625 -3.140625 C 5.421875 -2.691406 6.023438 -2.46875 6.828125 -2.46875 C 7.660156 -2.46875 8.351562 -2.71875 8.90625 -3.21875 C 9.46875 -3.71875 9.816406 -4.40625 9.953125 -5.28125 L 10.46875 -8.546875 C 10.601562 -9.398438 10.46875 -10.070312 10.0625 -10.5625 C 9.65625 -11.050781 9.035156 -11.296875 8.203125 -11.296875 C 7.378906 -11.296875 6.6875 -11.046875 6.125 -10.546875 C 5.570312 -10.046875 5.226562 -9.378906 5.09375 -8.546875 L 5.078125 -8.546875 Z M 4.53125 -4.953125 "/></g></g></g><g fill="#000000" fill-opacity="1"><g transform="translate(194.990515, 251.305354)"><g><path d="M 4.21875 -5.203125 C 4.09375 -4.367188 4.25 -3.707031 4.6875 -3.21875 C 5.125 -2.738281 5.78125 -2.5 6.65625 -2.5 C 7.53125 -2.5 8.257812 -2.734375 8.84375 -3.203125 C 9.425781 -3.679688 9.785156 -4.347656 9.921875 -5.203125 L 10.453125 -8.578125 C 10.585938 -9.410156 10.429688 -10.066406 9.984375 -10.546875 C 9.546875 -11.035156 8.894531 -11.28125 8.03125 -11.28125 C 7.15625 -11.28125 6.425781 -11.035156 5.84375 -10.546875 C 5.257812 -10.066406 4.90625 -9.410156 4.78125 -8.578125 Z M 1.671875 -8.578125 C 1.941406 -10.253906 2.675781 -11.578125 3.875 -12.546875 C 5.070312 -13.515625 6.601562 -14 8.46875 -14 C 9.375 -14 10.164062 -13.867188 10.84375 -13.609375 C 11.53125 -13.347656 12.097656 -12.976562 12.546875 -12.5 C 12.992188 -12.03125 13.304688 -11.460938 13.484375 -10.796875 C 13.660156 -10.128906 13.679688 -9.390625 13.546875 -8.578125 L 13.03125 -5.203125 C 12.738281 -3.503906 11.992188 -2.171875 10.796875 -1.203125 C 9.597656 -0.234375 8.066406 0.25 6.203125 0.25 C 5.296875 0.25 4.5 0.117188 3.8125 -0.140625 C 3.125 -0.398438 2.5625 -0.765625 2.125 -1.234375 C 1.6875 -1.710938 1.378906 -2.285156 1.203125 -2.953125 C 1.035156 -3.628906 1.007812 -4.378906 1.125 -5.203125 Z M 1.671875 -8.578125 "/></g></g></g><g fill="#000000" fill-opacity="1"><g transform="translate(209.988144, 251.305354)"><g><path d="M 1.46875 -5.15625 L 2.828125 -13.75 L 5.953125 -13.75 L 4.578125 -5.15625 C 4.296875 -3.363281 4.976562 -2.46875 6.625 -2.46875 C 8.289062 -2.46875 9.265625 -3.363281 9.546875 -5.15625 L 10.921875 -13.75 L 14.03125 -13.75 L 12.65625 -5.15625 C 12.382812 -3.4375 11.691406 -2.101562 10.578125 -1.15625 C 9.460938 -0.21875 8.003906 0.25 6.203125 0.25 C 4.453125 0.25 3.160156 -0.226562 2.328125 -1.1875 C 1.492188 -2.144531 1.207031 -3.46875 1.46875 -5.15625 Z M 1.46875 -5.15625 "/></g></g></g><g fill="#000000" fill-opacity="1"><g transform="translate(224.985774, 251.305354)"><g><path d="M 2.078125 -13.75 L 5.84375 -13.75 L 6.53125 -18 L 9.65625 -18 L 8.96875 -13.75 L 14.203125 -13.75 L 13.75 -10.921875 L 8.53125 -10.921875 L 7.46875 -4.25 C 7.382812 -3.8125 7.457031 -3.460938 7.6875 -3.203125 C 7.914062 -2.953125 8.257812 -2.828125 8.71875 -2.828125 L 12.21875 -2.828125 L 11.78125 0 L 8.046875 0 C 6.703125 0 5.695312 -0.378906 5.03125 -1.140625 C 4.363281 -1.910156 4.132812 -2.945312 4.34375 -4.25 L 5.40625 -10.921875 L 1.625 -10.921875 Z M 2.078125 -13.75 "/></g></g></g></svg>