<svg xmlns="http://www.w3.org/2000/svg" xmlns:xlink="http://www.w3.org/1999/xlink" width="1080" zoomAndPan="magnify" viewBox="0 0 810 809.999993" height="1080" preserveAspectRatio="xMidYMid meet" version="1.0"><defs><clipPath id="2efd4b13b3"><path d="M 1 0.992188 L 23.582031 0.992188 L 23.582031 22 L 1 22 Z M 1 0.992188 " clip-rule="nonzero"/></clipPath><clipPath id="c5777e215a"><rect x="0" width="24" y="0" height="23"/></clipPath><clipPath id="e4a4d01e53"><path d="M 175.339844 355.03125 L 640.457031 355.03125 L 640.457031 362 L 175.339844 362 Z M 175.339844 355.03125 " clip-rule="nonzero"/></clipPath><clipPath id="61d90e6af0"><path d="M 176.851562 355.042969 C 640.050781 355.566406 640.425781 356.089844 640.425781 356.617188 C 640.425781 357.140625 639.300781 357.964844 638.773438 358.042969 C 638.324219 358.042969 637.800781 357.589844 637.574219 357.214844 C 637.425781 356.765625 637.574219 355.792969 637.875 355.417969 C 638.25 355.117188 639.300781 355.042969 639.675781 355.265625 C 640.050781 355.417969 640.5 356.015625 640.425781 356.464844 C 640.351562 356.992188 640.050781 357.515625 638.925781 358.042969 C 622.199219 365.242188 193.425781 364.339844 176.851562 358.042969 C 175.726562 357.589844 175.351562 357.214844 175.351562 356.691406 C 175.351562 356.242188 176.851562 355.042969 176.851562 355.042969 " clip-rule="nonzero"/></clipPath><clipPath id="0ce14f8946"><path d="M 0.339844 0.03125 L 465.457031 0.03125 L 465.457031 6.199219 L 0.339844 6.199219 Z M 0.339844 0.03125 " clip-rule="nonzero"/></clipPath><clipPath id="7bed4f5b3a"><path d="M 1.851562 0.0429688 C 465.050781 0.566406 465.425781 1.089844 465.425781 1.617188 C 465.425781 2.140625 464.300781 2.964844 463.773438 3.042969 C 463.324219 3.042969 462.800781 2.589844 462.574219 2.214844 C 462.425781 1.765625 462.574219 0.792969 462.875 0.417969 C 463.25 0.117188 464.300781 0.0429688 464.675781 0.265625 C 465.050781 0.417969 465.5 1.015625 465.425781 1.464844 C 465.351562 1.992188 465.050781 2.515625 463.925781 3.042969 C 447.199219 10.242188 18.425781 9.339844 1.851562 3.042969 C 0.726562 2.589844 0.351562 2.214844 0.351562 1.691406 C 0.351562 1.242188 1.851562 0.0429688 1.851562 0.0429688 " clip-rule="nonzero"/></clipPath><clipPath id="554aade730"><rect x="0" width="466" y="0" height="7"/></clipPath><clipPath id="0865a7683c"><path d="M 172.601562 342.765625 L 200.160156 342.765625 L 200.160156 356.742188 L 172.601562 356.742188 Z M 172.601562 342.765625 " clip-rule="nonzero"/></clipPath><clipPath id="06e9031cb7"><path d="M 173.625 353.765625 C 188.925781 348.140625 195.976562 342.589844 198.375 342.816406 C 199.199219 342.890625 199.949219 343.640625 200.101562 344.167969 C 200.175781 344.617188 199.574219 345.589844 199.125 345.667969 C 198.675781 345.816406 197.398438 345.214844 197.175781 344.765625 C 196.949219 344.390625 197.175781 343.714844 197.398438 343.417969 C 197.625 343.042969 198.226562 342.742188 198.675781 342.816406 C 199.125 342.890625 199.949219 343.492188 200.023438 343.941406 C 200.175781 344.464844 199.875 344.992188 199.273438 345.589844 C 197.398438 347.617188 187.648438 352.042969 182.925781 353.917969 C 179.699219 355.265625 175.949219 356.992188 174.226562 356.691406 C 173.476562 356.542969 172.726562 355.941406 172.648438 355.492188 C 172.574219 354.964844 173.625 353.765625 173.625 353.765625 " clip-rule="nonzero"/></clipPath><clipPath id="8233b26409"><path d="M 0.601562 0.765625 L 28.160156 0.765625 L 28.160156 14.742188 L 0.601562 14.742188 Z M 0.601562 0.765625 " clip-rule="nonzero"/></clipPath><clipPath id="be90d3e5b1"><path d="M 1.625 11.765625 C 16.925781 6.140625 23.976562 0.589844 26.375 0.816406 C 27.199219 0.890625 27.949219 1.640625 28.101562 2.167969 C 28.175781 2.617188 27.574219 3.589844 27.125 3.667969 C 26.675781 3.816406 25.398438 3.214844 25.175781 2.765625 C 24.949219 2.390625 25.175781 1.714844 25.398438 1.417969 C 25.625 1.042969 26.226562 0.742188 26.675781 0.816406 C 27.125 0.890625 27.949219 1.492188 28.023438 1.941406 C 28.175781 2.464844 27.875 2.992188 27.273438 3.589844 C 25.398438 5.617188 15.648438 10.042969 10.925781 11.917969 C 7.699219 13.265625 3.949219 14.992188 2.226562 14.691406 C 1.476562 14.542969 0.726562 13.941406 0.648438 13.492188 C 0.574219 12.964844 1.625 11.765625 1.625 11.765625 " clip-rule="nonzero"/></clipPath><clipPath id="2c906e89f5"><rect x="0" width="29" y="0" height="15"/></clipPath><clipPath id="01376c33d3"><path d="M 168.429688 356.390625 L 201.523438 356.390625 L 201.523438 374.390625 L 168.429688 374.390625 Z M 168.429688 356.390625 " clip-rule="nonzero"/></clipPath><clipPath id="ab63b78d0a"><path d="M 170.023438 356.390625 C 174.675781 356.691406 176.324219 358.117188 177.75 358.492188 C 178.949219 358.867188 179.851562 358.566406 181.199219 359.015625 C 183.300781 359.617188 186.226562 361.117188 189.074219 362.839844 C 192.675781 365.089844 199.726562 369.964844 201 371.765625 C 201.375 372.367188 201.523438 372.742188 201.449219 373.117188 C 201.300781 373.566406 200.550781 374.242188 200.101562 374.316406 C 199.648438 374.390625 199.050781 374.089844 198.75 373.792969 C 198.523438 373.492188 198.300781 372.742188 198.523438 372.441406 C 198.75 371.917969 200.023438 371.242188 200.476562 371.464844 C 200.925781 371.617188 201.523438 372.964844 201.300781 373.417969 C 201.148438 373.867188 200.175781 374.316406 199.273438 374.167969 C 196.800781 373.792969 191.25 367.265625 186.824219 364.714844 C 182.550781 362.316406 176.324219 360.066406 173.175781 359.390625 C 171.523438 359.015625 170.101562 359.691406 169.351562 359.242188 C 168.824219 358.941406 168.449219 358.191406 168.523438 357.742188 C 168.675781 357.214844 170.023438 356.390625 170.023438 356.390625 " clip-rule="nonzero"/></clipPath><clipPath id="578213ad7e"><path d="M 0.429688 0.390625 L 33.523438 0.390625 L 33.523438 18.390625 L 0.429688 18.390625 Z M 0.429688 0.390625 " clip-rule="nonzero"/></clipPath><clipPath id="232b7eb24e"><path d="M 2.023438 0.390625 C 6.675781 0.691406 8.324219 2.117188 9.75 2.492188 C 10.949219 2.867188 11.851562 2.566406 13.199219 3.015625 C 15.300781 3.617188 18.226562 5.117188 21.074219 6.839844 C 24.675781 9.089844 31.726562 13.964844 33 15.765625 C 33.375 16.367188 33.523438 16.742188 33.449219 17.117188 C 33.300781 17.566406 32.550781 18.242188 32.101562 18.316406 C 31.648438 18.390625 31.050781 18.089844 30.75 17.792969 C 30.523438 17.492188 30.300781 16.742188 30.523438 16.441406 C 30.75 15.917969 32.023438 15.242188 32.476562 15.464844 C 32.925781 15.617188 33.523438 16.964844 33.300781 17.417969 C 33.148438 17.867188 32.175781 18.316406 31.273438 18.167969 C 28.800781 17.792969 23.25 11.265625 18.824219 8.714844 C 14.550781 6.316406 8.324219 4.066406 5.175781 3.390625 C 3.523438 3.015625 2.101562 3.691406 1.351562 3.242188 C 0.824219 2.941406 0.449219 2.191406 0.523438 1.742188 C 0.675781 1.214844 2.023438 0.390625 2.023438 0.390625 " clip-rule="nonzero"/></clipPath><clipPath id="efbb069727"><rect x="0" width="34" y="0" height="19"/></clipPath><clipPath id="beaf9c1214"><path d="M 604.726562 341.394531 L 637.78125 341.394531 L 637.78125 355.261719 L 604.726562 355.261719 Z M 604.726562 341.394531 " clip-rule="nonzero"/></clipPath><clipPath id="e19efa8450"><path d="M 635.550781 355.191406 C 624.148438 351.292969 623.699219 351.667969 622.273438 351.292969 C 618.898438 350.464844 607.574219 346.191406 605.625 344.316406 C 605.023438 343.714844 604.726562 343.117188 604.875 342.667969 C 604.949219 342.140625 606.226562 341.390625 606.675781 341.464844 C 607.199219 341.617188 607.875 342.964844 607.726562 343.417969 C 607.574219 343.867188 606.300781 344.464844 605.773438 344.316406 C 605.324219 344.242188 604.726562 343.265625 604.800781 342.816406 C 604.875 342.292969 605.625 341.617188 606.523438 341.464844 C 609.148438 341.089844 617.550781 346.640625 622.648438 348.367188 C 627.074219 349.867188 632.851562 350.464844 635.324219 351.667969 C 636.523438 352.265625 637.5 352.941406 637.726562 353.617188 C 637.800781 354.066406 637.574219 354.667969 637.199219 354.890625 C 636.898438 355.191406 635.550781 355.191406 635.550781 355.191406 " clip-rule="nonzero"/></clipPath><clipPath id="6bb2862b8d"><path d="M 0.726562 0.394531 L 33.78125 0.394531 L 33.78125 14.199219 L 0.726562 14.199219 Z M 0.726562 0.394531 " clip-rule="nonzero"/></clipPath><clipPath id="3b98f7181d"><path d="M 31.550781 14.191406 C 20.148438 10.292969 19.699219 10.667969 18.273438 10.292969 C 14.898438 9.464844 3.574219 5.191406 1.625 3.316406 C 1.023438 2.714844 0.726562 2.117188 0.875 1.667969 C 0.949219 1.140625 2.226562 0.390625 2.675781 0.464844 C 3.199219 0.617188 3.875 1.964844 3.726562 2.417969 C 3.574219 2.867188 2.300781 3.464844 1.773438 3.316406 C 1.324219 3.242188 0.726562 2.265625 0.800781 1.816406 C 0.875 1.292969 1.625 0.617188 2.523438 0.464844 C 5.148438 0.0898438 13.550781 5.640625 18.648438 7.367188 C 23.074219 8.867188 28.851562 9.464844 31.324219 10.667969 C 32.523438 11.265625 33.5 11.941406 33.726562 12.617188 C 33.800781 13.066406 33.574219 13.667969 33.199219 13.890625 C 32.898438 14.191406 31.550781 14.191406 31.550781 14.191406 " clip-rule="nonzero"/></clipPath><clipPath id="17556d51c0"><rect x="0" width="34" y="0" height="15"/></clipPath><clipPath id="2e8bc1f431"><path d="M 614.300781 355.117188 L 641.6875 355.117188 L 641.6875 381.140625 L 614.300781 381.140625 Z M 614.300781 355.117188 " clip-rule="nonzero"/></clipPath><clipPath id="c481c3978f"><path d="M 641.324219 357.589844 C 620.324219 375.964844 618.226562 380.242188 616.574219 380.917969 C 615.898438 381.214844 615.074219 381.066406 614.773438 380.691406 C 614.476562 380.316406 614.398438 378.890625 614.773438 378.515625 C 615.148438 378.214844 616.648438 378.292969 616.949219 378.667969 C 617.324219 379.042969 617.101562 380.542969 616.726562 380.839844 C 616.351562 381.140625 615.300781 381.066406 614.925781 380.839844 C 614.550781 380.617188 614.324219 380.089844 614.324219 379.566406 C 614.398438 378.441406 615.523438 376.867188 617.101562 374.992188 C 620.851562 370.492188 636 356.242188 639.523438 355.265625 C 640.425781 354.964844 641.175781 355.191406 641.476562 355.640625 C 641.773438 356.015625 641.324219 357.589844 641.324219 357.589844 " clip-rule="nonzero"/></clipPath><clipPath id="d166a7b3ac"><path d="M 0.300781 0.117188 L 27.6875 0.117188 L 27.6875 26.140625 L 0.300781 26.140625 Z M 0.300781 0.117188 " clip-rule="nonzero"/></clipPath><clipPath id="4086fa9253"><path d="M 27.324219 2.589844 C 6.324219 20.964844 4.226562 25.242188 2.574219 25.917969 C 1.898438 26.214844 1.074219 26.066406 0.773438 25.691406 C 0.476562 25.316406 0.398438 23.890625 0.773438 23.515625 C 1.148438 23.214844 2.648438 23.292969 2.949219 23.667969 C 3.324219 24.042969 3.101562 25.542969 2.726562 25.839844 C 2.351562 26.140625 1.300781 26.066406 0.925781 25.839844 C 0.550781 25.617188 0.324219 25.089844 0.324219 24.566406 C 0.398438 23.441406 1.523438 21.867188 3.101562 19.992188 C 6.851562 15.492188 22 1.242188 25.523438 0.265625 C 26.425781 -0.0351562 27.175781 0.191406 27.476562 0.640625 C 27.773438 1.015625 27.324219 2.589844 27.324219 2.589844 " clip-rule="nonzero"/></clipPath><clipPath id="04fa8d0474"><rect x="0" width="28" y="0" height="27"/></clipPath><clipPath id="226b53c534"><path d="M 207.441406 347.476562 L 226.878906 347.476562 L 226.878906 365.511719 L 207.441406 365.511719 Z M 207.441406 347.476562 " clip-rule="nonzero"/></clipPath><clipPath id="8d9c3b8e2e"><path d="M 207.449219 359.429688 C 207.601562 356.804688 207.675781 356.277344 207.824219 355.753906 C 207.976562 355.230469 208.199219 354.628906 208.574219 354.027344 C 208.949219 353.503906 209.699219 352.980469 210.226562 352.453125 C 210.675781 351.929688 211.125 351.554688 211.648438 351.105469 C 212.101562 350.652344 212.476562 350.203125 213.074219 349.828125 C 213.824219 349.378906 214.800781 348.929688 215.773438 348.554688 C 216.75 348.179688 218.023438 347.578125 219 347.578125 C 219.824219 347.503906 220.726562 347.804688 221.175781 348.105469 C 221.476562 348.328125 221.476562 348.777344 221.773438 348.855469 C 222.148438 349.078125 222.75 348.855469 223.273438 348.855469 C 223.875 348.929688 224.699219 348.628906 225.226562 348.929688 C 225.824219 349.152344 226.5 350.054688 226.726562 350.730469 C 226.875 351.253906 226.726562 351.929688 226.648438 352.527344 C 226.648438 353.128906 226.648438 353.652344 226.574219 354.179688 C 226.5 354.703125 226.5 355.378906 226.273438 355.753906 C 226.050781 356.128906 225.449219 356.277344 225.300781 356.652344 C 225.148438 357.027344 225.300781 357.480469 225.300781 357.929688 C 225.300781 358.453125 225.300781 359.054688 225.148438 359.578125 C 225.074219 360.105469 224.925781 360.628906 224.625 361.152344 C 224.324219 361.753906 223.648438 362.277344 223.199219 362.804688 C 222.75 363.253906 222.300781 363.777344 221.773438 364.003906 C 221.25 364.304688 220.648438 364.230469 220.050781 364.304688 C 219.449219 364.453125 219 364.453125 218.398438 364.605469 C 217.574219 364.828125 216.449219 365.277344 215.476562 365.429688 C 214.726562 365.503906 213.976562 365.429688 213.300781 365.355469 C 212.699219 365.277344 212.25 365.355469 211.800781 365.128906 C 211.273438 364.828125 210.898438 364.230469 210.375 363.777344 C 209.773438 363.253906 208.875 362.878906 208.351562 362.203125 C 207.824219 361.453125 207.449219 359.429688 207.449219 359.429688 M 211.726562 359.652344 C 213.226562 359.730469 213.148438 359.730469 213.148438 359.652344 C 213 359.429688 212.851562 357.105469 212.851562 356.878906 C 212.773438 356.804688 212.175781 357.703125 211.949219 358.152344 C 211.800781 358.605469 211.726562 359.652344 211.726562 359.652344 M 217.199219 356.578125 C 219.148438 357.105469 219.375 357.179688 219.601562 357.105469 C 219.976562 356.878906 220.574219 355.980469 220.800781 355.378906 C 221.023438 354.855469 221.023438 354.179688 220.949219 353.804688 C 220.949219 353.578125 220.949219 353.355469 220.800781 353.203125 C 220.648438 353.128906 220.273438 353.277344 219.976562 353.277344 C 219.523438 353.277344 218.699219 353.128906 218.550781 353.277344 C 218.476562 353.355469 218.476562 353.429688 218.476562 353.578125 C 218.476562 353.652344 218.398438 353.804688 218.324219 353.878906 C 218.25 353.953125 218.101562 354.179688 218.101562 354.179688 C 218.101562 354.179688 217.5 354.628906 217.351562 354.929688 C 217.125 355.378906 217.199219 356.578125 217.199219 356.578125 M 217.199219 359.277344 C 217.5 359.578125 217.574219 359.503906 217.574219 359.429688 C 217.574219 359.355469 217.199219 359.277344 217.199219 359.277344 " clip-rule="nonzero"/></clipPath><clipPath id="52da1a77ca"><path d="M 0.441406 0.476562 L 19.878906 0.476562 L 19.878906 18.511719 L 0.441406 18.511719 Z M 0.441406 0.476562 " clip-rule="nonzero"/></clipPath><clipPath id="f9f50a6900"><path d="M 0.449219 12.429688 C 0.601562 9.804688 0.675781 9.277344 0.824219 8.753906 C 0.976562 8.230469 1.199219 7.628906 1.574219 7.027344 C 1.949219 6.503906 2.699219 5.980469 3.226562 5.453125 C 3.675781 4.929688 4.125 4.554688 4.648438 4.105469 C 5.101562 3.652344 5.476562 3.203125 6.074219 2.828125 C 6.824219 2.378906 7.800781 1.929688 8.773438 1.554688 C 9.75 1.179688 11.023438 0.578125 12 0.578125 C 12.824219 0.503906 13.726562 0.804688 14.175781 1.105469 C 14.476562 1.328125 14.476562 1.777344 14.773438 1.855469 C 15.148438 2.078125 15.75 1.855469 16.273438 1.855469 C 16.875 1.929688 17.699219 1.628906 18.226562 1.929688 C 18.824219 2.152344 19.5 3.054688 19.726562 3.730469 C 19.875 4.253906 19.726562 4.929688 19.648438 5.527344 C 19.648438 6.128906 19.648438 6.652344 19.574219 7.179688 C 19.5 7.703125 19.5 8.378906 19.273438 8.753906 C 19.050781 9.128906 18.449219 9.277344 18.300781 9.652344 C 18.148438 10.027344 18.300781 10.480469 18.300781 10.929688 C 18.300781 11.453125 18.300781 12.054688 18.148438 12.578125 C 18.074219 13.105469 17.925781 13.628906 17.625 14.152344 C 17.324219 14.753906 16.648438 15.277344 16.199219 15.804688 C 15.75 16.253906 15.300781 16.777344 14.773438 17.003906 C 14.25 17.304688 13.648438 17.230469 13.050781 17.304688 C 12.449219 17.453125 12 17.453125 11.398438 17.605469 C 10.574219 17.828125 9.449219 18.277344 8.476562 18.429688 C 7.726562 18.503906 6.976562 18.429688 6.300781 18.355469 C 5.699219 18.277344 5.25 18.355469 4.800781 18.128906 C 4.273438 17.828125 3.898438 17.230469 3.375 16.777344 C 2.773438 16.253906 1.875 15.878906 1.351562 15.203125 C 0.824219 14.453125 0.449219 12.429688 0.449219 12.429688 M 4.726562 12.652344 C 6.226562 12.730469 6.148438 12.730469 6.148438 12.652344 C 6 12.429688 5.851562 10.105469 5.851562 9.878906 C 5.773438 9.804688 5.175781 10.703125 4.949219 11.152344 C 4.800781 11.605469 4.726562 12.652344 4.726562 12.652344 M 10.199219 9.578125 C 12.148438 10.105469 12.375 10.179688 12.601562 10.105469 C 12.976562 9.878906 13.574219 8.980469 13.800781 8.378906 C 14.023438 7.855469 14.023438 7.179688 13.949219 6.804688 C 13.949219 6.578125 13.949219 6.355469 13.800781 6.203125 C 13.648438 6.128906 13.273438 6.277344 12.976562 6.277344 C 12.523438 6.277344 11.699219 6.128906 11.550781 6.277344 C 11.476562 6.355469 11.476562 6.429688 11.476562 6.578125 C 11.476562 6.652344 11.398438 6.804688 11.324219 6.878906 C 11.25 6.953125 11.101562 7.179688 11.101562 7.179688 C 11.101562 7.179688 10.5 7.628906 10.351562 7.929688 C 10.125 8.378906 10.199219 9.578125 10.199219 9.578125 M 10.199219 12.277344 C 10.5 12.578125 10.574219 12.503906 10.574219 12.429688 C 10.574219 12.355469 10.199219 12.277344 10.199219 12.277344 " clip-rule="nonzero"/></clipPath><clipPath id="8546368b9d"><rect x="0" width="20" y="0" height="19"/></clipPath><clipPath id="9187faabcf"><path d="M 284.257812 348.007812 L 301.867188 348.007812 L 301.867188 366.992188 L 284.257812 366.992188 Z M 284.257812 348.007812 " clip-rule="nonzero"/></clipPath><clipPath id="84542a83eb"><path d="M 284.324219 360.976562 C 284.476562 357.976562 284.773438 357.375 285.074219 356.851562 C 285.375 356.398438 285.824219 356.023438 286.199219 355.574219 C 286.648438 355.050781 287.023438 354.300781 287.476562 353.851562 C 287.851562 353.550781 288.300781 353.476562 288.523438 353.25 C 288.75 353.101562 288.824219 352.875 288.976562 352.726562 C 289.125 352.648438 289.351562 352.5 289.351562 352.425781 C 289.5 352.199219 290.625 350.699219 291.375 350.101562 C 292.050781 349.5 292.949219 349.199219 293.699219 348.824219 C 294.449219 348.523438 295.050781 348 295.726562 348.074219 C 296.550781 348.148438 297.675781 348.976562 298.351562 349.574219 C 298.949219 350.101562 299.324219 350.773438 299.773438 351.375 C 300.148438 351.976562 300.449219 352.5 300.75 353.175781 C 301.050781 353.925781 301.726562 355.125 301.648438 355.800781 C 301.574219 356.175781 301.050781 356.398438 300.976562 356.773438 C 300.976562 357.300781 301.648438 358.050781 301.726562 358.648438 C 301.875 359.25 301.726562 359.851562 301.648438 360.449219 C 301.648438 361.273438 301.574219 362.25 301.351562 362.925781 C 301.125 363.601562 300.824219 364.199219 300.449219 364.648438 C 300 365.175781 299.25 365.550781 298.726562 365.851562 C 298.273438 366.226562 297.824219 366.523438 297.300781 366.675781 C 296.699219 366.898438 295.875 366.976562 295.273438 366.898438 C 294.675781 366.898438 294.148438 366.75 293.699219 366.449219 C 293.101562 366.148438 292.5 365.398438 292.125 365.101562 C 291.976562 364.875 291.898438 364.726562 291.75 364.648438 C 291.675781 364.648438 291.675781 364.726562 291.449219 364.800781 C 291 364.875 289.050781 365.550781 288.148438 365.324219 C 287.476562 365.101562 287.101562 364.125 286.574219 363.675781 C 286.199219 363.300781 285.75 363.226562 285.375 362.851562 C 284.925781 362.398438 284.324219 360.976562 284.324219 360.976562 M 287.625 360.675781 C 287.925781 361.800781 288.523438 362.625 288.976562 362.699219 C 289.351562 362.773438 290.101562 362.25 290.175781 362.101562 C 290.175781 362.023438 290.101562 362.023438 290.023438 361.949219 C 289.800781 361.726562 288.601562 361.425781 288.148438 361.125 C 287.925781 360.976562 287.625 360.675781 287.625 360.675781 M 291.75 354.601562 C 292.050781 354.523438 292.199219 354.375 292.425781 354.226562 C 292.726562 354 293.773438 353.699219 293.699219 353.550781 C 293.699219 353.476562 293.175781 353.476562 293.023438 353.476562 C 292.949219 353.550781 292.949219 353.550781 292.875 353.625 C 292.800781 353.625 292.800781 353.699219 292.726562 353.773438 C 292.574219 353.925781 291.75 354.601562 291.75 354.601562 M 294.976562 363.449219 C 295.425781 363.898438 297.226562 363.601562 297.75 363.074219 C 298.351562 362.476562 298.800781 360.523438 298.648438 360.449219 C 298.425781 360.300781 297.523438 361.875 296.851562 362.324219 C 296.25 362.851562 294.976562 363.449219 294.976562 363.449219 " clip-rule="nonzero"/></clipPath><clipPath id="09610dab30"><path d="M 0.257812 0.0078125 L 17.867188 0.0078125 L 17.867188 18.992188 L 0.257812 18.992188 Z M 0.257812 0.0078125 " clip-rule="nonzero"/></clipPath><clipPath id="32620f0501"><path d="M 0.324219 12.976562 C 0.476562 9.976562 0.773438 9.375 1.074219 8.851562 C 1.375 8.398438 1.824219 8.023438 2.199219 7.574219 C 2.648438 7.050781 3.023438 6.300781 3.476562 5.851562 C 3.851562 5.550781 4.300781 5.476562 4.523438 5.25 C 4.75 5.101562 4.824219 4.875 4.976562 4.726562 C 5.125 4.648438 5.351562 4.5 5.351562 4.425781 C 5.5 4.199219 6.625 2.699219 7.375 2.101562 C 8.050781 1.5 8.949219 1.199219 9.699219 0.824219 C 10.449219 0.523438 11.050781 0 11.726562 0.0742188 C 12.550781 0.148438 13.675781 0.976562 14.351562 1.574219 C 14.949219 2.101562 15.324219 2.773438 15.773438 3.375 C 16.148438 3.976562 16.449219 4.5 16.75 5.175781 C 17.050781 5.925781 17.726562 7.125 17.648438 7.800781 C 17.574219 8.175781 17.050781 8.398438 16.976562 8.773438 C 16.976562 9.300781 17.648438 10.050781 17.726562 10.648438 C 17.875 11.25 17.726562 11.851562 17.648438 12.449219 C 17.648438 13.273438 17.574219 14.25 17.351562 14.925781 C 17.125 15.601562 16.824219 16.199219 16.449219 16.648438 C 16 17.175781 15.25 17.550781 14.726562 17.851562 C 14.273438 18.226562 13.824219 18.523438 13.300781 18.675781 C 12.699219 18.898438 11.875 18.976562 11.273438 18.898438 C 10.675781 18.898438 10.148438 18.75 9.699219 18.449219 C 9.101562 18.148438 8.5 17.398438 8.125 17.101562 C 7.976562 16.875 7.898438 16.726562 7.75 16.648438 C 7.675781 16.648438 7.675781 16.726562 7.449219 16.800781 C 7 16.875 5.050781 17.550781 4.148438 17.324219 C 3.476562 17.101562 3.101562 16.125 2.574219 15.675781 C 2.199219 15.300781 1.75 15.226562 1.375 14.851562 C 0.925781 14.398438 0.324219 12.976562 0.324219 12.976562 M 3.625 12.675781 C 3.925781 13.800781 4.523438 14.625 4.976562 14.699219 C 5.351562 14.773438 6.101562 14.25 6.175781 14.101562 C 6.175781 14.023438 6.101562 14.023438 6.023438 13.949219 C 5.800781 13.726562 4.601562 13.425781 4.148438 13.125 C 3.925781 12.976562 3.625 12.675781 3.625 12.675781 M 7.75 6.601562 C 8.050781 6.523438 8.199219 6.375 8.425781 6.226562 C 8.726562 6 9.773438 5.699219 9.699219 5.550781 C 9.699219 5.476562 9.175781 5.476562 9.023438 5.476562 C 8.949219 5.550781 8.949219 5.550781 8.875 5.625 C 8.800781 5.625 8.800781 5.699219 8.726562 5.773438 C 8.574219 5.925781 7.75 6.601562 7.75 6.601562 M 10.976562 15.449219 C 11.425781 15.898438 13.226562 15.601562 13.75 15.074219 C 14.351562 14.476562 14.800781 12.523438 14.648438 12.449219 C 14.425781 12.300781 13.523438 13.875 12.851562 14.324219 C 12.25 14.851562 10.976562 15.449219 10.976562 15.449219 " clip-rule="nonzero"/></clipPath><clipPath id="784f196e82"><rect x="0" width="18" y="0" height="19"/></clipPath><clipPath id="8ebd747701"><rect x="0" width="23" y="0" height="23"/></clipPath><clipPath id="adaeed29ba"><path d="M 1 0.304688 L 23.53125 0.304688 L 23.53125 21.3125 L 1 21.3125 Z M 1 0.304688 " clip-rule="nonzero"/></clipPath><clipPath id="7d1218a35e"><rect x="0" width="24" y="0" height="22"/></clipPath><clipPath id="7440e87892"><path d="M 171.589844 209.34375 L 636.707031 209.34375 L 636.707031 216 L 171.589844 216 Z M 171.589844 209.34375 " clip-rule="nonzero"/></clipPath><clipPath id="9259b3d772"><path d="M 173.101562 209.355469 C 636.300781 209.878906 636.675781 210.402344 636.675781 210.929688 C 636.675781 211.453125 635.550781 212.277344 635.023438 212.355469 C 634.574219 212.355469 634.050781 211.902344 633.824219 211.527344 C 633.675781 211.078125 633.824219 210.105469 634.125 209.730469 C 634.5 209.429688 635.550781 209.355469 635.925781 209.578125 C 636.300781 209.730469 636.75 210.328125 636.675781 210.777344 C 636.601562 211.304688 636.300781 211.828125 635.175781 212.355469 C 618.449219 219.554688 189.675781 218.652344 173.101562 212.355469 C 171.976562 211.902344 171.601562 211.527344 171.601562 211.003906 C 171.601562 210.554688 173.101562 209.355469 173.101562 209.355469 " clip-rule="nonzero"/></clipPath><clipPath id="c746b971f1"><path d="M 0.601562 0.34375 L 465.707031 0.34375 L 465.707031 6.519531 L 0.601562 6.519531 Z M 0.601562 0.34375 " clip-rule="nonzero"/></clipPath><clipPath id="6d6128e102"><path d="M 2.101562 0.355469 C 465.300781 0.878906 465.675781 1.402344 465.675781 1.929688 C 465.675781 2.453125 464.550781 3.277344 464.023438 3.355469 C 463.574219 3.355469 463.050781 2.902344 462.824219 2.527344 C 462.675781 2.078125 462.824219 1.105469 463.125 0.730469 C 463.5 0.429688 464.550781 0.355469 464.925781 0.578125 C 465.300781 0.730469 465.75 1.328125 465.675781 1.777344 C 465.601562 2.304688 465.300781 2.828125 464.175781 3.355469 C 447.449219 10.554688 18.675781 9.652344 2.101562 3.355469 C 0.976562 2.902344 0.601562 2.527344 0.601562 2.003906 C 0.601562 1.554688 2.101562 0.355469 2.101562 0.355469 " clip-rule="nonzero"/></clipPath><clipPath id="9675d5e7ec"><rect x="0" width="466" y="0" height="7"/></clipPath><clipPath id="62c173581b"><path d="M 168.851562 197.078125 L 196.410156 197.078125 L 196.410156 211.054688 L 168.851562 211.054688 Z M 168.851562 197.078125 " clip-rule="nonzero"/></clipPath><clipPath id="9a12705a3e"><path d="M 169.875 208.078125 C 185.175781 202.453125 192.226562 196.902344 194.625 197.128906 C 195.449219 197.203125 196.199219 197.953125 196.351562 198.480469 C 196.425781 198.929688 195.824219 199.902344 195.375 199.980469 C 194.925781 200.128906 193.648438 199.527344 193.425781 199.078125 C 193.199219 198.703125 193.425781 198.027344 193.648438 197.730469 C 193.875 197.355469 194.476562 197.054688 194.925781 197.128906 C 195.375 197.203125 196.199219 197.804688 196.273438 198.253906 C 196.425781 198.777344 196.125 199.304688 195.523438 199.902344 C 193.648438 201.929688 183.898438 206.355469 179.175781 208.230469 C 175.949219 209.578125 172.199219 211.304688 170.476562 211.003906 C 169.726562 210.855469 168.976562 210.253906 168.898438 209.804688 C 168.824219 209.277344 169.875 208.078125 169.875 208.078125 " clip-rule="nonzero"/></clipPath><clipPath id="a1d938110b"><path d="M 0.851562 0.078125 L 28.410156 0.078125 L 28.410156 14.054688 L 0.851562 14.054688 Z M 0.851562 0.078125 " clip-rule="nonzero"/></clipPath><clipPath id="7ff93d5f7a"><path d="M 1.875 11.078125 C 17.175781 5.453125 24.226562 -0.0976562 26.625 0.128906 C 27.449219 0.203125 28.199219 0.953125 28.351562 1.480469 C 28.425781 1.929688 27.824219 2.902344 27.375 2.980469 C 26.925781 3.128906 25.648438 2.527344 25.425781 2.078125 C 25.199219 1.703125 25.425781 1.027344 25.648438 0.730469 C 25.875 0.355469 26.476562 0.0546875 26.925781 0.128906 C 27.375 0.203125 28.199219 0.804688 28.273438 1.253906 C 28.425781 1.777344 28.125 2.304688 27.523438 2.902344 C 25.648438 4.929688 15.898438 9.355469 11.175781 11.230469 C 7.949219 12.578125 4.199219 14.304688 2.476562 14.003906 C 1.726562 13.855469 0.976562 13.253906 0.898438 12.804688 C 0.824219 12.277344 1.875 11.078125 1.875 11.078125 " clip-rule="nonzero"/></clipPath><clipPath id="b87c59b5f3"><rect x="0" width="29" y="0" height="15"/></clipPath><clipPath id="d899213e87"><path d="M 164.679688 210.703125 L 197.773438 210.703125 L 197.773438 228.703125 L 164.679688 228.703125 Z M 164.679688 210.703125 " clip-rule="nonzero"/></clipPath><clipPath id="7b84fa9900"><path d="M 166.273438 210.703125 C 170.925781 211.003906 172.574219 212.429688 174 212.804688 C 175.199219 213.179688 176.101562 212.878906 177.449219 213.328125 C 179.550781 213.929688 182.476562 215.429688 185.324219 217.152344 C 188.925781 219.402344 195.976562 224.277344 197.25 226.078125 C 197.625 226.679688 197.773438 227.054688 197.699219 227.429688 C 197.550781 227.878906 196.800781 228.554688 196.351562 228.628906 C 195.898438 228.703125 195.300781 228.402344 195 228.105469 C 194.773438 227.804688 194.550781 227.054688 194.773438 226.753906 C 195 226.230469 196.273438 225.554688 196.726562 225.777344 C 197.175781 225.929688 197.773438 227.277344 197.550781 227.730469 C 197.398438 228.179688 196.425781 228.628906 195.523438 228.480469 C 193.050781 228.105469 187.5 221.578125 183.074219 219.027344 C 178.800781 216.628906 172.574219 214.378906 169.425781 213.703125 C 167.773438 213.328125 166.351562 214.003906 165.601562 213.554688 C 165.074219 213.253906 164.699219 212.503906 164.773438 212.054688 C 164.925781 211.527344 166.273438 210.703125 166.273438 210.703125 " clip-rule="nonzero"/></clipPath><clipPath id="9e30d34736"><path d="M 0.679688 0.703125 L 33.773438 0.703125 L 33.773438 18.703125 L 0.679688 18.703125 Z M 0.679688 0.703125 " clip-rule="nonzero"/></clipPath><clipPath id="4261c3b28e"><path d="M 2.273438 0.703125 C 6.925781 1.003906 8.574219 2.429688 10 2.804688 C 11.199219 3.179688 12.101562 2.878906 13.449219 3.328125 C 15.550781 3.929688 18.476562 5.429688 21.324219 7.152344 C 24.925781 9.402344 31.976562 14.277344 33.25 16.078125 C 33.625 16.679688 33.773438 17.054688 33.699219 17.429688 C 33.550781 17.878906 32.800781 18.554688 32.351562 18.628906 C 31.898438 18.703125 31.300781 18.402344 31 18.105469 C 30.773438 17.804688 30.550781 17.054688 30.773438 16.753906 C 31 16.230469 32.273438 15.554688 32.726562 15.777344 C 33.175781 15.929688 33.773438 17.277344 33.550781 17.730469 C 33.398438 18.179688 32.425781 18.628906 31.523438 18.480469 C 29.050781 18.105469 23.5 11.578125 19.074219 9.027344 C 14.800781 6.628906 8.574219 4.378906 5.425781 3.703125 C 3.773438 3.328125 2.351562 4.003906 1.601562 3.554688 C 1.074219 3.253906 0.699219 2.503906 0.773438 2.054688 C 0.925781 1.527344 2.273438 0.703125 2.273438 0.703125 " clip-rule="nonzero"/></clipPath><clipPath id="aae5a61bfd"><rect x="0" width="34" y="0" height="19"/></clipPath><clipPath id="1429debe42"><path d="M 601 195.707031 L 634 195.707031 L 634 209.574219 L 601 209.574219 Z M 601 195.707031 " clip-rule="nonzero"/></clipPath><clipPath id="a52e6eb9d9"><path d="M 631.800781 209.503906 C 620.398438 205.605469 619.949219 205.980469 618.523438 205.605469 C 615.148438 204.777344 603.824219 200.503906 601.875 198.628906 C 601.273438 198.027344 600.976562 197.429688 601.125 196.980469 C 601.199219 196.453125 602.476562 195.703125 602.925781 195.777344 C 603.449219 195.929688 604.125 197.277344 603.976562 197.730469 C 603.824219 198.179688 602.550781 198.777344 602.023438 198.628906 C 601.574219 198.554688 600.976562 197.578125 601.050781 197.128906 C 601.125 196.605469 601.875 195.929688 602.773438 195.777344 C 605.398438 195.402344 613.800781 200.953125 618.898438 202.679688 C 623.324219 204.179688 629.101562 204.777344 631.574219 205.980469 C 632.773438 206.578125 633.75 207.253906 633.976562 207.929688 C 634.050781 208.378906 633.824219 208.980469 633.449219 209.203125 C 633.148438 209.503906 631.800781 209.503906 631.800781 209.503906 " clip-rule="nonzero"/></clipPath><clipPath id="e63ecdea58"><path d="M 0 0.707031 L 33 0.707031 L 33 14.519531 L 0 14.519531 Z M 0 0.707031 " clip-rule="nonzero"/></clipPath><clipPath id="6b51015e64"><path d="M 30.800781 14.503906 C 19.398438 10.605469 18.949219 10.980469 17.523438 10.605469 C 14.148438 9.777344 2.824219 5.503906 0.875 3.628906 C 0.273438 3.027344 -0.0234375 2.429688 0.125 1.980469 C 0.199219 1.453125 1.476562 0.703125 1.925781 0.777344 C 2.449219 0.929688 3.125 2.277344 2.976562 2.730469 C 2.824219 3.179688 1.550781 3.777344 1.023438 3.628906 C 0.574219 3.554688 -0.0234375 2.578125 0.0507812 2.128906 C 0.125 1.605469 0.875 0.929688 1.773438 0.777344 C 4.398438 0.402344 12.800781 5.953125 17.898438 7.679688 C 22.324219 9.179688 28.101562 9.777344 30.574219 10.980469 C 31.773438 11.578125 32.75 12.253906 32.976562 12.929688 C 33.050781 13.378906 32.824219 13.980469 32.449219 14.203125 C 32.148438 14.503906 30.800781 14.503906 30.800781 14.503906 " clip-rule="nonzero"/></clipPath><clipPath id="523d28155b"><rect x="0" width="33" y="0" height="15"/></clipPath><clipPath id="2c81802f53"><path d="M 610.550781 209.429688 L 637.9375 209.429688 L 637.9375 235.453125 L 610.550781 235.453125 Z M 610.550781 209.429688 " clip-rule="nonzero"/></clipPath><clipPath id="8941fcc4ad"><path d="M 637.574219 211.902344 C 616.574219 230.277344 614.476562 234.554688 612.824219 235.230469 C 612.148438 235.527344 611.324219 235.378906 611.023438 235.003906 C 610.726562 234.628906 610.648438 233.203125 611.023438 232.828125 C 611.398438 232.527344 612.898438 232.605469 613.199219 232.980469 C 613.574219 233.355469 613.351562 234.855469 612.976562 235.152344 C 612.601562 235.453125 611.550781 235.378906 611.175781 235.152344 C 610.800781 234.929688 610.574219 234.402344 610.574219 233.878906 C 610.648438 232.753906 611.773438 231.179688 613.351562 229.304688 C 617.101562 224.804688 632.25 210.554688 635.773438 209.578125 C 636.675781 209.277344 637.425781 209.503906 637.726562 209.953125 C 638.023438 210.328125 637.574219 211.902344 637.574219 211.902344 " clip-rule="nonzero"/></clipPath><clipPath id="11f91f04b4"><path d="M 0.558594 0.429688 L 27.9375 0.429688 L 27.9375 26.453125 L 0.558594 26.453125 Z M 0.558594 0.429688 " clip-rule="nonzero"/></clipPath><clipPath id="4980957996"><path d="M 27.574219 2.902344 C 6.574219 21.277344 4.476562 25.554688 2.824219 26.230469 C 2.148438 26.527344 1.324219 26.378906 1.023438 26.003906 C 0.726562 25.628906 0.648438 24.203125 1.023438 23.828125 C 1.398438 23.527344 2.898438 23.605469 3.199219 23.980469 C 3.574219 24.355469 3.351562 25.855469 2.976562 26.152344 C 2.601562 26.453125 1.550781 26.378906 1.175781 26.152344 C 0.800781 25.929688 0.574219 25.402344 0.574219 24.878906 C 0.648438 23.753906 1.773438 22.179688 3.351562 20.304688 C 7.101562 15.804688 22.25 1.554688 25.773438 0.578125 C 26.675781 0.277344 27.425781 0.503906 27.726562 0.953125 C 28.023438 1.328125 27.574219 2.902344 27.574219 2.902344 " clip-rule="nonzero"/></clipPath><clipPath id="39ff4a6cb8"><rect x="0" width="28" y="0" height="27"/></clipPath><clipPath id="fd2e080041"><path d="M 529.390625 201.789062 L 548.828125 201.789062 L 548.828125 219.824219 L 529.390625 219.824219 Z M 529.390625 201.789062 " clip-rule="nonzero"/></clipPath><clipPath id="2c10499f33"><path d="M 529.398438 213.742188 C 529.550781 211.117188 529.625 210.589844 529.773438 210.066406 C 529.925781 209.542969 530.148438 208.941406 530.523438 208.339844 C 530.898438 207.816406 531.648438 207.292969 532.175781 206.765625 C 532.625 206.242188 533.074219 205.867188 533.601562 205.417969 C 534.050781 204.964844 534.425781 204.515625 535.023438 204.140625 C 535.773438 203.691406 536.75 203.242188 537.726562 202.867188 C 538.699219 202.492188 539.976562 201.890625 540.949219 201.890625 C 541.773438 201.816406 542.675781 202.117188 543.125 202.417969 C 543.425781 202.640625 543.425781 203.089844 543.726562 203.167969 C 544.101562 203.390625 544.699219 203.167969 545.226562 203.167969 C 545.824219 203.242188 546.648438 202.941406 547.175781 203.242188 C 547.773438 203.464844 548.449219 204.367188 548.675781 205.042969 C 548.824219 205.566406 548.675781 206.242188 548.601562 206.839844 C 548.601562 207.441406 548.601562 207.964844 548.523438 208.492188 C 548.449219 209.015625 548.449219 209.691406 548.226562 210.066406 C 548 210.441406 547.398438 210.589844 547.25 210.964844 C 547.101562 211.339844 547.25 211.792969 547.25 212.242188 C 547.25 212.765625 547.25 213.367188 547.101562 213.890625 C 547.023438 214.417969 546.875 214.941406 546.574219 215.464844 C 546.273438 216.066406 545.601562 216.589844 545.148438 217.117188 C 544.699219 217.566406 544.25 218.089844 543.726562 218.316406 C 543.199219 218.617188 542.601562 218.542969 542 218.617188 C 541.398438 218.765625 540.949219 218.765625 540.351562 218.917969 C 539.523438 219.140625 538.398438 219.589844 537.425781 219.742188 C 536.675781 219.816406 535.925781 219.742188 535.25 219.667969 C 534.648438 219.589844 534.199219 219.667969 533.75 219.441406 C 533.226562 219.140625 532.851562 218.542969 532.324219 218.089844 C 531.726562 217.566406 530.824219 217.191406 530.300781 216.515625 C 529.773438 215.765625 529.398438 213.742188 529.398438 213.742188 M 533.675781 213.964844 C 535.175781 214.042969 535.101562 214.042969 535.101562 213.964844 C 534.949219 213.742188 534.800781 211.417969 534.800781 211.191406 C 534.726562 211.117188 534.125 212.015625 533.898438 212.464844 C 533.75 212.917969 533.675781 213.964844 533.675781 213.964844 M 539.148438 210.890625 C 541.101562 211.417969 541.324219 211.492188 541.550781 211.417969 C 541.925781 211.191406 542.523438 210.292969 542.75 209.691406 C 542.976562 209.167969 542.976562 208.492188 542.898438 208.117188 C 542.898438 207.890625 542.898438 207.667969 542.75 207.515625 C 542.601562 207.441406 542.226562 207.589844 541.925781 207.589844 C 541.476562 207.589844 540.648438 207.441406 540.5 207.589844 C 540.425781 207.667969 540.425781 207.742188 540.425781 207.890625 C 540.425781 207.964844 540.351562 208.117188 540.273438 208.191406 C 540.199219 208.265625 540.050781 208.492188 540.050781 208.492188 C 540.050781 208.492188 539.449219 208.941406 539.300781 209.242188 C 539.074219 209.691406 539.148438 210.890625 539.148438 210.890625 M 539.148438 213.589844 C 539.449219 213.890625 539.523438 213.816406 539.523438 213.742188 C 539.523438 213.667969 539.148438 213.589844 539.148438 213.589844 " clip-rule="nonzero"/></clipPath><clipPath id="a6d6de9a0e"><path d="M 0.390625 0.789062 L 19.828125 0.789062 L 19.828125 18.824219 L 0.390625 18.824219 Z M 0.390625 0.789062 " clip-rule="nonzero"/></clipPath><clipPath id="3de2c85fc3"><path d="M 0.398438 12.742188 C 0.550781 10.117188 0.625 9.589844 0.773438 9.066406 C 0.925781 8.542969 1.148438 7.941406 1.523438 7.339844 C 1.898438 6.816406 2.648438 6.292969 3.175781 5.765625 C 3.625 5.242188 4.074219 4.867188 4.601562 4.417969 C 5.050781 3.964844 5.425781 3.515625 6.023438 3.140625 C 6.773438 2.691406 7.75 2.242188 8.726562 1.867188 C 9.699219 1.492188 10.976562 0.890625 11.949219 0.890625 C 12.773438 0.816406 13.675781 1.117188 14.125 1.417969 C 14.425781 1.640625 14.425781 2.089844 14.726562 2.167969 C 15.101562 2.390625 15.699219 2.167969 16.226562 2.167969 C 16.824219 2.242188 17.648438 1.941406 18.175781 2.242188 C 18.773438 2.464844 19.449219 3.367188 19.675781 4.042969 C 19.824219 4.566406 19.675781 5.242188 19.601562 5.839844 C 19.601562 6.441406 19.601562 6.964844 19.523438 7.492188 C 19.449219 8.015625 19.449219 8.691406 19.226562 9.066406 C 19 9.441406 18.398438 9.589844 18.25 9.964844 C 18.101562 10.339844 18.25 10.792969 18.25 11.242188 C 18.25 11.765625 18.25 12.367188 18.101562 12.890625 C 18.023438 13.417969 17.875 13.941406 17.574219 14.464844 C 17.273438 15.066406 16.601562 15.589844 16.148438 16.117188 C 15.699219 16.566406 15.25 17.089844 14.726562 17.316406 C 14.199219 17.617188 13.601562 17.542969 13 17.617188 C 12.398438 17.765625 11.949219 17.765625 11.351562 17.917969 C 10.523438 18.140625 9.398438 18.589844 8.425781 18.742188 C 7.675781 18.816406 6.925781 18.742188 6.25 18.667969 C 5.648438 18.589844 5.199219 18.667969 4.75 18.441406 C 4.226562 18.140625 3.851562 17.542969 3.324219 17.089844 C 2.726562 16.566406 1.824219 16.191406 1.300781 15.515625 C 0.773438 14.765625 0.398438 12.742188 0.398438 12.742188 M 4.675781 12.964844 C 6.175781 13.042969 6.101562 13.042969 6.101562 12.964844 C 5.949219 12.742188 5.800781 10.417969 5.800781 10.191406 C 5.726562 10.117188 5.125 11.015625 4.898438 11.464844 C 4.75 11.917969 4.675781 12.964844 4.675781 12.964844 M 10.148438 9.890625 C 12.101562 10.417969 12.324219 10.492188 12.550781 10.417969 C 12.925781 10.191406 13.523438 9.292969 13.75 8.691406 C 13.976562 8.167969 13.976562 7.492188 13.898438 7.117188 C 13.898438 6.890625 13.898438 6.667969 13.75 6.515625 C 13.601562 6.441406 13.226562 6.589844 12.925781 6.589844 C 12.476562 6.589844 11.648438 6.441406 11.5 6.589844 C 11.425781 6.667969 11.425781 6.742188 11.425781 6.890625 C 11.425781 6.964844 11.351562 7.117188 11.273438 7.191406 C 11.199219 7.265625 11.050781 7.492188 11.050781 7.492188 C 11.050781 7.492188 10.449219 7.941406 10.300781 8.242188 C 10.074219 8.691406 10.148438 9.890625 10.148438 9.890625 M 10.148438 12.589844 C 10.449219 12.890625 10.523438 12.816406 10.523438 12.742188 C 10.523438 12.667969 10.148438 12.589844 10.148438 12.589844 " clip-rule="nonzero"/></clipPath><clipPath id="9164a794af"><rect x="0" width="20" y="0" height="19"/></clipPath><clipPath id="b63db3b06f"><path d="M 280.507812 202.320312 L 298.117188 202.320312 L 298.117188 221.304688 L 280.507812 221.304688 Z M 280.507812 202.320312 " clip-rule="nonzero"/></clipPath><clipPath id="2ca4959525"><path d="M 280.574219 215.289062 C 280.726562 212.289062 281.023438 211.6875 281.324219 211.164062 C 281.625 210.710938 282.074219 210.335938 282.449219 209.886719 C 282.898438 209.363281 283.273438 208.613281 283.726562 208.164062 C 284.101562 207.863281 284.550781 207.789062 284.773438 207.5625 C 285 207.414062 285.074219 207.1875 285.226562 207.039062 C 285.375 206.960938 285.601562 206.8125 285.601562 206.738281 C 285.75 206.511719 286.875 205.011719 287.625 204.414062 C 288.300781 203.8125 289.199219 203.511719 289.949219 203.136719 C 290.699219 202.835938 291.300781 202.3125 291.976562 202.386719 C 292.800781 202.460938 293.925781 203.289062 294.601562 203.886719 C 295.199219 204.414062 295.574219 205.085938 296.023438 205.6875 C 296.398438 206.289062 296.699219 206.8125 297 207.488281 C 297.300781 208.238281 297.976562 209.4375 297.898438 210.113281 C 297.824219 210.488281 297.300781 210.710938 297.226562 211.085938 C 297.226562 211.613281 297.898438 212.363281 297.976562 212.960938 C 298.125 213.5625 297.976562 214.164062 297.898438 214.761719 C 297.898438 215.585938 297.824219 216.5625 297.601562 217.238281 C 297.375 217.914062 297.074219 218.511719 296.699219 218.960938 C 296.25 219.488281 295.5 219.863281 294.976562 220.164062 C 294.523438 220.539062 294.074219 220.835938 293.550781 220.988281 C 292.949219 221.210938 292.125 221.289062 291.523438 221.210938 C 290.925781 221.210938 290.398438 221.0625 289.949219 220.761719 C 289.351562 220.460938 288.75 219.710938 288.375 219.414062 C 288.226562 219.1875 288.148438 219.039062 288 218.960938 C 287.925781 218.960938 287.925781 219.039062 287.699219 219.113281 C 287.25 219.1875 285.300781 219.863281 284.398438 219.636719 C 283.726562 219.414062 283.351562 218.4375 282.824219 217.988281 C 282.449219 217.613281 282 217.539062 281.625 217.164062 C 281.175781 216.710938 280.574219 215.289062 280.574219 215.289062 M 283.875 214.988281 C 284.175781 216.113281 284.773438 216.9375 285.226562 217.011719 C 285.601562 217.085938 286.351562 216.5625 286.425781 216.414062 C 286.425781 216.335938 286.351562 216.335938 286.273438 216.261719 C 286.050781 216.039062 284.851562 215.738281 284.398438 215.4375 C 284.175781 215.289062 283.875 214.988281 283.875 214.988281 M 288 208.914062 C 288.300781 208.835938 288.449219 208.6875 288.675781 208.539062 C 288.976562 208.3125 290.023438 208.011719 289.949219 207.863281 C 289.949219 207.789062 289.425781 207.789062 289.273438 207.789062 C 289.199219 207.863281 289.199219 207.863281 289.125 207.9375 C 289.050781 207.9375 289.050781 208.011719 288.976562 208.085938 C 288.824219 208.238281 288 208.914062 288 208.914062 M 291.226562 217.761719 C 291.675781 218.210938 293.476562 217.914062 294 217.386719 C 294.601562 216.789062 295.050781 214.835938 294.898438 214.761719 C 294.675781 214.613281 293.773438 216.1875 293.101562 216.636719 C 292.5 217.164062 291.226562 217.761719 291.226562 217.761719 " clip-rule="nonzero"/></clipPath><clipPath id="2afb8b1273"><path d="M 0.558594 0.320312 L 18.117188 0.320312 L 18.117188 19.304688 L 0.558594 19.304688 Z M 0.558594 0.320312 " clip-rule="nonzero"/></clipPath><clipPath id="2b416de310"><path d="M 0.574219 13.289062 C 0.726562 10.289062 1.023438 9.6875 1.324219 9.164062 C 1.625 8.710938 2.074219 8.335938 2.449219 7.886719 C 2.898438 7.363281 3.273438 6.613281 3.726562 6.164062 C 4.101562 5.863281 4.550781 5.789062 4.773438 5.5625 C 5 5.414062 5.074219 5.1875 5.226562 5.039062 C 5.375 4.960938 5.601562 4.8125 5.601562 4.738281 C 5.75 4.511719 6.875 3.011719 7.625 2.414062 C 8.300781 1.8125 9.199219 1.511719 9.949219 1.136719 C 10.699219 0.835938 11.300781 0.3125 11.976562 0.386719 C 12.800781 0.460938 13.925781 1.289062 14.601562 1.886719 C 15.199219 2.414062 15.574219 3.085938 16.023438 3.6875 C 16.398438 4.289062 16.699219 4.8125 17 5.488281 C 17.300781 6.238281 17.976562 7.4375 17.898438 8.113281 C 17.824219 8.488281 17.300781 8.710938 17.226562 9.085938 C 17.226562 9.613281 17.898438 10.363281 17.976562 10.960938 C 18.125 11.5625 17.976562 12.164062 17.898438 12.761719 C 17.898438 13.585938 17.824219 14.5625 17.601562 15.238281 C 17.375 15.914062 17.074219 16.511719 16.699219 16.960938 C 16.25 17.488281 15.5 17.863281 14.976562 18.164062 C 14.523438 18.539062 14.074219 18.835938 13.550781 18.988281 C 12.949219 19.210938 12.125 19.289062 11.523438 19.210938 C 10.925781 19.210938 10.398438 19.0625 9.949219 18.761719 C 9.351562 18.460938 8.75 17.710938 8.375 17.414062 C 8.226562 17.1875 8.148438 17.039062 8 16.960938 C 7.925781 16.960938 7.925781 17.039062 7.699219 17.113281 C 7.25 17.1875 5.300781 17.863281 4.398438 17.636719 C 3.726562 17.414062 3.351562 16.4375 2.824219 15.988281 C 2.449219 15.613281 2 15.539062 1.625 15.164062 C 1.175781 14.710938 0.574219 13.289062 0.574219 13.289062 M 3.875 12.988281 C 4.175781 14.113281 4.773438 14.9375 5.226562 15.011719 C 5.601562 15.085938 6.351562 14.5625 6.425781 14.414062 C 6.425781 14.335938 6.351562 14.335938 6.273438 14.261719 C 6.050781 14.039062 4.851562 13.738281 4.398438 13.4375 C 4.175781 13.289062 3.875 12.988281 3.875 12.988281 M 8 6.914062 C 8.300781 6.835938 8.449219 6.6875 8.675781 6.539062 C 8.976562 6.3125 10.023438 6.011719 9.949219 5.863281 C 9.949219 5.789062 9.425781 5.789062 9.273438 5.789062 C 9.199219 5.863281 9.199219 5.863281 9.125 5.9375 C 9.050781 5.9375 9.050781 6.011719 8.976562 6.085938 C 8.824219 6.238281 8 6.914062 8 6.914062 M 11.226562 15.761719 C 11.675781 16.210938 13.476562 15.914062 14 15.386719 C 14.601562 14.789062 15.050781 12.835938 14.898438 12.761719 C 14.675781 12.613281 13.773438 14.1875 13.101562 14.636719 C 12.5 15.164062 11.226562 15.761719 11.226562 15.761719 " clip-rule="nonzero"/></clipPath><clipPath id="537ab130e9"><rect x="0" width="19" y="0" height="20"/></clipPath><clipPath id="dd6d3f4614"><path d="M 2 0.304688 L 22 0.304688 L 22 21.3125 L 2 21.3125 Z M 2 0.304688 " clip-rule="nonzero"/></clipPath><clipPath id="c8507b0454"><rect x="0" width="23" y="0" height="22"/></clipPath><clipPath id="ad254665f4"><path d="M 1 0.890625 L 17 0.890625 L 17 15 L 1 15 Z M 1 0.890625 " clip-rule="nonzero"/></clipPath><clipPath id="bd60966d6e"><path d="M 20 4 L 29 4 L 29 19.140625 L 20 19.140625 Z M 20 4 " clip-rule="nonzero"/></clipPath><clipPath id="3a7d1110d6"><rect x="0" width="32" y="0" height="20"/></clipPath><clipPath id="e1d4e9203f"><path d="M 1 0.578125 L 17 0.578125 L 17 15 L 1 15 Z M 1 0.578125 " clip-rule="nonzero"/></clipPath><clipPath id="e512d69ed8"><path d="M 20 4 L 29 4 L 29 18.828125 L 20 18.828125 Z M 20 4 " clip-rule="nonzero"/></clipPath><clipPath id="1a8a713bce"><rect x="0" width="32" y="0" height="20"/></clipPath><clipPath id="f6e98f5d75"><path d="M 2 1.023438 L 15 1.023438 L 15 22.242188 L 2 22.242188 Z M 2 1.023438 " clip-rule="nonzero"/></clipPath><clipPath id="f8bc2bd3d4"><rect x="0" width="17" y="0" height="23"/></clipPath><clipPath id="789867acef"><path d="M 1 0.578125 L 15 0.578125 L 15 21.800781 L 1 21.800781 Z M 1 0.578125 " clip-rule="nonzero"/></clipPath><clipPath id="75bb1ac67e"><rect x="0" width="16" y="0" height="22"/></clipPath></defs><g transform="matrix(1, 0, 0, 1, 204, 383)"><g clip-path="url(#c5777e215a)"><g clip-path="url(#2efd4b13b3)"><path fill="#000000" d="M 9.292969 2.683594 C 9.292969 2.539062 8.707031 2.445312 7.539062 2.40625 C 7.046875 2.40625 6.730469 2.394531 6.585938 2.375 C 6.441406 2.355469 6.371094 2.253906 6.371094 2.066406 C 6.371094 2.046875 6.390625 1.933594 6.433594 1.730469 C 6.554688 1.320312 6.648438 1.09375 6.710938 1.050781 C 6.769531 1.011719 8.761719 0.992188 12.675781 0.992188 C 16.574219 1.011719 18.65625 1.042969 18.921875 1.082031 C 20.234375 1.308594 21.332031 1.8125 22.210938 2.589844 C 23.09375 3.371094 23.546875 4.40625 23.566406 5.699219 C 23.566406 7.277344 22.890625 8.722656 21.535156 10.035156 C 20.121094 11.429688 18.296875 12.3125 16.058594 12.679688 C 15.917969 12.699219 14.839844 12.722656 12.832031 12.742188 L 9.910156 12.742188 L 8.984375 16.402344 C 8.371094 18.78125 8.0625 20.042969 8.0625 20.183594 C 8.0625 20.265625 8.074219 20.320312 8.09375 20.339844 C 8.113281 20.359375 8.1875 20.402344 8.308594 20.460938 C 8.433594 20.523438 8.605469 20.542969 8.832031 20.523438 C 9.058594 20.503906 9.394531 20.523438 9.847656 20.585938 L 10.800781 20.585938 C 10.921875 20.769531 10.984375 20.882812 10.984375 20.921875 C 10.984375 21.25 10.914062 21.558594 10.769531 21.847656 C 10.667969 21.949219 10.503906 22 10.277344 22 C 10.214844 22 9.835938 21.988281 9.140625 21.96875 C 8.441406 21.949219 7.417969 21.9375 6.0625 21.9375 C 4.792969 21.9375 3.816406 21.9375 3.140625 21.9375 C 2.464844 21.9375 2.09375 21.949219 2.035156 21.96875 C 1.664062 21.96875 1.480469 21.867188 1.480469 21.660156 C 1.480469 21.621094 1.511719 21.476562 1.574219 21.230469 C 1.65625 20.902344 1.738281 20.71875 1.820312 20.675781 C 1.902344 20.636719 2.136719 20.605469 2.527344 20.585938 C 3.078125 20.585938 3.695312 20.554688 4.371094 20.492188 C 4.660156 20.429688 4.855469 20.308594 4.957031 20.125 C 5.019531 20.042969 5.757812 17.191406 7.171875 11.574219 C 8.585938 5.953125 9.292969 2.992188 9.292969 2.683594 Z M 20.304688 4.960938 C 20.304688 4.691406 20.285156 4.476562 20.242188 4.3125 C 20.203125 4.148438 20.109375 3.921875 19.96875 3.636719 C 19.824219 3.347656 19.566406 3.125 19.199219 2.960938 C 18.828125 2.796875 18.328125 2.632812 17.691406 2.46875 C 17.546875 2.445312 16.726562 2.425781 15.230469 2.40625 C 14.882812 2.40625 14.523438 2.40625 14.152344 2.40625 C 13.785156 2.40625 13.488281 2.417969 13.261719 2.4375 C 13.035156 2.457031 12.914062 2.457031 12.890625 2.4375 C 12.625 2.457031 12.441406 2.550781 12.339844 2.714844 C 12.296875 2.835938 12.101562 3.625 11.753906 5.082031 C 11.40625 6.539062 11.046875 7.953125 10.675781 9.328125 C 10.308594 10.699219 10.125 11.398438 10.125 11.417969 C 10.125 11.460938 10.953125 11.480469 12.617188 11.480469 L 13.691406 11.480469 C 15.988281 11.480469 17.628906 10.96875 18.613281 9.941406 C 19.167969 9.386719 19.585938 8.578125 19.875 7.511719 C 20.160156 6.445312 20.304688 5.59375 20.304688 4.960938 Z M 20.304688 4.960938 " fill-opacity="1" fill-rule="nonzero"/></g></g></g><g clip-path="url(#e4a4d01e53)"><g clip-path="url(#61d90e6af0)"><g transform="matrix(1, 0, 0, 1, 175, 355)"><g clip-path="url(#554aade730)"><g clip-path="url(#0ce14f8946)"><g clip-path="url(#7bed4f5b3a)"><path fill="#000000" d="M -2.648438 -2.957031 L 468.410156 -2.957031 L 468.410156 6.042969 L -2.648438 6.042969 Z M -2.648438 -2.957031 " fill-opacity="1" fill-rule="nonzero"/></g></g></g></g></g></g><g clip-path="url(#0865a7683c)"><g clip-path="url(#06e9031cb7)"><g transform="matrix(1, 0, 0, 1, 172, 342)"><g clip-path="url(#2c906e89f5)"><g clip-path="url(#8233b26409)"><g clip-path="url(#be90d3e5b1)"><rect x="-350.2" width="1166.4" fill="#000000" height="1166.39999" y="-520.199998" fill-opacity="1"/></g></g></g></g></g></g><g clip-path="url(#01376c33d3)"><g clip-path="url(#ab63b78d0a)"><g transform="matrix(1, 0, 0, 1, 168, 356)"><g clip-path="url(#efbb069727)"><g clip-path="url(#578213ad7e)"><g clip-path="url(#232b7eb24e)"><rect x="-346.2" width="1166.4" fill="#000000" height="1166.39999" y="-534.199998" fill-opacity="1"/></g></g></g></g></g></g><g clip-path="url(#beaf9c1214)"><g clip-path="url(#e19efa8450)"><g transform="matrix(1, 0, 0, 1, 604, 341)"><g clip-path="url(#17556d51c0)"><g clip-path="url(#6bb2862b8d)"><g clip-path="url(#3b98f7181d)"><rect x="-782.2" width="1166.4" fill="#000000" height="1166.39999" y="-519.199998" fill-opacity="1"/></g></g></g></g></g></g><g clip-path="url(#2e8bc1f431)"><g clip-path="url(#c481c3978f)"><g transform="matrix(1, 0, 0, 1, 614, 355)"><g clip-path="url(#04fa8d0474)"><g clip-path="url(#d166a7b3ac)"><g clip-path="url(#4086fa9253)"><rect x="-792.2" width="1166.4" fill="#000000" height="1166.39999" y="-533.199998" fill-opacity="1"/></g></g></g></g></g></g><g clip-path="url(#226b53c534)"><g clip-path="url(#8d9c3b8e2e)"><g transform="matrix(1, 0, 0, 1, 207, 347)"><g clip-path="url(#8546368b9d)"><g clip-path="url(#52da1a77ca)"><g clip-path="url(#f9f50a6900)"><rect x="-385.2" width="1166.4" fill="#000000" height="1166.39999" y="-525.199998" fill-opacity="1"/></g></g></g></g></g></g><g clip-path="url(#9187faabcf)"><g clip-path="url(#84542a83eb)"><g transform="matrix(1, 0, 0, 1, 284, 348)"><g clip-path="url(#784f196e82)"><g clip-path="url(#09610dab30)"><g clip-path="url(#32620f0501)"><rect x="-462.2" width="1166.4" fill="#000000" height="1166.39999" y="-526.199998" fill-opacity="1"/></g></g></g></g></g></g><g transform="matrix(1, 0, 0, 1, 281, 383)"><g clip-path="url(#8ebd747701)"><path fill="#000000" d="M 21.671875 8.785156 C 21.671875 10.996094 21.054688 13.128906 19.824219 15.1875 C 18.59375 17.246094 17.007812 18.890625 15.066406 20.121094 C 13.121094 21.351562 11.132812 21.964844 9.09375 21.964844 C 7.230469 21.964844 5.632812 21.417969 4.304688 20.324219 C 2.980469 19.226562 2.140625 17.628906 1.796875 15.535156 C 1.777344 15.378906 1.765625 14.964844 1.765625 14.292969 C 1.765625 12.332031 2.230469 10.464844 3.152344 8.699219 C 4.074219 6.929688 5.316406 5.359375 6.871094 3.996094 C 9.257812 2.015625 11.652344 1.023438 14.054688 1.023438 C 14.785156 1.023438 15.246094 1.035156 15.441406 1.054688 C 17.304688 1.324219 18.804688 2.148438 19.941406 3.535156 C 21.074219 4.917969 21.652344 6.667969 21.671875 8.785156 Z M 18.699219 7.601562 C 18.699219 5.890625 18.257812 4.554688 17.371094 3.589844 C 16.488281 2.628906 15.382812 2.148438 14.054688 2.148438 C 12.515625 2.148438 11.035156 2.726562 9.613281 3.878906 C 8.074219 5.089844 6.902344 6.792969 6.09375 8.984375 C 5.285156 11.179688 4.871094 13.214844 4.855469 15.101562 C 4.855469 16.832031 5.265625 18.207031 6.09375 19.226562 C 6.921875 20.246094 8.015625 20.765625 9.382812 20.785156 C 11.113281 20.785156 12.757812 20.023438 14.316406 18.503906 C 15.871094 16.984375 17.054688 14.917969 17.863281 12.304688 C 18.421875 10.476562 18.699219 8.910156 18.699219 7.601562 Z M 18.699219 7.601562 " fill-opacity="1" fill-rule="nonzero"/></g></g><g transform="matrix(1, 0, 0, 1, 526, 238)"><g clip-path="url(#7d1218a35e)"><g clip-path="url(#adaeed29ba)"><path fill="#000000" d="M 9.242188 1.996094 C 9.242188 1.851562 8.660156 1.761719 7.488281 1.71875 C 6.996094 1.71875 6.679688 1.707031 6.535156 1.6875 C 6.394531 1.667969 6.320312 1.566406 6.320312 1.378906 C 6.320312 1.359375 6.339844 1.246094 6.382812 1.042969 C 6.503906 0.632812 6.597656 0.40625 6.660156 0.367188 C 6.722656 0.324219 8.710938 0.304688 12.625 0.304688 C 16.523438 0.324219 18.605469 0.355469 18.871094 0.394531 C 20.183594 0.621094 21.28125 1.125 22.164062 1.902344 C 23.042969 2.683594 23.496094 3.71875 23.515625 5.011719 C 23.515625 6.589844 22.839844 8.035156 21.484375 9.347656 C 20.070312 10.742188 18.246094 11.625 16.011719 11.992188 C 15.867188 12.011719 14.789062 12.035156 12.78125 12.054688 L 9.859375 12.054688 L 8.933594 15.714844 C 8.320312 18.09375 8.011719 19.355469 8.011719 19.496094 C 8.011719 19.578125 8.023438 19.632812 8.042969 19.652344 C 8.0625 19.671875 8.136719 19.714844 8.257812 19.773438 C 8.382812 19.835938 8.554688 19.855469 8.78125 19.835938 C 9.007812 19.816406 9.34375 19.835938 9.796875 19.898438 L 10.75 19.898438 C 10.875 20.082031 10.933594 20.195312 10.933594 20.234375 C 10.933594 20.5625 10.863281 20.871094 10.71875 21.160156 C 10.617188 21.261719 10.453125 21.3125 10.226562 21.3125 C 10.164062 21.3125 9.785156 21.300781 9.089844 21.28125 C 8.390625 21.261719 7.367188 21.25 6.011719 21.25 C 4.742188 21.25 3.769531 21.25 3.089844 21.25 C 2.414062 21.25 2.046875 21.261719 1.984375 21.28125 C 1.613281 21.28125 1.429688 21.179688 1.429688 20.972656 C 1.429688 20.933594 1.460938 20.789062 1.523438 20.542969 C 1.605469 20.214844 1.6875 20.03125 1.769531 19.988281 C 1.851562 19.949219 2.085938 19.917969 2.476562 19.898438 C 3.03125 19.898438 3.644531 19.867188 4.320312 19.804688 C 4.609375 19.742188 4.804688 19.621094 4.90625 19.4375 C 4.96875 19.355469 5.707031 16.503906 7.121094 10.886719 C 8.535156 5.265625 9.242188 2.304688 9.242188 1.996094 Z M 20.253906 4.273438 C 20.253906 4.003906 20.234375 3.789062 20.195312 3.625 C 20.152344 3.460938 20.058594 3.234375 19.917969 2.949219 C 19.773438 2.664062 19.515625 2.4375 19.148438 2.273438 C 18.777344 2.109375 18.277344 1.945312 17.640625 1.78125 C 17.496094 1.761719 16.675781 1.738281 15.179688 1.71875 C 14.832031 1.71875 14.472656 1.71875 14.101562 1.71875 C 13.734375 1.71875 13.4375 1.730469 13.210938 1.75 C 12.984375 1.769531 12.863281 1.769531 12.84375 1.75 C 12.574219 1.769531 12.390625 1.863281 12.289062 2.027344 C 12.246094 2.148438 12.050781 2.9375 11.703125 4.394531 C 11.355469 5.851562 10.996094 7.265625 10.628906 8.640625 C 10.257812 10.015625 10.074219 10.710938 10.074219 10.730469 C 10.074219 10.773438 10.902344 10.792969 12.566406 10.792969 L 13.640625 10.792969 C 15.9375 10.792969 17.578125 10.28125 18.5625 9.253906 C 19.117188 8.703125 19.539062 7.890625 19.824219 6.824219 C 20.113281 5.757812 20.253906 4.90625 20.253906 4.273438 Z M 20.253906 4.273438 " fill-opacity="1" fill-rule="nonzero"/></g></g></g><g clip-path="url(#7440e87892)"><g clip-path="url(#9259b3d772)"><g transform="matrix(1, 0, 0, 1, 171, 209)"><g clip-path="url(#9675d5e7ec)"><g clip-path="url(#c746b971f1)"><g clip-path="url(#6d6128e102)"><path fill="#000000" d="M -2.398438 -2.644531 L 468.660156 -2.644531 L 468.660156 6.355469 L -2.398438 6.355469 Z M -2.398438 -2.644531 " fill-opacity="1" fill-rule="nonzero"/></g></g></g></g></g></g><g clip-path="url(#62c173581b)"><g clip-path="url(#9a12705a3e)"><g transform="matrix(1, 0, 0, 1, 168, 197)"><g clip-path="url(#b87c59b5f3)"><g clip-path="url(#a1d938110b)"><g clip-path="url(#7ff93d5f7a)"><rect x="-346.2" width="1166.4" fill="#000000" height="1166.39999" y="-375.199998" fill-opacity="1"/></g></g></g></g></g></g><g clip-path="url(#d899213e87)"><g clip-path="url(#7b84fa9900)"><g transform="matrix(1, 0, 0, 1, 164, 210)"><g clip-path="url(#aae5a61bfd)"><g clip-path="url(#9e30d34736)"><g clip-path="url(#4261c3b28e)"><rect x="-342.2" width="1166.4" fill="#000000" height="1166.39999" y="-388.199998" fill-opacity="1"/></g></g></g></g></g></g><g clip-path="url(#1429debe42)"><g clip-path="url(#a52e6eb9d9)"><g transform="matrix(1, 0, 0, 1, 601, 195)"><g clip-path="url(#523d28155b)"><g clip-path="url(#e63ecdea58)"><g clip-path="url(#6b51015e64)"><rect x="-779.2" width="1166.4" fill="#000000" height="1166.39999" y="-373.199998" fill-opacity="1"/></g></g></g></g></g></g><g clip-path="url(#2c81802f53)"><g clip-path="url(#8941fcc4ad)"><g transform="matrix(1, 0, 0, 1, 610, 209)"><g clip-path="url(#39ff4a6cb8)"><g clip-path="url(#11f91f04b4)"><g clip-path="url(#4980957996)"><rect x="-788.2" width="1166.4" fill="#000000" height="1166.39999" y="-387.199998" fill-opacity="1"/></g></g></g></g></g></g><g clip-path="url(#fd2e080041)"><g clip-path="url(#2c10499f33)"><g transform="matrix(1, 0, 0, 1, 529, 201)"><g clip-path="url(#9164a794af)"><g clip-path="url(#a6d6de9a0e)"><g clip-path="url(#3de2c85fc3)"><rect x="-707.2" width="1166.4" fill="#000000" height="1166.39999" y="-379.199998" fill-opacity="1"/></g></g></g></g></g></g><g clip-path="url(#b63db3b06f)"><g clip-path="url(#2ca4959525)"><g transform="matrix(1, 0, 0, 1, 280, 202)"><g clip-path="url(#537ab130e9)"><g clip-path="url(#2afb8b1273)"><g clip-path="url(#2b416de310)"><rect x="-458.2" width="1166.4" fill="#000000" height="1166.39999" y="-380.199998" fill-opacity="1"/></g></g></g></g></g></g><g transform="matrix(1, 0, 0, 1, 277, 238)"><g clip-path="url(#c8507b0454)"><g clip-path="url(#dd6d3f4614)"><path fill="#000000" d="M 21.921875 8.097656 C 21.921875 10.308594 21.304688 12.441406 20.074219 14.5 C 18.84375 16.558594 17.257812 18.203125 15.316406 19.433594 C 13.371094 20.664062 11.382812 21.28125 9.34375 21.28125 C 7.480469 21.28125 5.882812 20.730469 4.554688 19.636719 C 3.230469 18.539062 2.390625 16.941406 2.046875 14.847656 C 2.027344 14.691406 2.015625 14.28125 2.015625 13.605469 C 2.015625 11.644531 2.480469 9.78125 3.402344 8.011719 C 4.324219 6.242188 5.566406 4.671875 7.121094 3.308594 C 9.507812 1.328125 11.902344 0.335938 14.304688 0.335938 C 15.035156 0.335938 15.496094 0.347656 15.691406 0.367188 C 17.554688 0.636719 19.054688 1.460938 20.191406 2.847656 C 21.324219 4.230469 21.902344 5.980469 21.921875 8.097656 Z M 18.949219 6.914062 C 18.949219 5.203125 18.507812 3.867188 17.621094 2.90625 C 16.738281 1.941406 15.632812 1.460938 14.304688 1.460938 C 12.765625 1.460938 11.285156 2.039062 9.863281 3.191406 C 8.324219 4.40625 7.152344 6.105469 6.34375 8.296875 C 5.535156 10.492188 5.121094 12.53125 5.105469 14.414062 C 5.105469 16.144531 5.515625 17.519531 6.34375 18.539062 C 7.171875 19.558594 8.265625 20.078125 9.632812 20.097656 C 11.363281 20.097656 13.007812 19.335938 14.566406 17.816406 C 16.121094 16.296875 17.304688 14.230469 18.113281 11.617188 C 18.671875 9.789062 18.949219 8.222656 18.949219 6.914062 Z M 18.949219 6.914062 " fill-opacity="1" fill-rule="nonzero"/></g></g></g><g transform="matrix(1, 0, 0, 1, 526, 164)"><g clip-path="url(#3a7d1110d6)"><g clip-path="url(#ad254665f4)"><path fill="#000000" d="M 1.996094 5.625 C 2.140625 4.761719 2.695312 3.769531 3.65625 2.644531 C 4.617188 1.515625 5.804688 0.945312 7.21875 0.921875 C 7.9375 0.921875 8.589844 1.109375 9.183594 1.476562 C 9.777344 1.84375 10.21875 2.304688 10.507812 2.859375 C 11.367188 1.570312 12.402344 0.921875 13.609375 0.921875 C 14.367188 0.921875 15.023438 1.148438 15.574219 1.597656 C 16.128906 2.050781 16.414062 2.652344 16.433594 3.410156 C 16.433594 4.003906 16.292969 4.488281 16.003906 4.855469 C 15.71875 5.222656 15.441406 5.449219 15.175781 5.53125 C 14.910156 5.613281 14.671875 5.652344 14.46875 5.652344 C 14.078125 5.652344 13.761719 5.542969 13.515625 5.316406 C 13.269531 5.089844 13.148438 4.792969 13.148438 4.425781 C 13.148438 3.484375 13.660156 2.839844 14.683594 2.488281 C 14.457031 2.222656 14.050781 2.089844 13.457031 2.089844 C 13.1875 2.089844 12.996094 2.109375 12.871094 2.152344 C 12.09375 2.480469 11.519531 3.15625 11.152344 4.179688 C 9.921875 8.707031 9.308594 11.347656 9.308594 12.105469 C 9.308594 12.679688 9.472656 13.089844 9.800781 13.332031 C 10.128906 13.578125 10.484375 13.703125 10.875 13.703125 C 11.632812 13.703125 12.378906 13.363281 13.117188 12.6875 C 13.855469 12.011719 14.355469 11.183594 14.621094 10.199219 C 14.683594 9.996094 14.746094 9.882812 14.808594 9.863281 C 14.867188 9.84375 15.03125 9.820312 15.296875 9.800781 L 15.421875 9.800781 C 15.726562 9.800781 15.882812 9.882812 15.882812 10.046875 C 15.882812 10.066406 15.863281 10.179688 15.820312 10.386719 C 15.492188 11.550781 14.859375 12.585938 13.917969 13.488281 C 12.972656 14.386719 11.878906 14.839844 10.628906 14.839844 C 9.195312 14.839844 8.109375 14.195312 7.371094 12.902344 C 6.535156 14.171875 5.570312 14.808594 4.484375 14.808594 L 4.300781 14.808594 C 3.296875 14.808594 2.582031 14.542969 2.152344 14.007812 C 1.722656 13.476562 1.496094 12.914062 1.476562 12.320312 C 1.476562 11.664062 1.667969 11.132812 2.058594 10.722656 C 2.449219 10.3125 2.910156 10.109375 3.441406 10.109375 C 4.320312 10.109375 4.761719 10.539062 4.761719 11.398438 C 4.761719 11.808594 4.640625 12.167969 4.394531 12.472656 C 4.148438 12.78125 3.910156 12.984375 3.6875 13.089844 C 3.460938 13.191406 3.328125 13.242188 3.289062 13.242188 L 3.195312 13.273438 C 3.195312 13.292969 3.257812 13.332031 3.378906 13.394531 C 3.503906 13.457031 3.667969 13.527344 3.871094 13.609375 C 4.074219 13.691406 4.269531 13.722656 4.453125 13.703125 C 5.191406 13.703125 5.828125 13.242188 6.359375 12.320312 C 6.542969 11.992188 6.777344 11.296875 7.066406 10.230469 C 7.351562 9.167969 7.640625 8.058594 7.925781 6.914062 C 8.210938 5.765625 8.375 5.089844 8.417969 4.886719 C 8.519531 4.332031 8.570312 3.933594 8.570312 3.6875 C 8.570312 3.113281 8.417969 2.707031 8.109375 2.460938 C 7.804688 2.214844 7.453125 2.089844 7.066406 2.089844 C 6.246094 2.089844 5.480469 2.417969 4.761719 3.074219 C 4.046875 3.730469 3.542969 4.570312 3.257812 5.59375 C 3.214844 5.777344 3.164062 5.878906 3.101562 5.898438 C 3.042969 5.921875 2.878906 5.941406 2.613281 5.960938 L 2.179688 5.960938 C 2.058594 5.839844 1.996094 5.726562 1.996094 5.625 Z M 1.996094 5.625 " fill-opacity="1" fill-rule="nonzero"/></g><g clip-path="url(#bd60966d6e)"><path fill="#000000" d="M 23.609375 6.554688 L 23.328125 6.664062 C 23.125 6.738281 22.835938 6.808594 22.460938 6.882812 C 22.082031 6.953125 21.664062 7.003906 21.199219 7.035156 L 20.789062 7.035156 L 20.789062 6.035156 L 21.199219 6.035156 C 21.878906 6.003906 22.511719 5.898438 23.089844 5.707031 C 23.667969 5.519531 24.074219 5.347656 24.304688 5.1875 C 24.539062 5.027344 24.738281 4.871094 24.914062 4.710938 C 24.941406 4.667969 25.03125 4.644531 25.175781 4.644531 C 25.304688 4.644531 25.425781 4.6875 25.542969 4.773438 L 25.542969 11.269531 L 25.566406 17.785156 C 25.667969 17.886719 25.753906 17.949219 25.824219 17.980469 C 25.898438 18.007812 26.070312 18.039062 26.347656 18.066406 C 26.621094 18.09375 27.070312 18.109375 27.695312 18.109375 L 28.257812 18.109375 L 28.257812 19.109375 L 28.019531 19.109375 C 27.714844 19.066406 26.5625 19.042969 24.566406 19.042969 C 22.597656 19.042969 21.460938 19.066406 21.15625 19.109375 L 20.894531 19.109375 L 20.894531 18.109375 L 21.460938 18.109375 C 21.777344 18.109375 22.054688 18.109375 22.285156 18.109375 C 22.515625 18.109375 22.699219 18.101562 22.828125 18.089844 C 22.960938 18.074219 23.074219 18.050781 23.175781 18.023438 C 23.277344 17.996094 23.335938 17.980469 23.351562 17.980469 C 23.363281 17.980469 23.40625 17.945312 23.480469 17.871094 C 23.550781 17.796875 23.597656 17.769531 23.609375 17.785156 Z M 23.609375 6.554688 " fill-opacity="1" fill-rule="nonzero"/></g></g></g><g transform="matrix(1, 0, 0, 1, 204, 310)"><g clip-path="url(#1a8a713bce)"><g clip-path="url(#e1d4e9203f)"><path fill="#000000" d="M 2.046875 5.3125 C 2.191406 4.449219 2.742188 3.457031 3.707031 2.332031 C 4.667969 1.203125 5.855469 0.632812 7.269531 0.609375 C 7.984375 0.609375 8.640625 0.796875 9.234375 1.164062 C 9.828125 1.53125 10.269531 1.992188 10.554688 2.546875 C 11.417969 1.253906 12.449219 0.609375 13.660156 0.609375 C 14.417969 0.609375 15.070312 0.835938 15.625 1.285156 C 16.179688 1.738281 16.464844 2.339844 16.484375 3.097656 C 16.484375 3.691406 16.34375 4.175781 16.054688 4.542969 C 15.769531 4.910156 15.492188 5.136719 15.226562 5.21875 C 14.960938 5.300781 14.722656 5.339844 14.519531 5.339844 C 14.128906 5.339844 13.8125 5.230469 13.566406 5.003906 C 13.320312 4.777344 13.199219 4.480469 13.199219 4.113281 C 13.199219 3.171875 13.710938 2.527344 14.734375 2.175781 C 14.507812 1.910156 14.097656 1.777344 13.503906 1.777344 C 13.238281 1.777344 13.042969 1.796875 12.921875 1.839844 C 12.144531 2.167969 11.570312 2.84375 11.203125 3.867188 C 9.972656 8.394531 9.359375 11.035156 9.359375 11.792969 C 9.359375 12.367188 9.523438 12.773438 9.851562 13.019531 C 10.175781 13.265625 10.535156 13.390625 10.925781 13.390625 C 11.683594 13.390625 12.429688 13.050781 13.167969 12.375 C 13.90625 11.699219 14.40625 10.871094 14.671875 9.886719 C 14.734375 9.683594 14.796875 9.570312 14.855469 9.550781 C 14.917969 9.53125 15.082031 9.507812 15.347656 9.488281 L 15.472656 9.488281 C 15.777344 9.488281 15.933594 9.570312 15.933594 9.734375 C 15.933594 9.753906 15.910156 9.867188 15.871094 10.070312 C 15.542969 11.238281 14.910156 12.273438 13.964844 13.175781 C 13.023438 14.074219 11.929688 14.527344 10.679688 14.527344 C 9.246094 14.527344 8.160156 13.882812 7.421875 12.589844 C 6.582031 13.859375 5.621094 14.496094 4.535156 14.496094 L 4.351562 14.496094 C 3.347656 14.496094 2.632812 14.230469 2.199219 13.695312 C 1.769531 13.164062 1.546875 12.601562 1.523438 12.007812 C 1.523438 11.351562 1.71875 10.820312 2.109375 10.410156 C 2.496094 10 2.957031 9.796875 3.492188 9.796875 C 4.371094 9.796875 4.8125 10.226562 4.8125 11.085938 C 4.8125 11.496094 4.6875 11.855469 4.445312 12.160156 C 4.199219 12.46875 3.960938 12.671875 3.738281 12.773438 C 3.511719 12.878906 3.378906 12.929688 3.335938 12.929688 L 3.246094 12.960938 C 3.246094 12.980469 3.308594 13.019531 3.429688 13.082031 C 3.550781 13.144531 3.714844 13.214844 3.921875 13.296875 C 4.125 13.378906 4.320312 13.410156 4.503906 13.390625 C 5.242188 13.390625 5.878906 12.929688 6.410156 12.007812 C 6.59375 11.679688 6.828125 10.984375 7.117188 9.917969 C 7.402344 8.855469 7.6875 7.746094 7.976562 6.601562 C 8.261719 5.453125 8.425781 4.777344 8.46875 4.574219 C 8.570312 4.019531 8.621094 3.621094 8.621094 3.375 C 8.621094 2.800781 8.46875 2.390625 8.160156 2.148438 C 7.851562 1.902344 7.503906 1.777344 7.117188 1.777344 C 6.296875 1.777344 5.527344 2.105469 4.8125 2.761719 C 4.09375 3.417969 3.59375 4.257812 3.308594 5.28125 C 3.265625 5.464844 3.214844 5.566406 3.152344 5.585938 C 3.09375 5.609375 2.929688 5.628906 2.660156 5.648438 L 2.230469 5.648438 C 2.109375 5.527344 2.046875 5.414062 2.046875 5.3125 Z M 2.046875 5.3125 " fill-opacity="1" fill-rule="nonzero"/></g><g clip-path="url(#e512d69ed8)"><path fill="#000000" d="M 21.402344 9.480469 C 21.011719 9.480469 20.699219 9.347656 20.46875 9.089844 C 20.238281 8.828125 20.121094 8.507812 20.121094 8.132812 C 20.121094 7.105469 20.503906 6.214844 21.273438 5.460938 C 22.039062 4.707031 22.996094 4.332031 24.136719 4.332031 C 25.457031 4.332031 26.554688 4.738281 27.441406 5.546875 C 28.324219 6.359375 28.773438 7.410156 28.785156 8.695312 C 28.785156 9.320312 28.640625 9.914062 28.351562 10.476562 C 28.0625 11.042969 27.714844 11.535156 27.308594 11.953125 C 26.902344 12.375 26.324219 12.910156 25.570312 13.5625 C 25.050781 14.011719 24.328125 14.675781 23.398438 15.558594 L 22.117188 16.777344 L 23.769531 16.796875 C 26.042969 16.796875 27.25 16.761719 27.394531 16.691406 C 27.496094 16.660156 27.671875 16.015625 27.917969 14.757812 L 27.917969 14.691406 L 28.785156 14.691406 L 28.785156 14.757812 C 28.773438 14.800781 28.675781 15.457031 28.503906 16.734375 C 28.332031 18.007812 28.222656 18.671875 28.179688 18.730469 L 28.179688 18.796875 L 20.121094 18.796875 L 20.121094 18.121094 C 20.121094 18.023438 20.164062 17.914062 20.25 17.796875 C 20.339844 17.679688 20.554688 17.429688 20.902344 17.035156 C 21.324219 16.574219 21.683594 16.167969 21.988281 15.820312 C 22.117188 15.675781 22.363281 15.40625 22.726562 15.015625 C 23.089844 14.625 23.335938 14.359375 23.464844 14.214844 C 23.59375 14.070312 23.804688 13.828125 24.09375 13.496094 C 24.382812 13.164062 24.585938 12.917969 24.703125 12.757812 C 24.820312 12.597656 24.984375 12.382812 25.203125 12.105469 C 25.421875 11.832031 25.570312 11.601562 25.660156 11.410156 C 25.746094 11.222656 25.855469 11.015625 25.984375 10.78125 C 26.113281 10.550781 26.210938 10.320312 26.265625 10.085938 C 26.324219 9.855469 26.375 9.636719 26.417969 9.4375 C 26.460938 9.234375 26.484375 8.992188 26.484375 8.71875 C 26.484375 7.808594 26.238281 7.019531 25.746094 6.351562 C 25.253906 5.6875 24.550781 5.351562 23.640625 5.351562 C 23.160156 5.351562 22.742188 5.476562 22.378906 5.722656 C 22.015625 5.96875 21.765625 6.207031 21.621094 6.4375 C 21.472656 6.671875 21.402344 6.808594 21.402344 6.851562 C 21.402344 6.867188 21.4375 6.871094 21.511719 6.871094 C 21.769531 6.871094 22.039062 6.972656 22.3125 7.175781 C 22.589844 7.378906 22.726562 7.710938 22.726562 8.175781 C 22.726562 8.539062 22.609375 8.84375 22.378906 9.089844 C 22.148438 9.335938 21.820312 9.464844 21.402344 9.480469 Z M 21.402344 9.480469 " fill-opacity="1" fill-rule="nonzero"/></g></g></g><g transform="matrix(1, 0, 0, 1, 280, 163)"><g clip-path="url(#f8bc2bd3d4)"><g clip-path="url(#f6e98f5d75)"><path fill="#000000" d="M 3.875 3.597656 C 5.015625 1.945312 6.574219 1.121094 8.550781 1.121094 C 9.527344 1.121094 10.503906 1.386719 11.484375 1.914062 C 12.460938 2.445312 13.253906 3.382812 13.867188 4.726562 C 14.621094 6.417969 14.996094 8.742188 14.996094 11.695312 C 14.996094 14.851562 14.558594 17.265625 13.683594 18.9375 C 13.277344 19.792969 12.714844 20.476562 12.003906 20.984375 C 11.289062 21.492188 10.667969 21.808594 10.136719 21.929688 C 9.609375 22.054688 9.089844 22.125 8.578125 22.144531 C 8.050781 22.144531 7.519531 22.085938 6.992188 21.960938 C 6.460938 21.839844 5.839844 21.515625 5.125 20.984375 C 4.414062 20.453125 3.851562 19.773438 3.445312 18.9375 C 2.570312 17.265625 2.132812 14.851562 2.132812 11.695312 C 2.132812 8.148438 2.710938 5.449219 3.875 3.597656 Z M 10.75 3.230469 C 10.136719 2.578125 9.414062 2.25 8.578125 2.25 C 7.722656 2.25 6.992188 2.578125 6.378906 3.230469 C 5.871094 3.757812 5.535156 4.492188 5.371094 5.429688 C 5.207031 6.367188 5.125 8.324219 5.125 11.296875 C 5.125 14.515625 5.207031 16.636719 5.371094 17.652344 C 5.535156 18.671875 5.902344 19.476562 6.472656 20.066406 C 7.042969 20.679688 7.746094 20.984375 8.578125 20.984375 C 9.394531 20.984375 10.085938 20.679688 10.65625 20.066406 C 11.25 19.457031 11.613281 18.601562 11.757812 17.5 C 11.898438 16.402344 11.980469 14.332031 12.003906 11.296875 C 12.003906 8.34375 11.921875 6.398438 11.757812 5.460938 C 11.59375 4.523438 11.257812 3.78125 10.75 3.230469 Z M 10.75 3.230469 " fill-opacity="1" fill-rule="nonzero"/></g></g></g><g transform="matrix(1, 0, 0, 1, 284, 310)"><g clip-path="url(#75bb1ac67e)"><g clip-path="url(#789867acef)"><path fill="#000000" d="M 3.238281 3.152344 C 4.378906 1.5 5.9375 0.675781 7.914062 0.675781 C 8.890625 0.675781 9.871094 0.941406 10.847656 1.472656 C 11.824219 2 12.621094 2.9375 13.230469 4.28125 C 13.984375 5.972656 14.363281 8.296875 14.363281 11.25 C 14.363281 14.40625 13.925781 16.820312 13.046875 18.492188 C 12.640625 19.347656 12.082031 20.03125 11.367188 20.539062 C 10.652344 21.050781 10.03125 21.363281 9.503906 21.488281 C 8.972656 21.609375 8.453125 21.679688 7.945312 21.699219 C 7.414062 21.699219 6.886719 21.640625 6.355469 21.519531 C 5.824219 21.394531 5.203125 21.070312 4.492188 20.539062 C 3.777344 20.011719 3.21875 19.328125 2.8125 18.492188 C 1.933594 16.820312 1.496094 14.40625 1.496094 11.25 C 1.496094 7.707031 2.078125 5.007812 3.238281 3.152344 Z M 10.113281 2.785156 C 9.503906 2.132812 8.78125 1.808594 7.945312 1.808594 C 7.089844 1.808594 6.355469 2.132812 5.746094 2.785156 C 5.234375 3.316406 4.898438 4.046875 4.734375 4.984375 C 4.574219 5.921875 4.492188 7.878906 4.492188 10.851562 C 4.492188 14.070312 4.574219 16.191406 4.734375 17.207031 C 4.898438 18.226562 5.265625 19.03125 5.835938 19.625 C 6.40625 20.234375 7.109375 20.539062 7.945312 20.539062 C 8.757812 20.539062 9.453125 20.234375 10.023438 19.625 C 10.613281 19.011719 10.980469 18.15625 11.121094 17.054688 C 11.265625 15.957031 11.347656 13.886719 11.367188 10.851562 C 11.367188 7.898438 11.285156 5.953125 11.121094 5.015625 C 10.960938 4.078125 10.625 3.335938 10.113281 2.785156 Z M 10.113281 2.785156 " fill-opacity="1" fill-rule="nonzero"/></g></g></g></svg>