<svg version="1.0" preserveAspectRatio="xMidYMid meet" viewBox="155.52 217.079998124 498.96 275.39999762" zoomAndPan="magnify" xmlns:xlink="http://www.w3.org/1999/xlink" xmlns="http://www.w3.org/2000/svg" style="max-height: 500px" width="498.96" height="275.39999762"><defs><clipPath id="51e5f63a65"><path clip-rule="nonzero" d="M 2 0.992188 L 24.28125 0.992188 L 24.28125 22 L 2 22 Z M 2 0.992188"/></clipPath><clipPath id="40df0767f6"><rect height="23" y="0" width="25" x="0"/></clipPath><clipPath id="71bc0b6852"><path clip-rule="nonzero" d="M 175.339844 355.03125 L 640.457031 355.03125 L 640.457031 362 L 175.339844 362 Z M 175.339844 355.03125"/></clipPath><clipPath id="d53091019e"><path clip-rule="nonzero" d="M 176.851562 355.042969 C 640.050781 355.566406 640.425781 356.089844 640.425781 356.617188 C 640.425781 357.140625 639.300781 357.964844 638.773438 358.042969 C 638.324219 358.042969 637.800781 357.589844 637.574219 357.214844 C 637.425781 356.765625 637.574219 355.792969 637.875 355.417969 C 638.25 355.117188 639.300781 355.042969 639.675781 355.265625 C 640.050781 355.417969 640.5 356.015625 640.425781 356.464844 C 640.351562 356.992188 640.050781 357.515625 638.925781 358.042969 C 622.199219 365.242188 193.425781 364.339844 176.851562 358.042969 C 175.726562 357.589844 175.351562 357.214844 175.351562 356.691406 C 175.351562 356.242188 176.851562 355.042969 176.851562 355.042969"/></clipPath><clipPath id="acbea5f2c1"><path clip-rule="nonzero" d="M 0.339844 0.03125 L 465.457031 0.03125 L 465.457031 6.199219 L 0.339844 6.199219 Z M 0.339844 0.03125"/></clipPath><clipPath id="b07ed8a17e"><path clip-rule="nonzero" d="M 1.851562 0.0429688 C 465.050781 0.566406 465.425781 1.089844 465.425781 1.617188 C 465.425781 2.140625 464.300781 2.964844 463.773438 3.042969 C 463.324219 3.042969 462.800781 2.589844 462.574219 2.214844 C 462.425781 1.765625 462.574219 0.792969 462.875 0.417969 C 463.25 0.117188 464.300781 0.0429688 464.675781 0.265625 C 465.050781 0.417969 465.5 1.015625 465.425781 1.464844 C 465.351562 1.992188 465.050781 2.515625 463.925781 3.042969 C 447.199219 10.242188 18.425781 9.339844 1.851562 3.042969 C 0.726562 2.589844 0.351562 2.214844 0.351562 1.691406 C 0.351562 1.242188 1.851562 0.0429688 1.851562 0.0429688"/></clipPath><clipPath id="69a57fba30"><rect height="7" y="0" width="466" x="0"/></clipPath><clipPath id="b751ce05a9"><path clip-rule="nonzero" d="M 172.601562 342.765625 L 200.160156 342.765625 L 200.160156 356.742188 L 172.601562 356.742188 Z M 172.601562 342.765625"/></clipPath><clipPath id="5593b187b1"><path clip-rule="nonzero" d="M 173.625 353.765625 C 188.925781 348.140625 195.976562 342.589844 198.375 342.816406 C 199.199219 342.890625 199.949219 343.640625 200.101562 344.167969 C 200.175781 344.617188 199.574219 345.589844 199.125 345.667969 C 198.675781 345.816406 197.398438 345.214844 197.175781 344.765625 C 196.949219 344.390625 197.175781 343.714844 197.398438 343.417969 C 197.625 343.042969 198.226562 342.742188 198.675781 342.816406 C 199.125 342.890625 199.949219 343.492188 200.023438 343.941406 C 200.175781 344.464844 199.875 344.992188 199.273438 345.589844 C 197.398438 347.617188 187.648438 352.042969 182.925781 353.917969 C 179.699219 355.265625 175.949219 356.992188 174.226562 356.691406 C 173.476562 356.542969 172.726562 355.941406 172.648438 355.492188 C 172.574219 354.964844 173.625 353.765625 173.625 353.765625"/></clipPath><clipPath id="f02e82f6fd"><path clip-rule="nonzero" d="M 0.601562 0.765625 L 28.160156 0.765625 L 28.160156 14.742188 L 0.601562 14.742188 Z M 0.601562 0.765625"/></clipPath><clipPath id="67fc4baea9"><path clip-rule="nonzero" d="M 1.625 11.765625 C 16.925781 6.140625 23.976562 0.589844 26.375 0.816406 C 27.199219 0.890625 27.949219 1.640625 28.101562 2.167969 C 28.175781 2.617188 27.574219 3.589844 27.125 3.667969 C 26.675781 3.816406 25.398438 3.214844 25.175781 2.765625 C 24.949219 2.390625 25.175781 1.714844 25.398438 1.417969 C 25.625 1.042969 26.226562 0.742188 26.675781 0.816406 C 27.125 0.890625 27.949219 1.492188 28.023438 1.941406 C 28.175781 2.464844 27.875 2.992188 27.273438 3.589844 C 25.398438 5.617188 15.648438 10.042969 10.925781 11.917969 C 7.699219 13.265625 3.949219 14.992188 2.226562 14.691406 C 1.476562 14.542969 0.726562 13.941406 0.648438 13.492188 C 0.574219 12.964844 1.625 11.765625 1.625 11.765625"/></clipPath><clipPath id="fa188cb722"><rect height="15" y="0" width="29" x="0"/></clipPath><clipPath id="8bd919ab98"><path clip-rule="nonzero" d="M 168.429688 356.390625 L 201.523438 356.390625 L 201.523438 374.390625 L 168.429688 374.390625 Z M 168.429688 356.390625"/></clipPath><clipPath id="ed291669b9"><path clip-rule="nonzero" d="M 170.023438 356.390625 C 174.675781 356.691406 176.324219 358.117188 177.75 358.492188 C 178.949219 358.867188 179.851562 358.566406 181.199219 359.015625 C 183.300781 359.617188 186.226562 361.117188 189.074219 362.839844 C 192.675781 365.089844 199.726562 369.964844 201 371.765625 C 201.375 372.367188 201.523438 372.742188 201.449219 373.117188 C 201.300781 373.566406 200.550781 374.242188 200.101562 374.316406 C 199.648438 374.390625 199.050781 374.089844 198.75 373.792969 C 198.523438 373.492188 198.300781 372.742188 198.523438 372.441406 C 198.75 371.917969 200.023438 371.242188 200.476562 371.464844 C 200.925781 371.617188 201.523438 372.964844 201.300781 373.417969 C 201.148438 373.867188 200.175781 374.316406 199.273438 374.167969 C 196.800781 373.792969 191.25 367.265625 186.824219 364.714844 C 182.550781 362.316406 176.324219 360.066406 173.175781 359.390625 C 171.523438 359.015625 170.101562 359.691406 169.351562 359.242188 C 168.824219 358.941406 168.449219 358.191406 168.523438 357.742188 C 168.675781 357.214844 170.023438 356.390625 170.023438 356.390625"/></clipPath><clipPath id="32a667713c"><path clip-rule="nonzero" d="M 0.429688 0.390625 L 33.523438 0.390625 L 33.523438 18.390625 L 0.429688 18.390625 Z M 0.429688 0.390625"/></clipPath><clipPath id="0569c1d3f9"><path clip-rule="nonzero" d="M 2.023438 0.390625 C 6.675781 0.691406 8.324219 2.117188 9.75 2.492188 C 10.949219 2.867188 11.851562 2.566406 13.199219 3.015625 C 15.300781 3.617188 18.226562 5.117188 21.074219 6.839844 C 24.675781 9.089844 31.726562 13.964844 33 15.765625 C 33.375 16.367188 33.523438 16.742188 33.449219 17.117188 C 33.300781 17.566406 32.550781 18.242188 32.101562 18.316406 C 31.648438 18.390625 31.050781 18.089844 30.75 17.792969 C 30.523438 17.492188 30.300781 16.742188 30.523438 16.441406 C 30.75 15.917969 32.023438 15.242188 32.476562 15.464844 C 32.925781 15.617188 33.523438 16.964844 33.300781 17.417969 C 33.148438 17.867188 32.175781 18.316406 31.273438 18.167969 C 28.800781 17.792969 23.25 11.265625 18.824219 8.714844 C 14.550781 6.316406 8.324219 4.066406 5.175781 3.390625 C 3.523438 3.015625 2.101562 3.691406 1.351562 3.242188 C 0.824219 2.941406 0.449219 2.191406 0.523438 1.742188 C 0.675781 1.214844 2.023438 0.390625 2.023438 0.390625"/></clipPath><clipPath id="0bd65bcc95"><rect height="19" y="0" width="34" x="0"/></clipPath><clipPath id="4b12fb325b"><path clip-rule="nonzero" d="M 604.726562 341.394531 L 637.78125 341.394531 L 637.78125 355.261719 L 604.726562 355.261719 Z M 604.726562 341.394531"/></clipPath><clipPath id="2229c56ce2"><path clip-rule="nonzero" d="M 635.550781 355.191406 C 624.148438 351.292969 623.699219 351.667969 622.273438 351.292969 C 618.898438 350.464844 607.574219 346.191406 605.625 344.316406 C 605.023438 343.714844 604.726562 343.117188 604.875 342.667969 C 604.949219 342.140625 606.226562 341.390625 606.675781 341.464844 C 607.199219 341.617188 607.875 342.964844 607.726562 343.417969 C 607.574219 343.867188 606.300781 344.464844 605.773438 344.316406 C 605.324219 344.242188 604.726562 343.265625 604.800781 342.816406 C 604.875 342.292969 605.625 341.617188 606.523438 341.464844 C 609.148438 341.089844 617.550781 346.640625 622.648438 348.367188 C 627.074219 349.867188 632.851562 350.464844 635.324219 351.667969 C 636.523438 352.265625 637.5 352.941406 637.726562 353.617188 C 637.800781 354.066406 637.574219 354.667969 637.199219 354.890625 C 636.898438 355.191406 635.550781 355.191406 635.550781 355.191406"/></clipPath><clipPath id="497b49d078"><path clip-rule="nonzero" d="M 0.726562 0.394531 L 33.78125 0.394531 L 33.78125 14.199219 L 0.726562 14.199219 Z M 0.726562 0.394531"/></clipPath><clipPath id="698efde6e7"><path clip-rule="nonzero" d="M 31.550781 14.191406 C 20.148438 10.292969 19.699219 10.667969 18.273438 10.292969 C 14.898438 9.464844 3.574219 5.191406 1.625 3.316406 C 1.023438 2.714844 0.726562 2.117188 0.875 1.667969 C 0.949219 1.140625 2.226562 0.390625 2.675781 0.464844 C 3.199219 0.617188 3.875 1.964844 3.726562 2.417969 C 3.574219 2.867188 2.300781 3.464844 1.773438 3.316406 C 1.324219 3.242188 0.726562 2.265625 0.800781 1.816406 C 0.875 1.292969 1.625 0.617188 2.523438 0.464844 C 5.148438 0.0898438 13.550781 5.640625 18.648438 7.367188 C 23.074219 8.867188 28.851562 9.464844 31.324219 10.667969 C 32.523438 11.265625 33.5 11.941406 33.726562 12.617188 C 33.800781 13.066406 33.574219 13.667969 33.199219 13.890625 C 32.898438 14.191406 31.550781 14.191406 31.550781 14.191406"/></clipPath><clipPath id="1c6aea0c11"><rect height="15" y="0" width="34" x="0"/></clipPath><clipPath id="51b2149209"><path clip-rule="nonzero" d="M 614.300781 355.117188 L 641.6875 355.117188 L 641.6875 381.140625 L 614.300781 381.140625 Z M 614.300781 355.117188"/></clipPath><clipPath id="3fa7ec49d9"><path clip-rule="nonzero" d="M 641.324219 357.589844 C 620.324219 375.964844 618.226562 380.242188 616.574219 380.917969 C 615.898438 381.214844 615.074219 381.066406 614.773438 380.691406 C 614.476562 380.316406 614.398438 378.890625 614.773438 378.515625 C 615.148438 378.214844 616.648438 378.292969 616.949219 378.667969 C 617.324219 379.042969 617.101562 380.542969 616.726562 380.839844 C 616.351562 381.140625 615.300781 381.066406 614.925781 380.839844 C 614.550781 380.617188 614.324219 380.089844 614.324219 379.566406 C 614.398438 378.441406 615.523438 376.867188 617.101562 374.992188 C 620.851562 370.492188 636 356.242188 639.523438 355.265625 C 640.425781 354.964844 641.175781 355.191406 641.476562 355.640625 C 641.773438 356.015625 641.324219 357.589844 641.324219 357.589844"/></clipPath><clipPath id="29c68cd70f"><path clip-rule="nonzero" d="M 0.300781 0.117188 L 27.6875 0.117188 L 27.6875 26.140625 L 0.300781 26.140625 Z M 0.300781 0.117188"/></clipPath><clipPath id="c1401fd27a"><path clip-rule="nonzero" d="M 27.324219 2.589844 C 6.324219 20.964844 4.226562 25.242188 2.574219 25.917969 C 1.898438 26.214844 1.074219 26.066406 0.773438 25.691406 C 0.476562 25.316406 0.398438 23.890625 0.773438 23.515625 C 1.148438 23.214844 2.648438 23.292969 2.949219 23.667969 C 3.324219 24.042969 3.101562 25.542969 2.726562 25.839844 C 2.351562 26.140625 1.300781 26.066406 0.925781 25.839844 C 0.550781 25.617188 0.324219 25.089844 0.324219 24.566406 C 0.398438 23.441406 1.523438 21.867188 3.101562 19.992188 C 6.851562 15.492188 22 1.242188 25.523438 0.265625 C 26.425781 -0.0351562 27.175781 0.191406 27.476562 0.640625 C 27.773438 1.015625 27.324219 2.589844 27.324219 2.589844"/></clipPath><clipPath id="826eaf7bdc"><rect height="27" y="0" width="28" x="0"/></clipPath><clipPath id="f8f4c7aff6"><path clip-rule="nonzero" d="M 533.140625 347.476562 L 552.578125 347.476562 L 552.578125 365.511719 L 533.140625 365.511719 Z M 533.140625 347.476562"/></clipPath><clipPath id="fb57b5a346"><path clip-rule="nonzero" d="M 533.148438 359.429688 C 533.300781 356.804688 533.375 356.277344 533.523438 355.753906 C 533.675781 355.230469 533.898438 354.628906 534.273438 354.027344 C 534.648438 353.503906 535.398438 352.980469 535.925781 352.453125 C 536.375 351.929688 536.824219 351.554688 537.351562 351.105469 C 537.800781 350.652344 538.175781 350.203125 538.773438 349.828125 C 539.523438 349.378906 540.5 348.929688 541.476562 348.554688 C 542.449219 348.179688 543.726562 347.578125 544.699219 347.578125 C 545.523438 347.503906 546.425781 347.804688 546.875 348.105469 C 547.175781 348.328125 547.175781 348.777344 547.476562 348.855469 C 547.851562 349.078125 548.449219 348.855469 548.976562 348.855469 C 549.574219 348.929688 550.398438 348.628906 550.925781 348.929688 C 551.523438 349.152344 552.199219 350.054688 552.425781 350.730469 C 552.574219 351.253906 552.425781 351.929688 552.351562 352.527344 C 552.351562 353.128906 552.351562 353.652344 552.273438 354.179688 C 552.199219 354.703125 552.199219 355.378906 551.976562 355.753906 C 551.75 356.128906 551.148438 356.277344 551 356.652344 C 550.851562 357.027344 551 357.480469 551 357.929688 C 551 358.453125 551 359.054688 550.851562 359.578125 C 550.773438 360.105469 550.625 360.628906 550.324219 361.152344 C 550.023438 361.753906 549.351562 362.277344 548.898438 362.804688 C 548.449219 363.253906 548 363.777344 547.476562 364.003906 C 546.949219 364.304688 546.351562 364.230469 545.75 364.304688 C 545.148438 364.453125 544.699219 364.453125 544.101562 364.605469 C 543.273438 364.828125 542.148438 365.277344 541.175781 365.429688 C 540.425781 365.503906 539.675781 365.429688 539 365.355469 C 538.398438 365.277344 537.949219 365.355469 537.5 365.128906 C 536.976562 364.828125 536.601562 364.230469 536.074219 363.777344 C 535.476562 363.253906 534.574219 362.878906 534.050781 362.203125 C 533.523438 361.453125 533.148438 359.429688 533.148438 359.429688 M 537.425781 359.652344 C 538.925781 359.730469 538.851562 359.730469 538.851562 359.652344 C 538.699219 359.429688 538.550781 357.105469 538.550781 356.878906 C 538.476562 356.804688 537.875 357.703125 537.648438 358.152344 C 537.5 358.605469 537.425781 359.652344 537.425781 359.652344 M 542.898438 356.578125 C 544.851562 357.105469 545.074219 357.179688 545.300781 357.105469 C 545.675781 356.878906 546.273438 355.980469 546.5 355.378906 C 546.726562 354.855469 546.726562 354.179688 546.648438 353.804688 C 546.648438 353.578125 546.648438 353.355469 546.5 353.203125 C 546.351562 353.128906 545.976562 353.277344 545.675781 353.277344 C 545.226562 353.277344 544.398438 353.128906 544.25 353.277344 C 544.175781 353.355469 544.175781 353.429688 544.175781 353.578125 C 544.175781 353.652344 544.101562 353.804688 544.023438 353.878906 C 543.949219 353.953125 543.800781 354.179688 543.800781 354.179688 C 543.800781 354.179688 543.199219 354.628906 543.050781 354.929688 C 542.824219 355.378906 542.898438 356.578125 542.898438 356.578125 M 542.898438 359.277344 C 543.199219 359.578125 543.273438 359.503906 543.273438 359.429688 C 543.273438 359.355469 542.898438 359.277344 542.898438 359.277344"/></clipPath><clipPath id="975b39eb1d"><path clip-rule="nonzero" d="M 0.140625 0.476562 L 19.578125 0.476562 L 19.578125 18.511719 L 0.140625 18.511719 Z M 0.140625 0.476562"/></clipPath><clipPath id="c387994d9a"><path clip-rule="nonzero" d="M 0.148438 12.429688 C 0.300781 9.804688 0.375 9.277344 0.523438 8.753906 C 0.675781 8.230469 0.898438 7.628906 1.273438 7.027344 C 1.648438 6.503906 2.398438 5.980469 2.925781 5.453125 C 3.375 4.929688 3.824219 4.554688 4.351562 4.105469 C 4.800781 3.652344 5.175781 3.203125 5.773438 2.828125 C 6.523438 2.378906 7.5 1.929688 8.476562 1.554688 C 9.449219 1.179688 10.726562 0.578125 11.699219 0.578125 C 12.523438 0.503906 13.425781 0.804688 13.875 1.105469 C 14.175781 1.328125 14.175781 1.777344 14.476562 1.855469 C 14.851562 2.078125 15.449219 1.855469 15.976562 1.855469 C 16.574219 1.929688 17.398438 1.628906 17.925781 1.929688 C 18.523438 2.152344 19.199219 3.054688 19.425781 3.730469 C 19.574219 4.253906 19.425781 4.929688 19.351562 5.527344 C 19.351562 6.128906 19.351562 6.652344 19.273438 7.179688 C 19.199219 7.703125 19.199219 8.378906 18.976562 8.753906 C 18.75 9.128906 18.148438 9.277344 18 9.652344 C 17.851562 10.027344 18 10.480469 18 10.929688 C 18 11.453125 18 12.054688 17.851562 12.578125 C 17.773438 13.105469 17.625 13.628906 17.324219 14.152344 C 17.023438 14.753906 16.351562 15.277344 15.898438 15.804688 C 15.449219 16.253906 15 16.777344 14.476562 17.003906 C 13.949219 17.304688 13.351562 17.230469 12.75 17.304688 C 12.148438 17.453125 11.699219 17.453125 11.101562 17.605469 C 10.273438 17.828125 9.148438 18.277344 8.175781 18.429688 C 7.425781 18.503906 6.675781 18.429688 6 18.355469 C 5.398438 18.277344 4.949219 18.355469 4.5 18.128906 C 3.976562 17.828125 3.601562 17.230469 3.074219 16.777344 C 2.476562 16.253906 1.574219 15.878906 1.050781 15.203125 C 0.523438 14.453125 0.148438 12.429688 0.148438 12.429688 M 4.425781 12.652344 C 5.925781 12.730469 5.851562 12.730469 5.851562 12.652344 C 5.699219 12.429688 5.550781 10.105469 5.550781 9.878906 C 5.476562 9.804688 4.875 10.703125 4.648438 11.152344 C 4.5 11.605469 4.425781 12.652344 4.425781 12.652344 M 9.898438 9.578125 C 11.851562 10.105469 12.074219 10.179688 12.300781 10.105469 C 12.675781 9.878906 13.273438 8.980469 13.5 8.378906 C 13.726562 7.855469 13.726562 7.179688 13.648438 6.804688 C 13.648438 6.578125 13.648438 6.355469 13.5 6.203125 C 13.351562 6.128906 12.976562 6.277344 12.675781 6.277344 C 12.226562 6.277344 11.398438 6.128906 11.25 6.277344 C 11.175781 6.355469 11.175781 6.429688 11.175781 6.578125 C 11.175781 6.652344 11.101562 6.804688 11.023438 6.878906 C 10.949219 6.953125 10.800781 7.179688 10.800781 7.179688 C 10.800781 7.179688 10.199219 7.628906 10.050781 7.929688 C 9.824219 8.378906 9.898438 9.578125 9.898438 9.578125 M 9.898438 12.277344 C 10.199219 12.578125 10.273438 12.503906 10.273438 12.429688 C 10.273438 12.355469 9.898438 12.277344 9.898438 12.277344"/></clipPath><clipPath id="a19010f49f"><rect height="19" y="0" width="20" x="0"/></clipPath><clipPath id="7544a32da5"><path clip-rule="nonzero" d="M 284.257812 348.007812 L 301.867188 348.007812 L 301.867188 366.992188 L 284.257812 366.992188 Z M 284.257812 348.007812"/></clipPath><clipPath id="3f8991a1b8"><path clip-rule="nonzero" d="M 284.324219 360.976562 C 284.476562 357.976562 284.773438 357.375 285.074219 356.851562 C 285.375 356.398438 285.824219 356.023438 286.199219 355.574219 C 286.648438 355.050781 287.023438 354.300781 287.476562 353.851562 C 287.851562 353.550781 288.300781 353.476562 288.523438 353.25 C 288.75 353.101562 288.824219 352.875 288.976562 352.726562 C 289.125 352.648438 289.351562 352.5 289.351562 352.425781 C 289.5 352.199219 290.625 350.699219 291.375 350.101562 C 292.050781 349.5 292.949219 349.199219 293.699219 348.824219 C 294.449219 348.523438 295.050781 348 295.726562 348.074219 C 296.550781 348.148438 297.675781 348.976562 298.351562 349.574219 C 298.949219 350.101562 299.324219 350.773438 299.773438 351.375 C 300.148438 351.976562 300.449219 352.5 300.75 353.175781 C 301.050781 353.925781 301.726562 355.125 301.648438 355.800781 C 301.574219 356.175781 301.050781 356.398438 300.976562 356.773438 C 300.976562 357.300781 301.648438 358.050781 301.726562 358.648438 C 301.875 359.25 301.726562 359.851562 301.648438 360.449219 C 301.648438 361.273438 301.574219 362.25 301.351562 362.925781 C 301.125 363.601562 300.824219 364.199219 300.449219 364.648438 C 300 365.175781 299.25 365.550781 298.726562 365.851562 C 298.273438 366.226562 297.824219 366.523438 297.300781 366.675781 C 296.699219 366.898438 295.875 366.976562 295.273438 366.898438 C 294.675781 366.898438 294.148438 366.75 293.699219 366.449219 C 293.101562 366.148438 292.5 365.398438 292.125 365.101562 C 291.976562 364.875 291.898438 364.726562 291.75 364.648438 C 291.675781 364.648438 291.675781 364.726562 291.449219 364.800781 C 291 364.875 289.050781 365.550781 288.148438 365.324219 C 287.476562 365.101562 287.101562 364.125 286.574219 363.675781 C 286.199219 363.300781 285.75 363.226562 285.375 362.851562 C 284.925781 362.398438 284.324219 360.976562 284.324219 360.976562 M 287.625 360.675781 C 287.925781 361.800781 288.523438 362.625 288.976562 362.699219 C 289.351562 362.773438 290.101562 362.25 290.175781 362.101562 C 290.175781 362.023438 290.101562 362.023438 290.023438 361.949219 C 289.800781 361.726562 288.601562 361.425781 288.148438 361.125 C 287.925781 360.976562 287.625 360.675781 287.625 360.675781 M 291.75 354.601562 C 292.050781 354.523438 292.199219 354.375 292.425781 354.226562 C 292.726562 354 293.773438 353.699219 293.699219 353.550781 C 293.699219 353.476562 293.175781 353.476562 293.023438 353.476562 C 292.949219 353.550781 292.949219 353.550781 292.875 353.625 C 292.800781 353.625 292.800781 353.699219 292.726562 353.773438 C 292.574219 353.925781 291.75 354.601562 291.75 354.601562 M 294.976562 363.449219 C 295.425781 363.898438 297.226562 363.601562 297.75 363.074219 C 298.351562 362.476562 298.800781 360.523438 298.648438 360.449219 C 298.425781 360.300781 297.523438 361.875 296.851562 362.324219 C 296.25 362.851562 294.976562 363.449219 294.976562 363.449219"/></clipPath><clipPath id="bfa6ea3a33"><path clip-rule="nonzero" d="M 0.257812 0.0078125 L 17.867188 0.0078125 L 17.867188 18.992188 L 0.257812 18.992188 Z M 0.257812 0.0078125"/></clipPath><clipPath id="774009dcc9"><path clip-rule="nonzero" d="M 0.324219 12.976562 C 0.476562 9.976562 0.773438 9.375 1.074219 8.851562 C 1.375 8.398438 1.824219 8.023438 2.199219 7.574219 C 2.648438 7.050781 3.023438 6.300781 3.476562 5.851562 C 3.851562 5.550781 4.300781 5.476562 4.523438 5.25 C 4.75 5.101562 4.824219 4.875 4.976562 4.726562 C 5.125 4.648438 5.351562 4.5 5.351562 4.425781 C 5.5 4.199219 6.625 2.699219 7.375 2.101562 C 8.050781 1.5 8.949219 1.199219 9.699219 0.824219 C 10.449219 0.523438 11.050781 0 11.726562 0.0742188 C 12.550781 0.148438 13.675781 0.976562 14.351562 1.574219 C 14.949219 2.101562 15.324219 2.773438 15.773438 3.375 C 16.148438 3.976562 16.449219 4.5 16.75 5.175781 C 17.050781 5.925781 17.726562 7.125 17.648438 7.800781 C 17.574219 8.175781 17.050781 8.398438 16.976562 8.773438 C 16.976562 9.300781 17.648438 10.050781 17.726562 10.648438 C 17.875 11.25 17.726562 11.851562 17.648438 12.449219 C 17.648438 13.273438 17.574219 14.25 17.351562 14.925781 C 17.125 15.601562 16.824219 16.199219 16.449219 16.648438 C 16 17.175781 15.25 17.550781 14.726562 17.851562 C 14.273438 18.226562 13.824219 18.523438 13.300781 18.675781 C 12.699219 18.898438 11.875 18.976562 11.273438 18.898438 C 10.675781 18.898438 10.148438 18.75 9.699219 18.449219 C 9.101562 18.148438 8.5 17.398438 8.125 17.101562 C 7.976562 16.875 7.898438 16.726562 7.75 16.648438 C 7.675781 16.648438 7.675781 16.726562 7.449219 16.800781 C 7 16.875 5.050781 17.550781 4.148438 17.324219 C 3.476562 17.101562 3.101562 16.125 2.574219 15.675781 C 2.199219 15.300781 1.75 15.226562 1.375 14.851562 C 0.925781 14.398438 0.324219 12.976562 0.324219 12.976562 M 3.625 12.675781 C 3.925781 13.800781 4.523438 14.625 4.976562 14.699219 C 5.351562 14.773438 6.101562 14.25 6.175781 14.101562 C 6.175781 14.023438 6.101562 14.023438 6.023438 13.949219 C 5.800781 13.726562 4.601562 13.425781 4.148438 13.125 C 3.925781 12.976562 3.625 12.675781 3.625 12.675781 M 7.75 6.601562 C 8.050781 6.523438 8.199219 6.375 8.425781 6.226562 C 8.726562 6 9.773438 5.699219 9.699219 5.550781 C 9.699219 5.476562 9.175781 5.476562 9.023438 5.476562 C 8.949219 5.550781 8.949219 5.550781 8.875 5.625 C 8.800781 5.625 8.800781 5.699219 8.726562 5.773438 C 8.574219 5.925781 7.75 6.601562 7.75 6.601562 M 10.976562 15.449219 C 11.425781 15.898438 13.226562 15.601562 13.75 15.074219 C 14.351562 14.476562 14.800781 12.523438 14.648438 12.449219 C 14.425781 12.300781 13.523438 13.875 12.851562 14.324219 C 12.25 14.851562 10.976562 15.449219 10.976562 15.449219"/></clipPath><clipPath id="7a9122b8f5"><rect height="19" y="0" width="18" x="0"/></clipPath><clipPath id="da5c3603a5"><rect height="23" y="0" width="23" x="0"/></clipPath></defs><g transform="matrix(1, 0, 0, 1, 529, 383)"><g clip-path="url(#40df0767f6)"><g clip-path="url(#51e5f63a65)"><path fill-rule="nonzero" fill-opacity="1" d="M 9.992188 2.683594 C 9.992188 2.539062 9.410156 2.445312 8.238281 2.40625 C 7.746094 2.40625 7.429688 2.394531 7.285156 2.375 C 7.144531 2.355469 7.070312 2.253906 7.070312 2.066406 C 7.070312 2.046875 7.089844 1.933594 7.132812 1.730469 C 7.253906 1.320312 7.347656 1.09375 7.410156 1.050781 C 7.472656 1.011719 9.460938 0.992188 13.375 0.992188 C 17.273438 1.011719 19.355469 1.042969 19.621094 1.082031 C 20.933594 1.308594 22.03125 1.8125 22.914062 2.589844 C 23.792969 3.371094 24.246094 4.40625 24.265625 5.699219 C 24.265625 7.277344 23.589844 8.722656 22.234375 10.035156 C 20.820312 11.429688 18.996094 12.3125 16.761719 12.679688 C 16.617188 12.699219 15.539062 12.722656 13.53125 12.742188 L 10.609375 12.742188 L 9.683594 16.402344 C 9.070312 18.78125 8.761719 20.042969 8.761719 20.183594 C 8.761719 20.265625 8.773438 20.320312 8.792969 20.339844 C 8.8125 20.359375 8.886719 20.402344 9.007812 20.460938 C 9.132812 20.523438 9.304688 20.542969 9.53125 20.523438 C 9.757812 20.503906 10.09375 20.523438 10.546875 20.585938 L 11.5 20.585938 C 11.625 20.769531 11.683594 20.882812 11.683594 20.921875 C 11.683594 21.25 11.613281 21.558594 11.46875 21.847656 C 11.367188 21.949219 11.203125 22 10.976562 22 C 10.914062 22 10.535156 21.988281 9.839844 21.96875 C 9.140625 21.949219 8.117188 21.9375 6.761719 21.9375 C 5.492188 21.9375 4.519531 21.9375 3.839844 21.9375 C 3.164062 21.9375 2.796875 21.949219 2.734375 21.96875 C 2.363281 21.96875 2.179688 21.867188 2.179688 21.660156 C 2.179688 21.621094 2.210938 21.476562 2.273438 21.230469 C 2.355469 20.902344 2.4375 20.71875 2.519531 20.675781 C 2.601562 20.636719 2.835938 20.605469 3.226562 20.585938 C 3.78125 20.585938 4.394531 20.554688 5.070312 20.492188 C 5.359375 20.429688 5.554688 20.308594 5.65625 20.125 C 5.71875 20.042969 6.457031 17.191406 7.871094 11.574219 C 9.285156 5.953125 9.992188 2.992188 9.992188 2.683594 Z M 21.003906 4.960938 C 21.003906 4.691406 20.984375 4.476562 20.945312 4.3125 C 20.902344 4.148438 20.808594 3.921875 20.667969 3.636719 C 20.523438 3.347656 20.265625 3.125 19.898438 2.960938 C 19.527344 2.796875 19.027344 2.632812 18.390625 2.46875 C 18.246094 2.445312 17.425781 2.425781 15.929688 2.40625 C 15.582031 2.40625 15.222656 2.40625 14.851562 2.40625 C 14.484375 2.40625 14.1875 2.417969 13.960938 2.4375 C 13.734375 2.457031 13.613281 2.457031 13.59375 2.4375 C 13.324219 2.457031 13.140625 2.550781 13.039062 2.714844 C 12.996094 2.835938 12.800781 3.625 12.453125 5.082031 C 12.105469 6.539062 11.746094 7.953125 11.378906 9.328125 C 11.007812 10.699219 10.824219 11.398438 10.824219 11.417969 C 10.824219 11.460938 11.652344 11.480469 13.316406 11.480469 L 14.390625 11.480469 C 16.6875 11.480469 18.328125 10.96875 19.3125 9.941406 C 19.867188 9.386719 20.289062 8.578125 20.574219 7.511719 C 20.863281 6.445312 21.003906 5.59375 21.003906 4.960938 Z M 21.003906 4.960938" fill="#000000"/></g></g></g><g clip-path="url(#71bc0b6852)"><g clip-path="url(#d53091019e)"><g transform="matrix(1, 0, 0, 1, 175, 355)"><g clip-path="url(#69a57fba30)"><g clip-path="url(#acbea5f2c1)"><g clip-path="url(#b07ed8a17e)"><path fill-rule="nonzero" fill-opacity="1" d="M -2.648438 -2.957031 L 468.410156 -2.957031 L 468.410156 6.042969 L -2.648438 6.042969 Z M -2.648438 -2.957031" fill="#000000"/></g></g></g></g></g></g><g clip-path="url(#b751ce05a9)"><g clip-path="url(#5593b187b1)"><g transform="matrix(1, 0, 0, 1, 172, 342)"><g clip-path="url(#fa188cb722)"><g clip-path="url(#f02e82f6fd)"><g clip-path="url(#67fc4baea9)"><rect fill-opacity="1" y="-520.199998" height="1166.39999" fill="#000000" width="1166.4" x="-350.2"/></g></g></g></g></g></g><g clip-path="url(#8bd919ab98)"><g clip-path="url(#ed291669b9)"><g transform="matrix(1, 0, 0, 1, 168, 356)"><g clip-path="url(#0bd65bcc95)"><g clip-path="url(#32a667713c)"><g clip-path="url(#0569c1d3f9)"><rect fill-opacity="1" y="-534.199998" height="1166.39999" fill="#000000" width="1166.4" x="-346.2"/></g></g></g></g></g></g><g clip-path="url(#4b12fb325b)"><g clip-path="url(#2229c56ce2)"><g transform="matrix(1, 0, 0, 1, 604, 341)"><g clip-path="url(#1c6aea0c11)"><g clip-path="url(#497b49d078)"><g clip-path="url(#698efde6e7)"><rect fill-opacity="1" y="-519.199998" height="1166.39999" fill="#000000" width="1166.4" x="-782.2"/></g></g></g></g></g></g><g clip-path="url(#51b2149209)"><g clip-path="url(#3fa7ec49d9)"><g transform="matrix(1, 0, 0, 1, 614, 355)"><g clip-path="url(#826eaf7bdc)"><g clip-path="url(#29c68cd70f)"><g clip-path="url(#c1401fd27a)"><rect fill-opacity="1" y="-533.199998" height="1166.39999" fill="#000000" width="1166.4" x="-792.2"/></g></g></g></g></g></g><g clip-path="url(#f8f4c7aff6)"><g clip-path="url(#fb57b5a346)"><g transform="matrix(1, 0, 0, 1, 533, 347)"><g clip-path="url(#a19010f49f)"><g clip-path="url(#975b39eb1d)"><g clip-path="url(#c387994d9a)"><rect fill-opacity="1" y="-525.199998" height="1166.39999" fill="#000000" width="1166.4" x="-711.2"/></g></g></g></g></g></g><g clip-path="url(#7544a32da5)"><g clip-path="url(#3f8991a1b8)"><g transform="matrix(1, 0, 0, 1, 284, 348)"><g clip-path="url(#7a9122b8f5)"><g clip-path="url(#bfa6ea3a33)"><g clip-path="url(#774009dcc9)"><rect fill-opacity="1" y="-526.199998" height="1166.39999" fill="#000000" width="1166.4" x="-462.2"/></g></g></g></g></g></g><g transform="matrix(1, 0, 0, 1, 281, 383)"><g clip-path="url(#da5c3603a5)"><path fill-rule="nonzero" fill-opacity="1" d="M 21.671875 8.785156 C 21.671875 10.996094 21.054688 13.128906 19.824219 15.1875 C 18.59375 17.246094 17.007812 18.890625 15.066406 20.121094 C 13.121094 21.351562 11.132812 21.964844 9.09375 21.964844 C 7.230469 21.964844 5.632812 21.417969 4.304688 20.324219 C 2.980469 19.226562 2.140625 17.628906 1.796875 15.535156 C 1.777344 15.378906 1.765625 14.964844 1.765625 14.292969 C 1.765625 12.332031 2.230469 10.464844 3.152344 8.699219 C 4.074219 6.929688 5.316406 5.359375 6.871094 3.996094 C 9.257812 2.015625 11.652344 1.023438 14.054688 1.023438 C 14.785156 1.023438 15.246094 1.035156 15.441406 1.054688 C 17.304688 1.324219 18.804688 2.148438 19.941406 3.535156 C 21.074219 4.917969 21.652344 6.667969 21.671875 8.785156 Z M 18.699219 7.601562 C 18.699219 5.890625 18.257812 4.554688 17.371094 3.589844 C 16.488281 2.628906 15.382812 2.148438 14.054688 2.148438 C 12.515625 2.148438 11.035156 2.726562 9.613281 3.878906 C 8.074219 5.089844 6.902344 6.792969 6.09375 8.984375 C 5.285156 11.179688 4.871094 13.214844 4.855469 15.101562 C 4.855469 16.832031 5.265625 18.207031 6.09375 19.226562 C 6.921875 20.246094 8.015625 20.765625 9.382812 20.785156 C 11.113281 20.785156 12.757812 20.023438 14.316406 18.503906 C 15.871094 16.984375 17.054688 14.917969 17.863281 12.304688 C 18.421875 10.476562 18.699219 8.910156 18.699219 7.601562 Z M 18.699219 7.601562" fill="#000000"/></g></g></svg>