<svg xmlns="http://www.w3.org/2000/svg" xmlns:xlink="http://www.w3.org/1999/xlink" width="1080" zoomAndPan="magnify" viewBox="0 0 810 809.999993" height="1080" preserveAspectRatio="xMidYMid meet" version="1.0"><defs><clipPath id="7bc90fb8cf"><path d="M 2 0.992188 L 24.28125 0.992188 L 24.28125 22 L 2 22 Z M 2 0.992188 " clip-rule="nonzero"/></clipPath><clipPath id="c5d1ffb6be"><rect x="0" width="25" y="0" height="23"/></clipPath><clipPath id="0683b2247d"><path d="M 175.339844 355.03125 L 640.457031 355.03125 L 640.457031 362 L 175.339844 362 Z M 175.339844 355.03125 " clip-rule="nonzero"/></clipPath><clipPath id="45392eab0c"><path d="M 176.851562 355.042969 C 640.050781 355.566406 640.425781 356.089844 640.425781 356.617188 C 640.425781 357.140625 639.300781 357.964844 638.773438 358.042969 C 638.324219 358.042969 637.800781 357.589844 637.574219 357.214844 C 637.425781 356.765625 637.574219 355.792969 637.875 355.417969 C 638.25 355.117188 639.300781 355.042969 639.675781 355.265625 C 640.050781 355.417969 640.5 356.015625 640.425781 356.464844 C 640.351562 356.992188 640.050781 357.515625 638.925781 358.042969 C 622.199219 365.242188 193.425781 364.339844 176.851562 358.042969 C 175.726562 357.589844 175.351562 357.214844 175.351562 356.691406 C 175.351562 356.242188 176.851562 355.042969 176.851562 355.042969 " clip-rule="nonzero"/></clipPath><clipPath id="dd7b806ebe"><path d="M 0.339844 0.03125 L 465.457031 0.03125 L 465.457031 6.199219 L 0.339844 6.199219 Z M 0.339844 0.03125 " clip-rule="nonzero"/></clipPath><clipPath id="06d0240e02"><path d="M 1.851562 0.0429688 C 465.050781 0.566406 465.425781 1.089844 465.425781 1.617188 C 465.425781 2.140625 464.300781 2.964844 463.773438 3.042969 C 463.324219 3.042969 462.800781 2.589844 462.574219 2.214844 C 462.425781 1.765625 462.574219 0.792969 462.875 0.417969 C 463.25 0.117188 464.300781 0.0429688 464.675781 0.265625 C 465.050781 0.417969 465.5 1.015625 465.425781 1.464844 C 465.351562 1.992188 465.050781 2.515625 463.925781 3.042969 C 447.199219 10.242188 18.425781 9.339844 1.851562 3.042969 C 0.726562 2.589844 0.351562 2.214844 0.351562 1.691406 C 0.351562 1.242188 1.851562 0.0429688 1.851562 0.0429688 " clip-rule="nonzero"/></clipPath><clipPath id="48418e0104"><rect x="0" width="466" y="0" height="7"/></clipPath><clipPath id="2c96993eb9"><path d="M 172.601562 342.765625 L 200.160156 342.765625 L 200.160156 356.742188 L 172.601562 356.742188 Z M 172.601562 342.765625 " clip-rule="nonzero"/></clipPath><clipPath id="b3d2b587c9"><path d="M 173.625 353.765625 C 188.925781 348.140625 195.976562 342.589844 198.375 342.816406 C 199.199219 342.890625 199.949219 343.640625 200.101562 344.167969 C 200.175781 344.617188 199.574219 345.589844 199.125 345.667969 C 198.675781 345.816406 197.398438 345.214844 197.175781 344.765625 C 196.949219 344.390625 197.175781 343.714844 197.398438 343.417969 C 197.625 343.042969 198.226562 342.742188 198.675781 342.816406 C 199.125 342.890625 199.949219 343.492188 200.023438 343.941406 C 200.175781 344.464844 199.875 344.992188 199.273438 345.589844 C 197.398438 347.617188 187.648438 352.042969 182.925781 353.917969 C 179.699219 355.265625 175.949219 356.992188 174.226562 356.691406 C 173.476562 356.542969 172.726562 355.941406 172.648438 355.492188 C 172.574219 354.964844 173.625 353.765625 173.625 353.765625 " clip-rule="nonzero"/></clipPath><clipPath id="0b49a1d9f7"><path d="M 0.601562 0.765625 L 28.160156 0.765625 L 28.160156 14.742188 L 0.601562 14.742188 Z M 0.601562 0.765625 " clip-rule="nonzero"/></clipPath><clipPath id="726dcc2336"><path d="M 1.625 11.765625 C 16.925781 6.140625 23.976562 0.589844 26.375 0.816406 C 27.199219 0.890625 27.949219 1.640625 28.101562 2.167969 C 28.175781 2.617188 27.574219 3.589844 27.125 3.667969 C 26.675781 3.816406 25.398438 3.214844 25.175781 2.765625 C 24.949219 2.390625 25.175781 1.714844 25.398438 1.417969 C 25.625 1.042969 26.226562 0.742188 26.675781 0.816406 C 27.125 0.890625 27.949219 1.492188 28.023438 1.941406 C 28.175781 2.464844 27.875 2.992188 27.273438 3.589844 C 25.398438 5.617188 15.648438 10.042969 10.925781 11.917969 C 7.699219 13.265625 3.949219 14.992188 2.226562 14.691406 C 1.476562 14.542969 0.726562 13.941406 0.648438 13.492188 C 0.574219 12.964844 1.625 11.765625 1.625 11.765625 " clip-rule="nonzero"/></clipPath><clipPath id="b9c8655c08"><rect x="0" width="29" y="0" height="15"/></clipPath><clipPath id="3356a92565"><path d="M 168.429688 356.390625 L 201.523438 356.390625 L 201.523438 374.390625 L 168.429688 374.390625 Z M 168.429688 356.390625 " clip-rule="nonzero"/></clipPath><clipPath id="b03333bb39"><path d="M 170.023438 356.390625 C 174.675781 356.691406 176.324219 358.117188 177.75 358.492188 C 178.949219 358.867188 179.851562 358.566406 181.199219 359.015625 C 183.300781 359.617188 186.226562 361.117188 189.074219 362.839844 C 192.675781 365.089844 199.726562 369.964844 201 371.765625 C 201.375 372.367188 201.523438 372.742188 201.449219 373.117188 C 201.300781 373.566406 200.550781 374.242188 200.101562 374.316406 C 199.648438 374.390625 199.050781 374.089844 198.75 373.792969 C 198.523438 373.492188 198.300781 372.742188 198.523438 372.441406 C 198.75 371.917969 200.023438 371.242188 200.476562 371.464844 C 200.925781 371.617188 201.523438 372.964844 201.300781 373.417969 C 201.148438 373.867188 200.175781 374.316406 199.273438 374.167969 C 196.800781 373.792969 191.25 367.265625 186.824219 364.714844 C 182.550781 362.316406 176.324219 360.066406 173.175781 359.390625 C 171.523438 359.015625 170.101562 359.691406 169.351562 359.242188 C 168.824219 358.941406 168.449219 358.191406 168.523438 357.742188 C 168.675781 357.214844 170.023438 356.390625 170.023438 356.390625 " clip-rule="nonzero"/></clipPath><clipPath id="eac874b860"><path d="M 0.429688 0.390625 L 33.523438 0.390625 L 33.523438 18.390625 L 0.429688 18.390625 Z M 0.429688 0.390625 " clip-rule="nonzero"/></clipPath><clipPath id="4f278bfc16"><path d="M 2.023438 0.390625 C 6.675781 0.691406 8.324219 2.117188 9.75 2.492188 C 10.949219 2.867188 11.851562 2.566406 13.199219 3.015625 C 15.300781 3.617188 18.226562 5.117188 21.074219 6.839844 C 24.675781 9.089844 31.726562 13.964844 33 15.765625 C 33.375 16.367188 33.523438 16.742188 33.449219 17.117188 C 33.300781 17.566406 32.550781 18.242188 32.101562 18.316406 C 31.648438 18.390625 31.050781 18.089844 30.75 17.792969 C 30.523438 17.492188 30.300781 16.742188 30.523438 16.441406 C 30.75 15.917969 32.023438 15.242188 32.476562 15.464844 C 32.925781 15.617188 33.523438 16.964844 33.300781 17.417969 C 33.148438 17.867188 32.175781 18.316406 31.273438 18.167969 C 28.800781 17.792969 23.25 11.265625 18.824219 8.714844 C 14.550781 6.316406 8.324219 4.066406 5.175781 3.390625 C 3.523438 3.015625 2.101562 3.691406 1.351562 3.242188 C 0.824219 2.941406 0.449219 2.191406 0.523438 1.742188 C 0.675781 1.214844 2.023438 0.390625 2.023438 0.390625 " clip-rule="nonzero"/></clipPath><clipPath id="010de5b810"><rect x="0" width="34" y="0" height="19"/></clipPath><clipPath id="d8935b0fa9"><path d="M 604.726562 341.394531 L 637.78125 341.394531 L 637.78125 355.261719 L 604.726562 355.261719 Z M 604.726562 341.394531 " clip-rule="nonzero"/></clipPath><clipPath id="18f221724f"><path d="M 635.550781 355.191406 C 624.148438 351.292969 623.699219 351.667969 622.273438 351.292969 C 618.898438 350.464844 607.574219 346.191406 605.625 344.316406 C 605.023438 343.714844 604.726562 343.117188 604.875 342.667969 C 604.949219 342.140625 606.226562 341.390625 606.675781 341.464844 C 607.199219 341.617188 607.875 342.964844 607.726562 343.417969 C 607.574219 343.867188 606.300781 344.464844 605.773438 344.316406 C 605.324219 344.242188 604.726562 343.265625 604.800781 342.816406 C 604.875 342.292969 605.625 341.617188 606.523438 341.464844 C 609.148438 341.089844 617.550781 346.640625 622.648438 348.367188 C 627.074219 349.867188 632.851562 350.464844 635.324219 351.667969 C 636.523438 352.265625 637.5 352.941406 637.726562 353.617188 C 637.800781 354.066406 637.574219 354.667969 637.199219 354.890625 C 636.898438 355.191406 635.550781 355.191406 635.550781 355.191406 " clip-rule="nonzero"/></clipPath><clipPath id="fe301f61e0"><path d="M 0.726562 0.394531 L 33.78125 0.394531 L 33.78125 14.199219 L 0.726562 14.199219 Z M 0.726562 0.394531 " clip-rule="nonzero"/></clipPath><clipPath id="f04822d88c"><path d="M 31.550781 14.191406 C 20.148438 10.292969 19.699219 10.667969 18.273438 10.292969 C 14.898438 9.464844 3.574219 5.191406 1.625 3.316406 C 1.023438 2.714844 0.726562 2.117188 0.875 1.667969 C 0.949219 1.140625 2.226562 0.390625 2.675781 0.464844 C 3.199219 0.617188 3.875 1.964844 3.726562 2.417969 C 3.574219 2.867188 2.300781 3.464844 1.773438 3.316406 C 1.324219 3.242188 0.726562 2.265625 0.800781 1.816406 C 0.875 1.292969 1.625 0.617188 2.523438 0.464844 C 5.148438 0.0898438 13.550781 5.640625 18.648438 7.367188 C 23.074219 8.867188 28.851562 9.464844 31.324219 10.667969 C 32.523438 11.265625 33.5 11.941406 33.726562 12.617188 C 33.800781 13.066406 33.574219 13.667969 33.199219 13.890625 C 32.898438 14.191406 31.550781 14.191406 31.550781 14.191406 " clip-rule="nonzero"/></clipPath><clipPath id="ad0d8cec82"><rect x="0" width="34" y="0" height="15"/></clipPath><clipPath id="9a76ad38a1"><path d="M 614.300781 355.117188 L 641.6875 355.117188 L 641.6875 381.140625 L 614.300781 381.140625 Z M 614.300781 355.117188 " clip-rule="nonzero"/></clipPath><clipPath id="5539746037"><path d="M 641.324219 357.589844 C 620.324219 375.964844 618.226562 380.242188 616.574219 380.917969 C 615.898438 381.214844 615.074219 381.066406 614.773438 380.691406 C 614.476562 380.316406 614.398438 378.890625 614.773438 378.515625 C 615.148438 378.214844 616.648438 378.292969 616.949219 378.667969 C 617.324219 379.042969 617.101562 380.542969 616.726562 380.839844 C 616.351562 381.140625 615.300781 381.066406 614.925781 380.839844 C 614.550781 380.617188 614.324219 380.089844 614.324219 379.566406 C 614.398438 378.441406 615.523438 376.867188 617.101562 374.992188 C 620.851562 370.492188 636 356.242188 639.523438 355.265625 C 640.425781 354.964844 641.175781 355.191406 641.476562 355.640625 C 641.773438 356.015625 641.324219 357.589844 641.324219 357.589844 " clip-rule="nonzero"/></clipPath><clipPath id="96153646f8"><path d="M 0.300781 0.117188 L 27.6875 0.117188 L 27.6875 26.140625 L 0.300781 26.140625 Z M 0.300781 0.117188 " clip-rule="nonzero"/></clipPath><clipPath id="44ddb5b93f"><path d="M 27.324219 2.589844 C 6.324219 20.964844 4.226562 25.242188 2.574219 25.917969 C 1.898438 26.214844 1.074219 26.066406 0.773438 25.691406 C 0.476562 25.316406 0.398438 23.890625 0.773438 23.515625 C 1.148438 23.214844 2.648438 23.292969 2.949219 23.667969 C 3.324219 24.042969 3.101562 25.542969 2.726562 25.839844 C 2.351562 26.140625 1.300781 26.066406 0.925781 25.839844 C 0.550781 25.617188 0.324219 25.089844 0.324219 24.566406 C 0.398438 23.441406 1.523438 21.867188 3.101562 19.992188 C 6.851562 15.492188 22 1.242188 25.523438 0.265625 C 26.425781 -0.0351562 27.175781 0.191406 27.476562 0.640625 C 27.773438 1.015625 27.324219 2.589844 27.324219 2.589844 " clip-rule="nonzero"/></clipPath><clipPath id="3576b48ee2"><rect x="0" width="28" y="0" height="27"/></clipPath><clipPath id="9c814bfdaa"><path d="M 533.140625 347.476562 L 552.578125 347.476562 L 552.578125 365.511719 L 533.140625 365.511719 Z M 533.140625 347.476562 " clip-rule="nonzero"/></clipPath><clipPath id="20ae32f501"><path d="M 533.148438 359.429688 C 533.300781 356.804688 533.375 356.277344 533.523438 355.753906 C 533.675781 355.230469 533.898438 354.628906 534.273438 354.027344 C 534.648438 353.503906 535.398438 352.980469 535.925781 352.453125 C 536.375 351.929688 536.824219 351.554688 537.351562 351.105469 C 537.800781 350.652344 538.175781 350.203125 538.773438 349.828125 C 539.523438 349.378906 540.5 348.929688 541.476562 348.554688 C 542.449219 348.179688 543.726562 347.578125 544.699219 347.578125 C 545.523438 347.503906 546.425781 347.804688 546.875 348.105469 C 547.175781 348.328125 547.175781 348.777344 547.476562 348.855469 C 547.851562 349.078125 548.449219 348.855469 548.976562 348.855469 C 549.574219 348.929688 550.398438 348.628906 550.925781 348.929688 C 551.523438 349.152344 552.199219 350.054688 552.425781 350.730469 C 552.574219 351.253906 552.425781 351.929688 552.351562 352.527344 C 552.351562 353.128906 552.351562 353.652344 552.273438 354.179688 C 552.199219 354.703125 552.199219 355.378906 551.976562 355.753906 C 551.75 356.128906 551.148438 356.277344 551 356.652344 C 550.851562 357.027344 551 357.480469 551 357.929688 C 551 358.453125 551 359.054688 550.851562 359.578125 C 550.773438 360.105469 550.625 360.628906 550.324219 361.152344 C 550.023438 361.753906 549.351562 362.277344 548.898438 362.804688 C 548.449219 363.253906 548 363.777344 547.476562 364.003906 C 546.949219 364.304688 546.351562 364.230469 545.75 364.304688 C 545.148438 364.453125 544.699219 364.453125 544.101562 364.605469 C 543.273438 364.828125 542.148438 365.277344 541.175781 365.429688 C 540.425781 365.503906 539.675781 365.429688 539 365.355469 C 538.398438 365.277344 537.949219 365.355469 537.5 365.128906 C 536.976562 364.828125 536.601562 364.230469 536.074219 363.777344 C 535.476562 363.253906 534.574219 362.878906 534.050781 362.203125 C 533.523438 361.453125 533.148438 359.429688 533.148438 359.429688 M 537.425781 359.652344 C 538.925781 359.730469 538.851562 359.730469 538.851562 359.652344 C 538.699219 359.429688 538.550781 357.105469 538.550781 356.878906 C 538.476562 356.804688 537.875 357.703125 537.648438 358.152344 C 537.5 358.605469 537.425781 359.652344 537.425781 359.652344 M 542.898438 356.578125 C 544.851562 357.105469 545.074219 357.179688 545.300781 357.105469 C 545.675781 356.878906 546.273438 355.980469 546.5 355.378906 C 546.726562 354.855469 546.726562 354.179688 546.648438 353.804688 C 546.648438 353.578125 546.648438 353.355469 546.5 353.203125 C 546.351562 353.128906 545.976562 353.277344 545.675781 353.277344 C 545.226562 353.277344 544.398438 353.128906 544.25 353.277344 C 544.175781 353.355469 544.175781 353.429688 544.175781 353.578125 C 544.175781 353.652344 544.101562 353.804688 544.023438 353.878906 C 543.949219 353.953125 543.800781 354.179688 543.800781 354.179688 C 543.800781 354.179688 543.199219 354.628906 543.050781 354.929688 C 542.824219 355.378906 542.898438 356.578125 542.898438 356.578125 M 542.898438 359.277344 C 543.199219 359.578125 543.273438 359.503906 543.273438 359.429688 C 543.273438 359.355469 542.898438 359.277344 542.898438 359.277344 " clip-rule="nonzero"/></clipPath><clipPath id="f03fbf61c1"><path d="M 0.140625 0.476562 L 19.578125 0.476562 L 19.578125 18.511719 L 0.140625 18.511719 Z M 0.140625 0.476562 " clip-rule="nonzero"/></clipPath><clipPath id="ed1d022d4a"><path d="M 0.148438 12.429688 C 0.300781 9.804688 0.375 9.277344 0.523438 8.753906 C 0.675781 8.230469 0.898438 7.628906 1.273438 7.027344 C 1.648438 6.503906 2.398438 5.980469 2.925781 5.453125 C 3.375 4.929688 3.824219 4.554688 4.351562 4.105469 C 4.800781 3.652344 5.175781 3.203125 5.773438 2.828125 C 6.523438 2.378906 7.5 1.929688 8.476562 1.554688 C 9.449219 1.179688 10.726562 0.578125 11.699219 0.578125 C 12.523438 0.503906 13.425781 0.804688 13.875 1.105469 C 14.175781 1.328125 14.175781 1.777344 14.476562 1.855469 C 14.851562 2.078125 15.449219 1.855469 15.976562 1.855469 C 16.574219 1.929688 17.398438 1.628906 17.925781 1.929688 C 18.523438 2.152344 19.199219 3.054688 19.425781 3.730469 C 19.574219 4.253906 19.425781 4.929688 19.351562 5.527344 C 19.351562 6.128906 19.351562 6.652344 19.273438 7.179688 C 19.199219 7.703125 19.199219 8.378906 18.976562 8.753906 C 18.75 9.128906 18.148438 9.277344 18 9.652344 C 17.851562 10.027344 18 10.480469 18 10.929688 C 18 11.453125 18 12.054688 17.851562 12.578125 C 17.773438 13.105469 17.625 13.628906 17.324219 14.152344 C 17.023438 14.753906 16.351562 15.277344 15.898438 15.804688 C 15.449219 16.253906 15 16.777344 14.476562 17.003906 C 13.949219 17.304688 13.351562 17.230469 12.75 17.304688 C 12.148438 17.453125 11.699219 17.453125 11.101562 17.605469 C 10.273438 17.828125 9.148438 18.277344 8.175781 18.429688 C 7.425781 18.503906 6.675781 18.429688 6 18.355469 C 5.398438 18.277344 4.949219 18.355469 4.5 18.128906 C 3.976562 17.828125 3.601562 17.230469 3.074219 16.777344 C 2.476562 16.253906 1.574219 15.878906 1.050781 15.203125 C 0.523438 14.453125 0.148438 12.429688 0.148438 12.429688 M 4.425781 12.652344 C 5.925781 12.730469 5.851562 12.730469 5.851562 12.652344 C 5.699219 12.429688 5.550781 10.105469 5.550781 9.878906 C 5.476562 9.804688 4.875 10.703125 4.648438 11.152344 C 4.5 11.605469 4.425781 12.652344 4.425781 12.652344 M 9.898438 9.578125 C 11.851562 10.105469 12.074219 10.179688 12.300781 10.105469 C 12.675781 9.878906 13.273438 8.980469 13.5 8.378906 C 13.726562 7.855469 13.726562 7.179688 13.648438 6.804688 C 13.648438 6.578125 13.648438 6.355469 13.5 6.203125 C 13.351562 6.128906 12.976562 6.277344 12.675781 6.277344 C 12.226562 6.277344 11.398438 6.128906 11.25 6.277344 C 11.175781 6.355469 11.175781 6.429688 11.175781 6.578125 C 11.175781 6.652344 11.101562 6.804688 11.023438 6.878906 C 10.949219 6.953125 10.800781 7.179688 10.800781 7.179688 C 10.800781 7.179688 10.199219 7.628906 10.050781 7.929688 C 9.824219 8.378906 9.898438 9.578125 9.898438 9.578125 M 9.898438 12.277344 C 10.199219 12.578125 10.273438 12.503906 10.273438 12.429688 C 10.273438 12.355469 9.898438 12.277344 9.898438 12.277344 " clip-rule="nonzero"/></clipPath><clipPath id="99171430f6"><rect x="0" width="20" y="0" height="19"/></clipPath></defs><g transform="matrix(1, 0, 0, 1, 529, 383)"><g clip-path="url(#c5d1ffb6be)"><g clip-path="url(#7bc90fb8cf)"><path fill="#000000" d="M 9.992188 2.683594 C 9.992188 2.539062 9.410156 2.445312 8.238281 2.40625 C 7.746094 2.40625 7.429688 2.394531 7.285156 2.375 C 7.144531 2.355469 7.070312 2.253906 7.070312 2.066406 C 7.070312 2.046875 7.089844 1.933594 7.132812 1.730469 C 7.253906 1.320312 7.347656 1.09375 7.410156 1.050781 C 7.472656 1.011719 9.460938 0.992188 13.375 0.992188 C 17.273438 1.011719 19.355469 1.042969 19.621094 1.082031 C 20.933594 1.308594 22.03125 1.8125 22.914062 2.589844 C 23.792969 3.371094 24.246094 4.40625 24.265625 5.699219 C 24.265625 7.277344 23.589844 8.722656 22.234375 10.035156 C 20.820312 11.429688 18.996094 12.3125 16.761719 12.679688 C 16.617188 12.699219 15.539062 12.722656 13.53125 12.742188 L 10.609375 12.742188 L 9.683594 16.402344 C 9.070312 18.78125 8.761719 20.042969 8.761719 20.183594 C 8.761719 20.265625 8.773438 20.320312 8.792969 20.339844 C 8.8125 20.359375 8.886719 20.402344 9.007812 20.460938 C 9.132812 20.523438 9.304688 20.542969 9.53125 20.523438 C 9.757812 20.503906 10.09375 20.523438 10.546875 20.585938 L 11.5 20.585938 C 11.625 20.769531 11.683594 20.882812 11.683594 20.921875 C 11.683594 21.25 11.613281 21.558594 11.46875 21.847656 C 11.367188 21.949219 11.203125 22 10.976562 22 C 10.914062 22 10.535156 21.988281 9.839844 21.96875 C 9.140625 21.949219 8.117188 21.9375 6.761719 21.9375 C 5.492188 21.9375 4.519531 21.9375 3.839844 21.9375 C 3.164062 21.9375 2.796875 21.949219 2.734375 21.96875 C 2.363281 21.96875 2.179688 21.867188 2.179688 21.660156 C 2.179688 21.621094 2.210938 21.476562 2.273438 21.230469 C 2.355469 20.902344 2.4375 20.71875 2.519531 20.675781 C 2.601562 20.636719 2.835938 20.605469 3.226562 20.585938 C 3.78125 20.585938 4.394531 20.554688 5.070312 20.492188 C 5.359375 20.429688 5.554688 20.308594 5.65625 20.125 C 5.71875 20.042969 6.457031 17.191406 7.871094 11.574219 C 9.285156 5.953125 9.992188 2.992188 9.992188 2.683594 Z M 21.003906 4.960938 C 21.003906 4.691406 20.984375 4.476562 20.945312 4.3125 C 20.902344 4.148438 20.808594 3.921875 20.667969 3.636719 C 20.523438 3.347656 20.265625 3.125 19.898438 2.960938 C 19.527344 2.796875 19.027344 2.632812 18.390625 2.46875 C 18.246094 2.445312 17.425781 2.425781 15.929688 2.40625 C 15.582031 2.40625 15.222656 2.40625 14.851562 2.40625 C 14.484375 2.40625 14.1875 2.417969 13.960938 2.4375 C 13.734375 2.457031 13.613281 2.457031 13.59375 2.4375 C 13.324219 2.457031 13.140625 2.550781 13.039062 2.714844 C 12.996094 2.835938 12.800781 3.625 12.453125 5.082031 C 12.105469 6.539062 11.746094 7.953125 11.378906 9.328125 C 11.007812 10.699219 10.824219 11.398438 10.824219 11.417969 C 10.824219 11.460938 11.652344 11.480469 13.316406 11.480469 L 14.390625 11.480469 C 16.6875 11.480469 18.328125 10.96875 19.3125 9.941406 C 19.867188 9.386719 20.289062 8.578125 20.574219 7.511719 C 20.863281 6.445312 21.003906 5.59375 21.003906 4.960938 Z M 21.003906 4.960938 " fill-opacity="1" fill-rule="nonzero"/></g></g></g><g clip-path="url(#0683b2247d)"><g clip-path="url(#45392eab0c)"><g transform="matrix(1, 0, 0, 1, 175, 355)"><g clip-path="url(#48418e0104)"><g clip-path="url(#dd7b806ebe)"><g clip-path="url(#06d0240e02)"><path fill="#000000" d="M -2.648438 -2.957031 L 468.410156 -2.957031 L 468.410156 6.042969 L -2.648438 6.042969 Z M -2.648438 -2.957031 " fill-opacity="1" fill-rule="nonzero"/></g></g></g></g></g></g><g clip-path="url(#2c96993eb9)"><g clip-path="url(#b3d2b587c9)"><g transform="matrix(1, 0, 0, 1, 172, 342)"><g clip-path="url(#b9c8655c08)"><g clip-path="url(#0b49a1d9f7)"><g clip-path="url(#726dcc2336)"><rect x="-350.2" width="1166.4" fill="#000000" height="1166.39999" y="-520.199998" fill-opacity="1"/></g></g></g></g></g></g><g clip-path="url(#3356a92565)"><g clip-path="url(#b03333bb39)"><g transform="matrix(1, 0, 0, 1, 168, 356)"><g clip-path="url(#010de5b810)"><g clip-path="url(#eac874b860)"><g clip-path="url(#4f278bfc16)"><rect x="-346.2" width="1166.4" fill="#000000" height="1166.39999" y="-534.199998" fill-opacity="1"/></g></g></g></g></g></g><g clip-path="url(#d8935b0fa9)"><g clip-path="url(#18f221724f)"><g transform="matrix(1, 0, 0, 1, 604, 341)"><g clip-path="url(#ad0d8cec82)"><g clip-path="url(#fe301f61e0)"><g clip-path="url(#f04822d88c)"><rect x="-782.2" width="1166.4" fill="#000000" height="1166.39999" y="-519.199998" fill-opacity="1"/></g></g></g></g></g></g><g clip-path="url(#9a76ad38a1)"><g clip-path="url(#5539746037)"><g transform="matrix(1, 0, 0, 1, 614, 355)"><g clip-path="url(#3576b48ee2)"><g clip-path="url(#96153646f8)"><g clip-path="url(#44ddb5b93f)"><rect x="-792.2" width="1166.4" fill="#000000" height="1166.39999" y="-533.199998" fill-opacity="1"/></g></g></g></g></g></g><g clip-path="url(#9c814bfdaa)"><g clip-path="url(#20ae32f501)"><g transform="matrix(1, 0, 0, 1, 533, 347)"><g clip-path="url(#99171430f6)"><g clip-path="url(#f03fbf61c1)"><g clip-path="url(#ed1d022d4a)"><rect x="-711.2" width="1166.4" fill="#000000" height="1166.39999" y="-525.199998" fill-opacity="1"/></g></g></g></g></g></g></svg>