<svg xmlns="http://www.w3.org/2000/svg" xmlns:xlink="http://www.w3.org/1999/xlink" x="0" y="0" width="662" height="405" style="
        width:662px;
        height:405px;
        background: transparent;
        fill: none;
">
        
        
        <svg xmlns="http://www.w3.org/2000/svg" class="role-diagram-draw-area"><g class="shapes-region" style="stroke: black; fill: none;"><g class="composite-shape"><path class="real" d=" M129,32 L325,259 L129,259 Z" style="stroke-width: 2px; stroke: rgb(255, 255, 255); fill: none; fill-opacity: 1; stroke-opacity: 1;"/></g><g class="arrow-line"><path class="connection real" stroke-dasharray="" d="  M297,259 C287,252 294,233 305,236" style="stroke: rgb(255, 255, 255); stroke-width: 2px; fill: none; fill-opacity: 1; stroke-opacity: 1;"/></g><g class="composite-shape"><path class="real" d=" M129,240 L150,240 L150,259" style="stroke-width: 2px; stroke: rgb(255, 255, 255); fill: none; fill-opacity: 1; stroke-opacity: 1;"/></g><g/></g><g/><g/><g/></svg>
        <svg xmlns="http://www.w3.org/2000/svg" xmlns:xlink="http://www.w3.org/1999/xlink" width="660" height="403" style="width:660px;height:403px;font-family:Asana-Math, Asana;background:transparent;"><g><g><g><g><g><g><g transform="matrix(1,0,0,1,274,246.95001220703125)"><path transform="matrix(0.017,0,0,-0.017,0,0)" d="M237 -16C473 -16 572 316 576 504C578 618 546 702 419 702C159 702 72 412 69 199C67 80 101 -16 237 -16ZM401 676C536 676 506 491 485 381L169 381C194 485 272 676 401 676ZM253 13C102 13 147 261 163 349L479 349C454 237 396 13 253 13Z" stroke="rgb(255,255,255)" stroke-opacity="1" stroke-width="8" fill="rgb(255,255,255)" fill-opacity="1"></path></g></g></g></g></g></g></g><g><g><g><text x="117" y="11.75" style="white-space:pre;stroke:none;fill:rgb(255,255,255);fill-opacity:1;font-size:15px;font-family:Arial, Helvetica, sans-serif;font-weight:400;font-style:italic;dominant-baseline:text-before-edge;text-decoration:none;">A</text></g></g></g><g><g><g><text x="115" y="261.75" style="white-space:pre;stroke:none;fill:rgb(255,255,255);fill-opacity:1;font-size:15px;font-family:Arial, Helvetica, sans-serif;font-weight:400;font-style:italic;dominant-baseline:text-before-edge;text-decoration:none;">B</text></g></g></g><g><g><g><text x="328" y="261.75" style="white-space:pre;stroke:none;fill:rgb(255,255,255);fill-opacity:1;font-size:15px;font-family:Arial, Helvetica, sans-serif;font-weight:400;font-style:italic;dominant-baseline:text-before-edge;text-decoration:none;">C</text></g></g></g><g><g><g><text x="192.63330078125" y="264.816650390625" style="white-space:pre;stroke:none;fill:rgb(255,255,255);fill-opacity:1;font-size:15px;font-family:Arial, Helvetica, sans-serif;font-weight:400;font-style:normal;dominant-baseline:text-before-edge;text-decoration:none;">BASE</text></g></g></g><g transform="matrix(0.004886902454024052,-0.9999880590209089,0.9999880590209089,0.004886902454024052,-36.14010386664333,263.4495119064013)"><g><g><text x="85.9666748046875" y="141.13333129882812" style="white-space:pre;stroke:none;fill:rgb(255,255,255);fill-opacity:1;font-size:15px;font-family:Arial, Helvetica, sans-serif;font-weight:400;font-style:normal;dominant-baseline:text-before-edge;text-decoration:none;">HEIGHT</text></g></g></g><g transform="matrix(0.6557955456850313,0.7549385420414513,-0.7549385420414513,0.6557955456850313,178.76032698364935,-130.00573256697265)"><g><g><text x="180.2833251953125" y="122.2833251953125" style="white-space:pre;stroke:none;fill:rgb(255,255,255);fill-opacity:1;font-size:15px;font-family:Arial, Helvetica, sans-serif;font-weight:400;font-style:normal;dominant-baseline:text-before-edge;text-decoration:none;">HYPOTENUSE</text></g></g></g></svg>
</svg>
