<svg style="max-height: 500px" y="0" x="0" xmlns:xlink="http://www.w3.org/1999/xlink" xmlns="http://www.w3.org/2000/svg" viewBox="92.99220779220778 0 256.1844155844156 289.1554054054054" width="256.1844155844156" height="289.1554054054054">
        
        
        <svg style="overflow: visible;" class="role-diagram-draw-area" xmlns="http://www.w3.org/2000/svg"><g style="stroke: black; fill: none;" class="shapes-region"><g class="composite-shape"><path style="stroke-width: 2px; stroke: rgb(0, 0, 0); fill: none; fill-opacity: 1;" d="M129,32 L325,259 L129,259 Z" class="real"/></g><g class="arrow-line"><path style="stroke: rgb(0, 0, 0); stroke-width: 2px; fill: none; fill-opacity: 1;" d="M297,259 C287,252 294,233 305,236" stroke-dasharray="" class="connection real"/></g><g class="composite-shape"><path style="stroke-width: 2px; stroke: rgb(0, 0, 0); fill: none; fill-opacity: 1;" d="M129,240 L150,240 L150,259" class="real"/></g><g/></g><g/><g/><g/></svg>
        <svg style="width:700px;height:403px;font-family:Asana-Math, Asana;background:transparent;" height="403" width="700" xmlns:xlink="http://www.w3.org/1999/xlink" xmlns="http://www.w3.org/2000/svg"><g><g><g><g><g><g><g transform="matrix(1,0,0,1,274,246.7)"><path fill-opacity="1" fill="rgb(0,0,0)" stroke-width="8" stroke-opacity="1" stroke="rgb(0,0,0)" d="M237 -16C473 -16 572 316 576 504C578 618 546 702 419 702C159 702 72 412 69 199C67 80 101 -16 237 -16ZM401 676C536 676 506 491 485 381L169 381C194 485 272 676 401 676ZM253 13C102 13 147 261 163 349L479 349C454 237 396 13 253 13Z" transform="matrix(0.017,0,0,-0.017,0,0)"/></g></g></g></g></g></g></g><g><g><g><text style="white-space:pre;stroke:none;fill:rgb(0,0,0);fill-opacity:1;font-size:15px;font-family:Arial, Helvetica, sans-serif;font-weight:400;font-style:italic;dominant-baseline:text-before-edge;text-decoration:none;" y="11.5" x="117">A</text></g></g></g><g><g><g><text style="white-space:pre;stroke:none;fill:rgb(0,0,0);fill-opacity:1;font-size:15px;font-family:Arial, Helvetica, sans-serif;font-weight:400;font-style:italic;dominant-baseline:text-before-edge;text-decoration:none;" y="261.5" x="115">B</text></g></g></g><g><g><g><text style="white-space:pre;stroke:none;fill:rgb(0,0,0);fill-opacity:1;font-size:15px;font-family:Arial, Helvetica, sans-serif;font-weight:400;font-style:italic;dominant-baseline:text-before-edge;text-decoration:none;" y="261.5" x="328">C</text></g></g></g><g><g><g><text style="white-space:pre;stroke:none;fill:rgb(0,0,0);fill-opacity:1;font-size:15px;font-family:Arial, Helvetica, sans-serif;font-weight:400;font-style:normal;dominant-baseline:text-before-edge;text-decoration:none;" y="264.5666748046875" x="192.633349609375">BASE</text></g></g></g><g transform="matrix(0.004886902454024052,-0.9999880590209089,0.9999880590209089,0.004886902454024052,-36.12345212666382,263.4329322333407)"><g><g><text style="white-space:pre;stroke:none;fill:rgb(0,0,0);fill-opacity:1;font-size:15px;font-family:Arial, Helvetica, sans-serif;font-weight:400;font-style:normal;dominant-baseline:text-before-edge;text-decoration:none;" y="140.8666748046875" x="85.9666748046875">HEIGHT</text></g></g></g><g transform="matrix(0.6557955456850313,0.7549385420414513,-0.7549385420414513,0.6557955456850313,178.74911389976603,-130.0077992320794)"><g><g><text style="white-space:pre;stroke:none;fill:rgb(0,0,0);fill-opacity:1;font-size:15px;font-family:Arial, Helvetica, sans-serif;font-weight:400;font-style:normal;dominant-baseline:text-before-edge;text-decoration:none;" y="122.0199951171875" x="180.27998046875">HYPOTENUSE</text></g></g></g></svg>
</svg>