<svg xmlns="http://www.w3.org/2000/svg" xmlns:xlink="http://www.w3.org/1999/xlink" width="1080" zoomAndPan="magnify" viewBox="0 0 810 809.999993" height="1080" preserveAspectRatio="xMidYMid meet" version="1.0"><defs><clipPath id="f1f4d0c72b"><path d="M 196.9375 444.289062 L 483.988281 444.289062 L 483.988281 451 L 196.9375 451 Z M 196.9375 444.289062 " clip-rule="nonzero"/></clipPath><clipPath id="94d91f3ad9"><path d="M 198.449219 444.300781 C 483.601562 444.75 483.976562 445.351562 483.976562 445.875 C 483.898438 446.324219 482.851562 447.226562 482.324219 447.300781 C 481.875 447.300781 481.273438 446.851562 481.125 446.476562 C 480.976562 446.023438 481.050781 445.050781 481.425781 444.675781 C 481.800781 444.375 482.773438 444.300781 483.226562 444.449219 C 483.601562 444.675781 483.976562 445.273438 483.976562 445.726562 C 483.898438 446.175781 483.601562 446.773438 482.476562 447.300781 C 469.574219 452.773438 211.199219 452.101562 198.449219 447.300781 C 197.324219 446.851562 196.949219 446.398438 196.949219 445.949219 C 196.875 445.425781 198.449219 444.300781 198.449219 444.300781 " clip-rule="nonzero"/></clipPath><clipPath id="bb8190556b"><path d="M 0.9375 0.289062 L 287.988281 0.289062 L 287.988281 6.480469 L 0.9375 6.480469 Z M 0.9375 0.289062 " clip-rule="nonzero"/></clipPath><clipPath id="3fab63b867"><path d="M 2.449219 0.300781 C 287.601562 0.75 287.976562 1.351562 287.976562 1.875 C 287.898438 2.324219 286.851562 3.226562 286.324219 3.300781 C 285.875 3.300781 285.273438 2.851562 285.125 2.476562 C 284.976562 2.023438 285.050781 1.050781 285.425781 0.675781 C 285.800781 0.375 286.773438 0.300781 287.226562 0.449219 C 287.601562 0.675781 287.976562 1.273438 287.976562 1.726562 C 287.898438 2.175781 287.601562 2.773438 286.476562 3.300781 C 273.574219 8.773438 15.199219 8.101562 2.449219 3.300781 C 1.324219 2.851562 0.949219 2.398438 0.949219 1.949219 C 0.875 1.425781 2.449219 0.300781 2.449219 0.300781 " clip-rule="nonzero"/></clipPath><clipPath id="8d7b091ab1"><rect x="0" width="288" y="0" height="7"/></clipPath><clipPath id="1ab9ea4d9b"><path d="M 475.488281 209.164062 L 482 209.164062 L 482 448.683594 L 475.488281 448.683594 Z M 475.488281 209.164062 " clip-rule="nonzero"/></clipPath><clipPath id="babe95e5da"><path d="M 475.5 447.148438 C 476.023438 209.550781 476.625 209.101562 477.074219 209.175781 C 477.601562 209.175781 478.5 210.300781 478.5 210.824219 C 478.574219 211.199219 478.125 211.800781 477.75 211.949219 C 477.300781 212.175781 476.25 212.023438 475.949219 211.648438 C 475.574219 211.351562 475.5 210.300781 475.726562 209.851562 C 475.949219 209.476562 476.550781 209.101562 476.925781 209.175781 C 477.449219 209.175781 478.050781 209.550781 478.5 210.675781 C 483.523438 222.300781 483.75 435.523438 478.5 447.148438 C 478.050781 448.273438 477.375 448.648438 476.851562 448.648438 C 476.398438 448.574219 475.5 447.148438 475.5 447.148438 " clip-rule="nonzero"/></clipPath><clipPath id="cbba51600a"><path d="M 0.488281 0.164062 L 6.679688 0.164062 L 6.679688 239.683594 L 0.488281 239.683594 Z M 0.488281 0.164062 " clip-rule="nonzero"/></clipPath><clipPath id="dd98b9a31f"><path d="M 0.5 238.148438 C 1.023438 0.550781 1.625 0.101562 2.074219 0.175781 C 2.601562 0.175781 3.5 1.300781 3.5 1.824219 C 3.574219 2.199219 3.125 2.800781 2.75 2.949219 C 2.300781 3.175781 1.25 3.023438 0.949219 2.648438 C 0.574219 2.351562 0.5 1.300781 0.726562 0.851562 C 0.949219 0.476562 1.550781 0.101562 1.925781 0.175781 C 2.449219 0.175781 3.050781 0.550781 3.5 1.675781 C 8.523438 13.300781 8.75 226.523438 3.5 238.148438 C 3.050781 239.273438 2.375 239.648438 1.851562 239.648438 C 1.398438 239.574219 0.5 238.148438 0.5 238.148438 " clip-rule="nonzero"/></clipPath><clipPath id="314c603fa0"><rect x="0" width="7" y="0" height="240"/></clipPath><clipPath id="69e4399628"><path d="M 194.238281 444.289062 L 483.996094 444.289062 L 483.996094 451 L 194.238281 451 Z M 194.238281 444.289062 " clip-rule="nonzero"/></clipPath><clipPath id="15df15b6c7"><path d="M 195.675781 444.300781 C 483.601562 444.75 483.976562 445.351562 483.976562 445.875 C 483.898438 446.324219 482.851562 447.226562 482.324219 447.300781 C 481.875 447.300781 481.273438 446.851562 481.125 446.476562 C 480.976562 446.023438 481.050781 445.050781 481.425781 444.675781 C 481.800781 444.375 482.773438 444.300781 483.226562 444.449219 C 483.601562 444.675781 483.976562 445.273438 483.976562 445.726562 C 483.898438 446.175781 483.601562 446.773438 482.476562 447.300781 C 469.5 452.851562 208.574219 452.175781 195.675781 447.300781 C 194.625 446.851562 194.25 446.398438 194.25 445.949219 C 194.175781 445.425781 195.675781 444.300781 195.675781 444.300781 " clip-rule="nonzero"/></clipPath><clipPath id="284ed71036"><path d="M 0.238281 0.289062 L 289.996094 0.289062 L 289.996094 6.480469 L 0.238281 6.480469 Z M 0.238281 0.289062 " clip-rule="nonzero"/></clipPath><clipPath id="69a10e1d4f"><path d="M 1.675781 0.300781 C 289.601562 0.75 289.976562 1.351562 289.976562 1.875 C 289.898438 2.324219 288.851562 3.226562 288.324219 3.300781 C 287.875 3.300781 287.273438 2.851562 287.125 2.476562 C 286.976562 2.023438 287.050781 1.050781 287.425781 0.675781 C 287.800781 0.375 288.773438 0.300781 289.226562 0.449219 C 289.601562 0.675781 289.976562 1.273438 289.976562 1.726562 C 289.898438 2.175781 289.601562 2.773438 288.476562 3.300781 C 275.5 8.851562 14.574219 8.175781 1.675781 3.300781 C 0.625 2.851562 0.25 2.398438 0.25 1.949219 C 0.175781 1.425781 1.675781 0.300781 1.675781 0.300781 " clip-rule="nonzero"/></clipPath><clipPath id="7d9b14b773"><rect x="0" width="290" y="0" height="7"/></clipPath><clipPath id="c38301e814"><path d="M 203 220 L 488 220 L 488 455 L 203 455 Z M 203 220 " clip-rule="nonzero"/></clipPath><clipPath id="c195620624"><path d="M 202.171875 452.894531 L 486.34375 219.808594 L 491.914062 226.597656 L 207.742188 459.6875 Z M 202.171875 452.894531 " clip-rule="nonzero"/></clipPath><clipPath id="0a9ca88087"><path d="M 203.589844 451.75 C 486.328125 220.578125 487.175781 220.863281 487.601562 221.378906 C 487.886719 221.882812 487.582031 223.609375 487.128906 224.105469 C 486.6875 224.464844 485.734375 224.507812 485.289062 224.261719 C 484.777344 223.941406 484.066406 222.921875 484.132812 222.253906 C 484.261719 221.660156 485.15625 220.800781 485.71875 220.585938 C 486.265625 220.503906 487.117188 220.792969 487.480469 221.234375 C 487.769531 221.734375 487.957031 222.5625 487.273438 223.984375 C 479.015625 239.863281 222.574219 449.097656 206.003906 454.691406 C 204.609375 455.09375 203.882812 454.957031 203.519531 454.515625 C 203.023438 454.058594 203.589844 451.75 203.589844 451.75 " clip-rule="nonzero"/></clipPath><clipPath id="aa0c5ded44"><path d="M 0 0.320312 L 285 0.320312 L 285 235 L 0 235 Z M 0 0.320312 " clip-rule="nonzero"/></clipPath><clipPath id="80c8174a23"><path d="M -0.828125 232.894531 L 283.34375 -0.191406 L 288.914062 6.597656 L 4.742188 239.6875 Z M -0.828125 232.894531 " clip-rule="nonzero"/></clipPath><clipPath id="c4524dba7c"><path d="M 0.589844 231.75 C 283.328125 0.578125 284.175781 0.863281 284.601562 1.378906 C 284.886719 1.882812 284.582031 3.609375 284.128906 4.105469 C 283.6875 4.464844 282.734375 4.507812 282.289062 4.261719 C 281.777344 3.941406 281.066406 2.921875 281.132812 2.253906 C 281.261719 1.660156 282.15625 0.800781 282.71875 0.585938 C 283.265625 0.503906 284.117188 0.792969 284.480469 1.234375 C 284.769531 1.734375 284.957031 2.5625 284.273438 3.984375 C 276.015625 19.863281 19.574219 229.097656 3.003906 234.691406 C 1.609375 235.09375 0.882812 234.957031 0.519531 234.515625 C 0.0234375 234.058594 0.589844 231.75 0.589844 231.75 " clip-rule="nonzero"/></clipPath><clipPath id="a9e977e438"><rect x="0" width="285" y="0" height="235"/></clipPath><clipPath id="6f1cc22dc4"><path d="M 441.589844 418.53125 L 475.832031 418.53125 L 475.832031 423.3125 L 441.589844 423.3125 Z M 441.589844 418.53125 " clip-rule="nonzero"/></clipPath><clipPath id="bb1dfd9b53"><path d="M 474.300781 422.773438 C 442.125 422.476562 441.675781 421.949219 441.601562 421.5 C 441.523438 420.976562 441.976562 420.226562 442.726562 419.851562 C 444.449219 418.949219 451.949219 419.25 453.898438 419.773438 C 454.648438 420.074219 455.175781 420.300781 455.324219 420.75 C 455.476562 421.273438 455.101562 422.324219 454.574219 422.625 C 453.976562 423 451.875 422.625 451.425781 422.175781 C 451.125 421.875 451.125 421.125 451.273438 420.75 C 451.425781 420.375 452.398438 419.699219 452.699219 419.773438 C 453 420 452.925781 422.625 452.550781 422.773438 C 452.324219 422.925781 451.5 422.550781 451.351562 422.175781 C 451.125 421.726562 451.125 420.675781 451.425781 420.375 C 451.726562 420 452.773438 419.773438 453.226562 419.925781 C 453.601562 420.074219 453.976562 420.675781 454.050781 421.050781 C 454.125 421.5 453.898438 422.101562 453.601562 422.398438 C 453.226562 422.699219 452.25 422.773438 451.800781 422.625 C 451.425781 422.398438 451.050781 421.800781 451.050781 421.425781 C 451.125 420.898438 452.25 419.699219 452.550781 419.773438 C 452.925781 419.925781 453 422.625 452.699219 422.773438 C 452.398438 422.925781 451.425781 422.25 451.273438 421.875 C 451.125 421.425781 451.125 420.75 451.425781 420.449219 C 451.875 420 453.976562 419.625 454.574219 420 C 455.101562 420.300781 455.476562 421.351562 455.324219 421.875 C 455.175781 422.25 454.648438 422.550781 453.898438 422.773438 C 451.949219 423.375 444.449219 423.523438 442.726562 422.773438 C 442.050781 422.476562 441.601562 421.949219 441.601562 421.5 C 441.523438 420.976562 441.898438 420.300781 442.726562 419.851562 C 446.023438 418.125 470.625 418.125 474.300781 419.773438 C 475.273438 420.226562 475.800781 420.976562 475.800781 421.5 C 475.800781 421.949219 474.300781 422.773438 474.300781 422.773438 " clip-rule="nonzero"/></clipPath><clipPath id="eabd01cf69"><path d="M 0.589844 0.53125 L 34.832031 0.53125 L 34.832031 5.3125 L 0.589844 5.3125 Z M 0.589844 0.53125 " clip-rule="nonzero"/></clipPath><clipPath id="4ac29d9ca0"><path d="M 33.300781 4.773438 C 1.125 4.476562 0.675781 3.949219 0.601562 3.5 C 0.523438 2.976562 0.976562 2.226562 1.726562 1.851562 C 3.449219 0.949219 10.949219 1.25 12.898438 1.773438 C 13.648438 2.074219 14.175781 2.300781 14.324219 2.75 C 14.476562 3.273438 14.101562 4.324219 13.574219 4.625 C 12.976562 5 10.875 4.625 10.425781 4.175781 C 10.125 3.875 10.125 3.125 10.273438 2.75 C 10.425781 2.375 11.398438 1.699219 11.699219 1.773438 C 12 2 11.925781 4.625 11.550781 4.773438 C 11.324219 4.925781 10.5 4.550781 10.351562 4.175781 C 10.125 3.726562 10.125 2.675781 10.425781 2.375 C 10.726562 2 11.773438 1.773438 12.226562 1.925781 C 12.601562 2.074219 12.976562 2.675781 13.050781 3.050781 C 13.125 3.5 12.898438 4.101562 12.601562 4.398438 C 12.226562 4.699219 11.25 4.773438 10.800781 4.625 C 10.425781 4.398438 10.050781 3.800781 10.050781 3.425781 C 10.125 2.898438 11.25 1.699219 11.550781 1.773438 C 11.925781 1.925781 12 4.625 11.699219 4.773438 C 11.398438 4.925781 10.425781 4.25 10.273438 3.875 C 10.125 3.425781 10.125 2.75 10.425781 2.449219 C 10.875 2 12.976562 1.625 13.574219 2 C 14.101562 2.300781 14.476562 3.351562 14.324219 3.875 C 14.175781 4.25 13.648438 4.550781 12.898438 4.773438 C 10.949219 5.375 3.449219 5.523438 1.726562 4.773438 C 1.050781 4.476562 0.601562 3.949219 0.601562 3.5 C 0.523438 2.976562 0.898438 2.300781 1.726562 1.851562 C 5.023438 0.125 29.625 0.125 33.300781 1.773438 C 34.273438 2.226562 34.800781 2.976562 34.800781 3.5 C 34.800781 3.949219 33.300781 4.773438 33.300781 4.773438 " clip-rule="nonzero"/></clipPath><clipPath id="a06cdbd77f"><rect x="0" width="35" y="0" height="6"/></clipPath><clipPath id="adcc8f9255"><path d="M 443.023438 414.363281 L 447.3125 414.363281 L 447.3125 450 L 443.023438 450 Z M 443.023438 414.363281 " clip-rule="nonzero"/></clipPath><clipPath id="3fe53cff4f"><path d="M 447.300781 415.875 C 446.851562 449.476562 446.175781 450 445.726562 450 C 445.199219 449.925781 444.300781 448.875 444.300781 448.351562 C 444.226562 447.898438 444.675781 447.300781 445.050781 447.148438 C 445.5 447 446.550781 447.074219 446.851562 447.449219 C 447.226562 447.824219 447.300781 448.800781 447.074219 449.25 C 446.851562 449.625 446.25 450 445.875 450 C 445.351562 449.925781 444.675781 449.476562 444.300781 448.5 C 442.648438 444.75 442.574219 419.625 444.300781 415.875 C 444.75 414.898438 445.425781 414.375 445.949219 414.375 C 446.398438 414.449219 447.300781 415.875 447.300781 415.875 " clip-rule="nonzero"/></clipPath><clipPath id="aec841d37c"><path d="M 0.0234375 0.363281 L 4.3125 0.363281 L 4.3125 36 L 0.0234375 36 Z M 0.0234375 0.363281 " clip-rule="nonzero"/></clipPath><clipPath id="b42c0fd8b3"><path d="M 4.300781 1.875 C 3.851562 35.476562 3.175781 36 2.726562 36 C 2.199219 35.925781 1.300781 34.875 1.300781 34.351562 C 1.226562 33.898438 1.675781 33.300781 2.050781 33.148438 C 2.5 33 3.550781 33.074219 3.851562 33.449219 C 4.226562 33.824219 4.300781 34.800781 4.074219 35.25 C 3.851562 35.625 3.25 36 2.875 36 C 2.351562 35.925781 1.675781 35.476562 1.300781 34.5 C -0.351562 30.75 -0.425781 5.625 1.300781 1.875 C 1.75 0.898438 2.425781 0.375 2.949219 0.375 C 3.398438 0.449219 4.300781 1.875 4.300781 1.875 " clip-rule="nonzero"/></clipPath><clipPath id="9e655f895c"><rect x="0" width="5" y="0" height="36"/></clipPath><clipPath id="afe7b077bb"><path d="M 1 1 L 14.851562 1 L 14.851562 23.273438 L 1 23.273438 Z M 1 1 " clip-rule="nonzero"/></clipPath><clipPath id="3ca4bab345"><rect x="0" width="15" y="0" height="24"/></clipPath><clipPath id="532da01ef9"><path d="M 1 0.554688 L 23.953125 0.554688 L 23.953125 22.828125 L 1 22.828125 Z M 1 0.554688 " clip-rule="nonzero"/></clipPath><clipPath id="b2dbddf950"><rect x="0" width="25" y="0" height="23"/></clipPath><clipPath id="9c41f8df92"><path d="M 1 0.59375 L 24.339844 0.59375 L 24.339844 21.796875 L 1 21.796875 Z M 1 0.59375 " clip-rule="nonzero"/></clipPath><clipPath id="30f6fa2a0c"><rect x="0" width="25" y="0" height="22"/></clipPath><clipPath id="9235086f43"><path d="M 2 0.894531 L 24.332031 0.894531 L 24.332031 23.378906 L 2 23.378906 Z M 2 0.894531 " clip-rule="nonzero"/></clipPath><clipPath id="4bc3da26a3"><rect x="0" width="25" y="0" height="24"/></clipPath></defs><g clip-path="url(#f1f4d0c72b)"><g clip-path="url(#94d91f3ad9)"><g transform="matrix(1, 0, 0, 1, 196, 444)"><g clip-path="url(#8d7b091ab1)"><g clip-path="url(#bb8190556b)"><g clip-path="url(#3fab63b867)"><path fill="#000000" d="M -2.050781 -2.699219 L 291.046875 -2.699219 L 291.046875 6.300781 L -2.050781 6.300781 Z M -2.050781 -2.699219 " fill-opacity="1" fill-rule="nonzero"/></g></g></g></g></g></g><g clip-path="url(#1ab9ea4d9b)"><g clip-path="url(#babe95e5da)"><g transform="matrix(1, 0, 0, 1, 475, 209)"><g clip-path="url(#314c603fa0)"><g clip-path="url(#cbba51600a)"><g clip-path="url(#dd98b9a31f)"><path fill="#000000" d="M -2.5 -2.824219 L 6.5 -2.824219 L 6.5 242.636719 L -2.5 242.636719 Z M -2.5 -2.824219 " fill-opacity="1" fill-rule="nonzero"/></g></g></g></g></g></g><g clip-path="url(#69e4399628)"><g clip-path="url(#15df15b6c7)"><g transform="matrix(1, 0, 0, 1, 194, 444)"><g clip-path="url(#7d9b14b773)"><g clip-path="url(#284ed71036)"><g clip-path="url(#69a10e1d4f)"><path fill="#000000" d="M -2.75 -2.699219 L 293.054688 -2.699219 L 293.054688 6.300781 L -2.75 6.300781 Z M -2.75 -2.699219 " fill-opacity="1" fill-rule="nonzero"/></g></g></g></g></g></g><g clip-path="url(#c38301e814)"><g clip-path="url(#c195620624)"><g clip-path="url(#0a9ca88087)"><g transform="matrix(1, 0, 0, 1, 203, 220)"><g clip-path="url(#a9e977e438)"><g clip-path="url(#aa0c5ded44)"><g clip-path="url(#80c8174a23)"><g clip-path="url(#c4524dba7c)"><path fill="#000000" d="M -6.164062 232.367188 L 283.941406 -5.585938 L 291.179688 3.242188 L 1.078125 241.195312 Z M -6.164062 232.367188 " fill-opacity="1" fill-rule="nonzero"/></g></g></g></g></g></g></g></g><g clip-path="url(#6f1cc22dc4)"><g clip-path="url(#bb1dfd9b53)"><g transform="matrix(1, 0, 0, 1, 441, 418)"><g clip-path="url(#a06cdbd77f)"><g clip-path="url(#eabd01cf69)"><g clip-path="url(#4ac29d9ca0)"><rect x="-619.2" width="1166.4" fill="#000000" height="1166.39999" y="-596.199998" fill-opacity="1"/></g></g></g></g></g></g><g clip-path="url(#adcc8f9255)"><g clip-path="url(#3fe53cff4f)"><g transform="matrix(1, 0, 0, 1, 443, 414)"><g clip-path="url(#9e655f895c)"><g clip-path="url(#aec841d37c)"><g clip-path="url(#b42c0fd8b3)"><rect x="-621.2" width="1166.4" fill="#000000" height="1166.39999" y="-592.199998" fill-opacity="1"/></g></g></g></g></g></g><path stroke-linecap="butt" transform="matrix(0.421276, 0.620505, -0.620505, 0.421276, 274.416758, 393.768048)" fill="none" stroke-linejoin="miter" d="M 2.333891 25.189866 C 26.222706 -4.395858 50.114686 -4.397935 74.006905 25.187943 " stroke="#000000" stroke-width="6" stroke-opacity="1" stroke-miterlimit="4"/><g transform="matrix(1, 0, 0, 1, 300, 404)"><g clip-path="url(#3ca4bab345)"><g clip-path="url(#afe7b077bb)"><path fill="#000000" d="M 1.375 16.714844 C 1.375 14.605469 1.777344 12.378906 2.585938 10.039062 C 3.394531 7.699219 4.492188 5.683594 5.878906 3.984375 C 7.265625 2.289062 8.703125 1.316406 10.195312 1.066406 C 10.214844 1.066406 10.296875 1.066406 10.441406 1.066406 C 10.585938 1.066406 10.710938 1.054688 10.816406 1.035156 C 11.933594 1.117188 12.800781 1.625 13.421875 2.558594 C 14.230469 3.800781 14.632812 5.464844 14.632812 7.554688 C 14.632812 9.9375 14.167969 12.359375 13.238281 14.820312 C 12.304688 17.285156 11.113281 19.304688 9.667969 20.875 C 8.21875 22.449219 6.828125 23.238281 5.503906 23.238281 L 5.289062 23.238281 C 4.542969 23.238281 3.902344 23.03125 3.363281 22.617188 C 2.824219 22.203125 2.421875 21.652344 2.152344 20.96875 C 1.882812 20.285156 1.6875 19.59375 1.5625 18.890625 C 1.4375 18.1875 1.375 17.460938 1.375 16.714844 Z M 12.179688 5.351562 C 12.179688 3.238281 11.632812 2.183594 10.535156 2.183594 C 9.789062 2.183594 9.066406 2.648438 8.363281 3.582031 C 7.65625 4.511719 7.078125 5.570312 6.625 6.75 C 6.167969 7.929688 5.816406 8.964844 5.566406 9.855469 C 5.320312 10.742188 5.183594 11.261719 5.164062 11.40625 C 6.179688 11.425781 7.183594 11.4375 8.175781 11.4375 L 11.1875 11.40625 C 11.207031 11.386719 11.289062 11.042969 11.4375 10.382812 C 11.582031 9.71875 11.746094 8.890625 11.933594 7.898438 C 12.117188 6.902344 12.203125 6.054688 12.179688 5.351562 Z M 3.796875 18.828125 C 3.796875 21.023438 4.347656 22.117188 5.441406 22.117188 C 5.753906 22.117188 6.085938 22.015625 6.4375 21.808594 C 6.789062 21.601562 7.214844 21.207031 7.710938 20.628906 C 8.207031 20.050781 8.703125 19.148438 9.199219 17.925781 C 9.695312 16.707031 10.195312 15.195312 10.691406 13.394531 L 10.847656 12.867188 L 4.792969 12.867188 C 4.792969 12.929688 4.699219 13.320312 4.511719 14.046875 C 4.324219 14.769531 4.160156 15.578125 4.015625 16.46875 C 3.871094 17.359375 3.796875 18.144531 3.796875 18.828125 Z M 3.796875 18.828125 " fill-opacity="1" fill-rule="nonzero"/></g></g></g><g transform="matrix(1, 0, 0, 1, 472, 175)"><g clip-path="url(#b2dbddf950)"><g clip-path="url(#532da01ef9)"><path fill="#000000" d="M 7.085938 20.527344 C 7.085938 21.023438 7.5625 21.3125 8.515625 21.398438 C 8.890625 21.398438 9.078125 21.511719 9.078125 21.738281 C 9.078125 21.757812 9.054688 21.894531 9.015625 22.144531 C 8.953125 22.433594 8.890625 22.621094 8.828125 22.703125 C 8.765625 22.785156 8.632812 22.828125 8.425781 22.828125 C 8.382812 22.828125 8.257812 22.828125 8.050781 22.828125 C 7.84375 22.828125 7.492188 22.816406 6.992188 22.796875 C 6.496094 22.777344 5.832031 22.765625 5.003906 22.765625 C 3.53125 22.765625 2.585938 22.785156 2.171875 22.828125 L 1.921875 22.828125 C 1.777344 22.683594 1.707031 22.566406 1.707031 22.484375 C 1.746094 21.925781 1.882812 21.5625 2.109375 21.398438 L 2.546875 21.398438 C 3.996094 21.335938 5.054688 20.816406 5.71875 19.839844 C 5.84375 19.714844 7.71875 16.554688 11.347656 10.355469 C 14.976562 4.152344 16.824219 1.011719 16.886719 0.929688 C 17.03125 0.679688 17.277344 0.554688 17.632812 0.554688 L 18.410156 0.554688 C 18.535156 0.742188 18.597656 0.84375 18.597656 0.867188 L 19.46875 10.914062 C 20.046875 17.613281 20.359375 20.992188 20.398438 21.054688 C 20.503906 21.28125 21.179688 21.398438 22.421875 21.398438 C 22.941406 21.398438 23.199219 21.5 23.199219 21.707031 C 23.199219 21.75 23.167969 21.894531 23.105469 22.144531 C 23.042969 22.453125 22.992188 22.640625 22.949219 22.703125 C 22.910156 22.765625 22.765625 22.808594 22.515625 22.828125 C 22.453125 22.828125 22.308594 22.828125 22.078125 22.828125 C 21.851562 22.828125 21.449219 22.816406 20.867188 22.796875 C 20.285156 22.777344 19.527344 22.765625 18.597656 22.765625 C 16.648438 22.765625 15.371094 22.785156 14.769531 22.828125 L 14.398438 22.828125 C 14.273438 22.703125 14.210938 22.609375 14.210938 22.546875 C 14.210938 22.484375 14.230469 22.296875 14.273438 21.988281 C 14.355469 21.71875 14.417969 21.550781 14.457031 21.488281 L 14.582031 21.398438 L 15.207031 21.398438 C 16.324219 21.335938 16.988281 21.15625 17.195312 20.867188 L 16.824219 16.203125 L 9.417969 16.203125 L 8.363281 18.007812 C 7.511719 19.4375 7.085938 20.277344 7.085938 20.527344 Z M 16.667969 14.738281 C 16.667969 14.511719 16.542969 12.894531 16.292969 9.886719 C 16.046875 6.878906 15.898438 5.367188 15.859375 5.34375 L 15.019531 6.683594 C 14.6875 7.242188 14.035156 8.351562 13.058594 10.011719 L 10.257812 14.738281 L 13.464844 14.769531 C 15.597656 14.769531 16.667969 14.761719 16.667969 14.738281 Z M 16.667969 14.738281 " fill-opacity="1" fill-rule="nonzero"/></g></g></g><g transform="matrix(1, 0, 0, 1, 479, 450)"><g clip-path="url(#30f6fa2a0c)"><g clip-path="url(#9c41f8df92)"><path fill="#000000" d="M 7.953125 2.023438 C 7.394531 2.023438 7.0625 2.011719 6.960938 1.992188 C 6.855469 1.972656 6.804688 1.859375 6.804688 1.652344 C 6.804688 1.09375 6.917969 0.75 7.148438 0.625 C 7.167969 0.605469 8.511719 0.59375 11.179688 0.59375 C 16.539062 0.59375 19.363281 0.617188 19.65625 0.65625 C 20.957031 0.863281 22.042969 1.332031 22.914062 2.054688 C 23.78125 2.777344 24.226562 3.730469 24.25 4.910156 C 24.25 6.234375 23.648438 7.421875 22.449219 8.480469 C 21.246094 9.535156 19.871094 10.25 18.320312 10.621094 L 18.007812 10.714844 C 19.332031 10.898438 20.421875 11.375 21.269531 12.140625 C 22.117188 12.90625 22.550781 13.859375 22.570312 14.996094 C 22.570312 16.507812 21.828125 17.964844 20.335938 19.375 C 18.847656 20.78125 17.015625 21.578125 14.84375 21.761719 C 14.699219 21.785156 12.515625 21.792969 8.296875 21.792969 C 4.15625 21.792969 2.054688 21.773438 1.996094 21.730469 C 1.910156 21.671875 1.871094 21.585938 1.871094 21.484375 C 1.871094 21.339844 1.890625 21.195312 1.933594 21.050781 C 2.035156 20.65625 2.140625 20.4375 2.242188 20.398438 C 2.324219 20.375 2.480469 20.367188 2.707031 20.367188 L 2.894531 20.367188 C 3.453125 20.367188 4.074219 20.335938 4.757812 20.273438 C 5.046875 20.210938 5.242188 20.085938 5.347656 19.902344 C 5.410156 19.816406 6.152344 16.941406 7.582031 11.273438 C 9.007812 5.601562 9.722656 2.613281 9.722656 2.300781 C 9.722656 2.15625 9.132812 2.066406 7.953125 2.023438 Z M 20.925781 4.910156 C 20.925781 4.289062 20.773438 3.710938 20.460938 3.171875 C 20.152344 2.632812 19.644531 2.28125 18.941406 2.117188 C 18.796875 2.074219 17.84375 2.042969 16.085938 2.023438 C 15.671875 2.023438 15.238281 2.023438 14.78125 2.023438 C 14.328125 2.023438 13.964844 2.035156 13.695312 2.054688 L 13.292969 2.054688 C 12.980469 2.074219 12.785156 2.179688 12.703125 2.363281 C 12.660156 2.449219 12.328125 3.6875 11.710938 6.089844 C 11.710938 6.152344 11.699219 6.214844 11.679688 6.277344 L 10.714844 10.1875 L 13.230469 10.1875 C 14.90625 10.1875 15.867188 10.164062 16.117188 10.125 C 17.359375 9.917969 18.464844 9.316406 19.4375 8.324219 C 20.410156 7.332031 20.90625 6.191406 20.925781 4.910156 Z M 19.25 14.6875 C 19.25 13.777344 19.011719 13.019531 18.539062 12.421875 C 18.0625 11.820312 17.441406 11.46875 16.675781 11.367188 C 16.550781 11.34375 15.691406 11.335938 14.097656 11.335938 C 11.65625 11.335938 10.425781 11.34375 10.40625 11.367188 C 10.40625 11.40625 10.230469 12.164062 9.878906 13.632812 C 9.527344 15.101562 9.164062 16.558594 8.792969 18.007812 L 8.234375 20.179688 C 8.234375 20.261719 8.355469 20.304688 8.605469 20.304688 C 8.855469 20.304688 9.691406 20.324219 11.121094 20.367188 C 12.960938 20.367188 13.953125 20.355469 14.097656 20.335938 C 15.382812 20.191406 16.5625 19.589844 17.636719 18.535156 C 18.714844 17.480469 19.25 16.195312 19.25 14.6875 Z M 19.25 14.6875 " fill-opacity="1" fill-rule="nonzero"/></g></g></g><g transform="matrix(1, 0, 0, 1, 177, 452)"><g clip-path="url(#4bc3da26a3)"><g clip-path="url(#9235086f43)"><path fill="#000000" d="M 2.347656 14.90625 C 2.347656 12.53125 3.039062 10.253906 4.421875 8.070312 C 5.800781 5.882812 7.542969 4.152344 9.648438 2.871094 C 11.75 1.59375 13.855469 0.945312 15.957031 0.925781 C 17.8125 0.925781 19.289062 1.449219 20.378906 2.5 C 20.566406 2.707031 20.71875 2.882812 20.84375 3.027344 C 20.96875 3.171875 21.050781 3.273438 21.089844 3.335938 L 21.121094 3.429688 C 21.183594 3.429688 21.460938 3.160156 21.957031 2.625 C 22.101562 2.5 22.257812 2.355469 22.421875 2.191406 C 22.585938 2.027344 22.75 1.863281 22.917969 1.695312 C 23.082031 1.53125 23.183594 1.417969 23.226562 1.355469 L 23.691406 0.894531 L 23.875 0.894531 C 24.164062 0.894531 24.308594 0.964844 24.308594 1.109375 C 24.308594 1.191406 23.980469 2.605469 23.320312 5.347656 C 22.578125 8.214844 22.207031 9.65625 22.207031 9.675781 C 22.164062 9.78125 22.113281 9.84375 22.050781 9.863281 C 21.988281 9.882812 21.804688 9.902344 21.492188 9.925781 L 21 9.925781 C 20.875 9.800781 20.8125 9.707031 20.8125 9.644531 C 20.8125 9.625 20.824219 9.554688 20.84375 9.429688 C 20.863281 9.304688 20.886719 9.101562 20.90625 8.8125 C 20.925781 8.523438 20.9375 8.191406 20.9375 7.820312 C 20.9375 6.355469 20.605469 5.078125 19.949219 3.984375 C 19.289062 2.894531 18.164062 2.335938 16.574219 2.316406 C 16.039062 2.316406 15.460938 2.386719 14.84375 2.53125 C 14.226562 2.675781 13.484375 2.925781 12.617188 3.273438 C 11.75 3.625 10.894531 4.203125 10.050781 5.007812 C 9.203125 5.8125 8.453125 6.769531 7.792969 7.882812 C 7.132812 9.058594 6.605469 10.429688 6.214844 11.996094 C 5.824219 13.5625 5.625 14.84375 5.625 15.832031 C 5.625 18.183594 6.410156 19.875 7.976562 20.90625 C 8.96875 21.605469 10.183594 21.957031 11.628906 21.957031 C 13.503906 21.957031 15.171875 21.253906 16.636719 19.851562 C 18.101562 18.449219 19.070312 16.925781 19.546875 15.277344 C 19.628906 15.007812 19.691406 14.851562 19.730469 14.8125 C 19.773438 14.769531 19.9375 14.75 20.226562 14.75 C 20.636719 14.75 20.84375 14.84375 20.84375 15.027344 C 20.84375 15.132812 20.832031 15.222656 20.8125 15.304688 C 20.214844 17.511719 18.9375 19.410156 16.976562 20.996094 C 15.019531 22.585938 12.914062 23.378906 10.667969 23.378906 C 8.339844 23.378906 6.367188 22.605469 4.761719 21.058594 C 3.152344 19.511719 2.347656 17.460938 2.347656 14.90625 Z M 2.347656 14.90625 " fill-opacity="1" fill-rule="nonzero"/></g></g></g></svg>